<?xml version="1.0" encoding="utf-8"?>
<!-- Generator: Adobe Illustrator 25.4.1, SVG Export Plug-In . SVG Version: 6.00 Build 0)  -->
<svg version="1.1" id="Capa_1" xmlns="http://www.w3.org/2000/svg" xmlns:xlink="http://www.w3.org/1999/xlink" x="0px" y="0px"
	 viewBox="0 0 713.2 939.9" style="enable-background:new 0 0 713.2 939.9;" xml:space="preserve">
<style type="text/css">
	.st0{fill:#FFFFFF;}
</style>
<g>
	<g>
		<path class="st0" d="M182.9,732.9c-10.7,0-20.9-1.8-31.3-3.9c-12.1-2.4-32.1-6.4-41.9-27.3c-0.9-0.5-2.2-1.1-3.2-1.5l-0.8-0.4
			c-22.2-10.3-40.8-19.1-59.5-28.1C14.7,656.4,3,630,10.4,590.9c6.4-33.5,14.4-67.1,22.1-99.5l2.6-11.1c0.9-3.6,1.7-7.3,2.5-10.9
			c5-22.3,10.2-45.3,24.3-66.7c25.3-38.7,60-62.1,103.1-69.6c20.6-3.6,41.5-6.3,61.7-9c8.9-1.2,18.1-2.4,27.1-3.7
			c9.3-1.3,17.9,5.2,19.2,14.5c1.3,9.3-5.2,17.9-14.5,19.2c-9.1,1.3-18.4,2.5-27.4,3.7c-19.9,2.6-40.4,5.3-60.3,8.8
			c-33.9,5.9-60.2,23.7-80.4,54.7c-10.7,16.3-15,35.4-19.6,55.6c-0.8,3.8-1.7,7.5-2.6,11.3l-2.6,11.1c-7.6,32.1-15.5,65.3-21.8,98
			c-5.2,27.2,2.4,36.7,17.3,43.9c18.4,8.9,36.9,17.6,59,27.9l0.7,0.3c5.7,2.6,15.2,7,19.4,17.4c2,4.8,5.3,6.5,18,9
			c12.5,2.5,23.7,4.4,34.3,2.3c1.3-0.3,1.9-0.5,2.2-0.6c0.1-0.1,0.3-0.3,0.5-0.7c9.1-16.1,16.4-33.4,21.8-51.6
			c2.1-7,0.4-9.3-2.3-11.8l-1-0.9c-6.3-5.8-12.3-11.2-18.3-13.8c-14.9-6.4-21.9-18.3-20.9-35.3c0-0.8,0.1-1.6,0.2-2.4
			c0-0.6,0.1-1.4,0.1-2.1c-7.1-3.9-10.6-12.3-8-20.2c2.9-8.9,12.5-13.8,21.5-10.8c9.5,3.1,16.3,9.8,19.1,18.7c2,6.3,1.5,12.5,1.2,17
			c0,0.7-0.1,1.3-0.1,1.9c0,0.8-0.1,1.4,0,1.8c0.2,0.1,0.3,0.2,0.6,0.3c11.2,4.9,20,12.8,27.7,19.9l1,0.9c9.3,8.5,19,23.4,12.1,46.6
			c-6.1,20.6-14.5,40.3-24.8,58.6c-7.4,13.1-18.2,16.5-25.8,18C193.6,732.5,188.2,732.9,182.9,732.9z"/>
	</g>
	<g>
		<path class="st0" d="M508,732.9c-5.2,0-10.5-0.4-16-1.4c-12.6-2.4-21.5-8.8-27.1-19.7c-11.3-21.8-18.9-40.4-23.8-58.4
			c-4.7-17.4-1.1-32.1,10.8-43.7c8.6-8.3,17.9-16.9,30.1-22.2c0.2-0.1,0.5-0.2,0.6-0.3c0-0.4,0-1,0-1.8c0-0.6-0.1-1.3-0.1-1.9
			c-0.3-4.5-0.8-10.6,1.2-17c2.8-8.9,9.5-15.5,19.1-18.7c8.9-2.9,18.5,1.9,21.5,10.8c2.6,7.9-0.9,16.4-8,20.2c0,0.7,0.1,1.5,0.1,2.1
			c0.1,0.8,0.1,1.6,0.2,2.4c1,16.9-6,28.7-20.9,35.2c-7,3.1-13.7,9.3-20,15.5c-1.9,1.9-3.6,3.5-1.7,10.4c4.2,15.6,10.9,32,21.1,51.6
			c0.7,1.3,0.8,1.5,3.2,2c10.7,2,21.5,0.2,35.6-2.5c12.3-2.4,15.1-4.7,17-9c3.9-9.1,12.5-14.2,18.7-17.3c3.1-1.5,6.1-3,9.2-4.5
			c14.4-7.1,29.3-14.5,44.8-20.7c22.7-9.1,28.7-20.9,23.7-46.8c-6.4-32.8-14-66.1-21.4-98.2c-2.4-10.5-4.8-21-7.2-31.6
			c-6.4-28.4-16.7-49.1-32.2-65.2c-6.5-6.8-6.3-17.5,0.4-24c6.8-6.5,17.5-6.3,24,0.4c20,20.8,33,46.6,40.9,81.3
			c2.4,10.5,4.8,21,7.2,31.4c7.5,32.5,15.2,66,21.7,99.4c3.8,19.7,2.9,35.1-3,48.5c-6.9,15.9-20.9,28.1-41.5,36.3
			c-14.2,5.7-27.8,12.4-42.3,19.6c-3.1,1.5-6.2,3.1-9.3,4.6c-1.6,0.8-2.6,1.4-3.2,1.8c-10,21.4-30.9,25.4-41.1,27.3
			C530.9,730.8,519.8,732.9,508,732.9z"/>
	</g>
	<g>
		<path class="st0" d="M348,925.1c-16.7,0-33.7-1.9-51.2-5.7c-42.5-9.2-79.9-31.1-111.3-65.1c-28.3-30.6-46.2-66.1-53.2-105.5
			c-1.6-9.2,4.5-18.1,13.8-19.7c9.3-1.6,18.1,4.5,19.7,13.8c5.9,33.3,20.5,62.2,44.7,88.4c26.5,28.7,58,47.2,93.5,54.9
			c55.7,12.1,106.4,1.5,150.8-31.4c35.9-26.6,59.3-62,69.6-105.1c-0.1-0.6-0.2-1.3-0.3-2.1c-0.9-9.3,5.9-17.7,15.2-18.6
			c9.3-0.9,17.6,5.8,18.6,15.1c0,0.2,0.1,0.3,0.1,0.5c0.4,2.1,1.1,5.9,0,10.5c-11.9,52.2-39.8,95-82.9,127
			C436.4,910.7,393.9,925.1,348,925.1z"/>
	</g>
	<g>
		<path class="st0" d="M222.8,565.8c-5.3,0-10.4-2.4-13.8-7c-5.5-7.6-3.8-18.2,3.8-23.7c1.2-0.9,2.4-1.7,3.5-2.6
			c2.9-2.1,5.8-4.3,9.1-6.5c35.6-23.1,74.1-35.3,114.4-36.1c51.4-1.1,98.1,14.2,138.8,45.4c7.5,5.7,8.9,16.4,3.2,23.8
			c-5.7,7.5-16.4,8.9-23.8,3.2c-34.5-26.4-73.9-39.3-117.4-38.4c-33.9,0.7-66.4,11-96.6,30.6c-2.3,1.5-4.7,3.3-7.2,5.2
			c-1.3,1-2.6,2-3.9,2.9C229.8,564.8,226.3,565.8,222.8,565.8z"/>
	</g>
	<g>
		<path class="st0" d="M241.1,606.7c-4.8,0-9.5-2-12.8-5.8c-6.2-7.1-5.4-17.8,1.7-24c32.7-28.4,70.8-43.2,113.2-43.8
			c44-0.6,83.7,14.1,118,43.8c7.1,6.2,7.9,16.9,1.7,24c-6.2,7.1-16.9,7.9-24,1.7c-27.7-24.1-59.8-36-95.2-35.5
			c-34.2,0.5-64.9,12.4-91.4,35.5C249,605.4,245,606.7,241.1,606.7z"/>
	</g>
	<g>
		<path class="st0" d="M457.1,514.3c-4.3,0-8-1.3-10.2-2.4c-8.5-4-12.1-14.2-8.1-22.6c2.5-5.3,7.4-8.7,12.7-9.5
			c4.1-4.7,8.1-9.5,12.3-14.6c2.4-3,4.9-6,7.5-9.1l7.8-9.3c32.4-38.6,65.8-78.5,98.9-117.7c0.3-0.3,0.5-0.7,0.8-1
			c2.5-3.3,9.1-12.1,21.5-12.1c0.3,0,0.6,0,0.9,0c9.4,0.3,16.7,8.2,16.4,17.6c-0.3,7.5-5.4,13.7-12.2,15.7c-0.4,0.5-0.9,1.1-1.4,1.7
			c-33,39.1-66.5,79-98.8,117.6l-7.8,9.3c-2.4,2.9-4.8,5.9-7.2,8.7c-4.4,5.3-8.9,10.8-13.6,16.2c-0.2,0.2-0.3,0.4-0.5,0.6
			C469.8,512,462.9,514.3,457.1,514.3z"/>
	</g>
	<g>
		<path class="st0" d="M396.3,488.4c-5.3,0-9.5-2.1-10.8-2.9c-8.1-4.7-10.9-15.1-6.3-23.2c2.4-4.2,6.3-6.9,10.6-8l14.9-17.8
			c36.6-43.7,74.5-88.9,112.1-133.2c0,0,0.1-0.1,0.1-0.1c-0.5-9.4,6.7-17.4,16.1-17.8c9.4-0.5,17.4,6.7,17.9,16.1
			c0.5,9.1-2.2,16.9-8.1,23.9c-37.5,44.2-75.3,89.3-111.9,133L413.5,479c-0.1,0.1-0.2,0.3-0.3,0.4
			C407.5,486.4,401.4,488.4,396.3,488.4z"/>
	</g>
	<g>
		<path class="st0" d="M420.9,657.3c-1.9,0-3.8-0.3-5.7-1c-42.5-15.2-85.5-16.2-131.5-3c-0.2,0.1-0.5,0.2-0.7,0.3
			c-3.2,1.4-11.6,5-21.1,0.5c-8.5-4-12.1-14.1-8.1-22.6c3.2-6.7,10.2-10.4,17.2-9.7c0.9-0.4,2-0.8,3.1-1.1
			c52.4-15,103.7-13.8,152.5,3.6c8.8,3.2,13.4,12.9,10.3,21.7C434.4,653,427.9,657.3,420.9,657.3z"/>
	</g>
	<g>
		<path class="st0" d="M380,873.7c-0.5,0-1,0-1.4-0.1c-9.4-0.8-16.3-9-15.5-18.4c0-0.5-0.1-2-0.2-3.2c-0.4-3.5-0.9-8.2,0.2-13.8
			c6.8-34.8,25.5-60.4,55.5-76.1c22.2-11.6,46.6-20.7,74-8.2c8.5,3.9,12.3,14,8.4,22.5c-3.9,8.5-14,12.3-22.5,8.4
			c-13.5-6.1-26.4-2-44.2,7.3c-20.7,10.8-33.1,28-37.9,52.5c-0.1,0.5,0.1,2.2,0.2,3.6c0.3,2.6,0.6,5.9,0.3,9.7
			C396.2,867,388.7,873.7,380,873.7z"/>
	</g>
	<g>
		<path class="st0" d="M311.1,873.7c-0.5,0-1,0-1.5-0.1c-9.4-0.8-16.3-9-15.5-18.4c2-23.2-8-41.9-32.2-60.4
			c-9.8-7.5-22.4-10.2-37.8-12.9c-2.8-0.5-6.6,0.8-11.8,3.1c-8.6,3.8-18.6-0.2-22.4-8.8c-3.8-8.6,0.2-18.6,8.8-22.4
			c9.3-4,19.5-7.5,31.3-5.4c14.9,2.6,35.4,6.3,52.6,19.4c33.5,25.6,48.4,55.2,45.4,90.3C327.2,867,319.8,873.7,311.1,873.7z"/>
	</g>
	<g>
		<path class="st0" d="M341.9,881.9c-11.4,0-23.3-1.8-35.2-7.8c-0.2-0.1-0.4-0.2-0.5-0.3c-40.7-1.1-67-27.1-90.3-50l-0.4-0.4
			c-14.1-13.9-23.4-29.9-27.7-47.6c-0.4-1.6-1.9-4.1-3.3-6.6c-3.1-5.3-7.3-12.5-8.1-21.8c-0.8-9.4,6.1-17.6,15.4-18.4
			c9.3-0.8,17.6,6.1,18.4,15.4c0.2,1.7,1.9,4.8,3.6,7.7c2.4,4.2,5.4,9.3,7,15.7c2.8,11.4,9,22,18.6,31.4l0.4,0.4
			c21.9,21.6,40.8,40.3,69.2,40.3c0.3,0,0.6,0,0.9,0c6.1-0.1,10.5,2.7,12.4,3.9l0.2,0.1c11.9,5.8,25.3,4.1,40.8,2.2
			c1.2-0.1,2.4-0.3,3.6-0.4c3-2.1,8.8-5.7,17.1-4.9c8.3,0.8,16.6-3.6,26.3-8.8c1.3-0.7,2.6-1.4,3.9-2.1c31-16.3,52-43,66.2-84.1
			c0.2-0.7,0.5-1.4,0.8-2c0.8-6,4.7-11.4,10.7-13.8c8.8-3.4,18.6,0.9,22,9.7c2.3,6,1.7,12.1-1.7,18.2c-16.9,48.5-43.8,81.9-82.1,102
			c-1.2,0.6-2.5,1.3-3.7,2c-11.2,6-25,13.4-41.8,12.9c-2.4,1.6-6,3.7-11,4.3c-2,0.2-4,0.5-6,0.7
			C359.3,880.8,350.7,881.9,341.9,881.9z M482,752L482,752L482,752z"/>
	</g>
	<g>
		<path class="st0" d="M133.4,603.5c-0.5,0-1,0-1.6-0.1c-9.4-0.8-16.2-9.1-15.4-18.5c0.1-0.8,0.1-1.8,0.1-2.9
			c0.1-3.4,0.3-7.7,1.7-12.4c2.2-7,4.5-14,6.8-20.8c3.3-9.8,6.3-19,9-28.4c1.4-5,3.1-9.8,4.7-14.4c2.8-7.9,5.4-15.4,6.2-22.7
			c1.1-9.3,9.5-16,18.9-14.9c9.3,1.1,16,9.5,14.9,18.9c-1.3,11-4.6,20.7-7.9,30c-1.5,4.3-2.9,8.4-4.1,12.5
			c-2.9,10.2-6.2,20.2-9.5,29.9c-2.2,6.6-4.5,13.4-6.5,20.1c-0.1,0.5-0.2,2.3-0.2,3.6c-0.1,1.4-0.1,3-0.3,4.7
			C149.5,596.9,142.1,603.5,133.4,603.5z"/>
	</g>
	<g>
		<path class="st0" d="M557.6,603.5c-0.7,0-1.5,0-2.3-0.1c-9.3-1.2-15.9-9.8-14.6-19.1c0.2-1.8-0.7-4.9-1.6-7.7
			c-6.8-21.5-13.8-43.3-20.5-64.4l-6.9-21.6c-2.9-8.9,2.1-18.5,11-21.4c8.9-2.8,18.5,2.1,21.4,11l6.9,21.6
			c6.7,21.1,13.7,43,20.5,64.6c2,6.3,4,13.7,2.8,22.4C573.3,597.3,566,603.5,557.6,603.5z"/>
	</g>
	<g>
		<path class="st0" d="M152.8,613.2c-3.7,0-7.5-1.2-10.7-3.8c-7.3-5.9-8.5-16.6-2.6-23.9c2.3-2.9,4.5-6.3,6.9-9.9
			c6.4-9.8,14.4-22,29-29.2c8.4-4.1,18.6-0.6,22.7,7.8s0.6,18.6-7.8,22.7c-5.9,2.9-9.7,8.4-15.5,17.2c-2.7,4.1-5.5,8.4-8.9,12.6
			C162.7,611,157.7,613.2,152.8,613.2z"/>
	</g>
	<g>
		<path class="st0" d="M538.2,613.2c-5,0-9.9-2.2-13.2-6.3c-3.4-4.2-6.2-8.5-8.9-12.6c-5.2-7.9-9.3-14.2-15.6-17.3
			c-8.4-4.2-11.9-14.4-7.7-22.8c4.2-8.4,14.4-11.9,22.8-7.7c14.5,7.2,22.5,19.4,28.9,29.1c2.4,3.6,4.6,7,6.9,9.9
			c5.9,7.3,4.8,18-2.5,23.9C545.8,612,542,613.2,538.2,613.2z"/>
	</g>
	<g>
		<path class="st0" d="M344.4,331.1c-8.4,0-16.8-0.6-25.2-1.9c-32.9-5-65.9-23.4-90.6-50.3c-25.8-28.2-40.5-62.9-41.5-97.8
			c-1.3-47.5,13.4-86.7,44.9-119.9c23-24.2,52.8-39.6,91-47c1.3-0.2,2.6-0.3,3.8-0.3c0.4,0,0.8,0,1.1,0c4.5,0.2,9,0.2,13.8,0.2
			c12.8,0,26.1,0,40,3.3c50.5,11.8,90.8,46.1,110.6,93.9c9.4,22.7,13.5,47.6,11.8,72c-1.8,25.9-9.7,50.5-23.7,73
			C451.3,303.3,399.7,331.1,344.4,331.1z M327.7,48c-30.2,6.1-53.4,18.1-71,36.6c-25,26.3-36.6,57.5-35.5,95.5
			c1.5,54.2,48.8,107.1,103.3,115.4c6.7,1,13.4,1.5,20.1,1.5c43.6,0,84.3-21.8,107.2-58.7c21.5-34.8,24.9-76.3,9.3-114
			c-15.6-37.6-47.3-64.5-86.9-73.8c-10.2-2.4-20.9-2.4-32.3-2.4C337.1,48.2,332.4,48.2,327.7,48z"/>
	</g>
	<g>
		<path class="st0" d="M343.3,754.5c-14.2,0-28.5-5.9-36.9-16.4c-10.8-13.6-14-30.2-8.8-45.6c5.3-15.7,18.8-28,35.1-32
			c1.6-0.4,3.1-0.5,4.7-0.5c0.8,0,1.7,0,2.5,0c2,0,4.3-0.1,6.9,0.1c21.6,1.7,38.2,17.3,42.3,39.7c4,21.9-6.3,41.4-26.9,50.8
			C356.4,753.2,349.9,754.5,343.3,754.5z M339.4,693.9c-4.4,1.6-8.1,5.2-9.5,9.5c-1.5,4.4-0.4,9,3.2,13.5c2.3,2.8,10.6,4.8,15.1,2.7
			c6.5-3,8.8-7.1,7.6-13.8c-0.6-3.3-2.9-11.2-11.5-11.9c-0.8-0.1-2.1,0-3.4,0C340.3,693.9,339.8,693.9,339.4,693.9z"/>
	</g>
</g>
</svg>
