<svg id="Capa_1" data-name="Capa 1" xmlns="http://www.w3.org/2000/svg" viewBox="0 0 384 384"><defs><style>.cls-1{fill:#fff;}</style></defs><path class="cls-1" d="M.75,239.53c3-4.4,5.33-5.14,10.1-2.81q32.43,15.84,64.83,31.78a13.82,13.82,0,0,1,4.73,4.13,95.27,95.27,0,0,0,24.77,22.55c2,1.25,3.13,1.49,4.08-1.13,1.25-3.46,3.71-6.11,6.47-8.55,7.75-6.86,15.39-13.85,23.1-20.76,2.28-2,4.87-2.51,7.54-.78a5.48,5.48,0,0,1,2.56,6.13,8.17,8.17,0,0,1-2.88,4.28q-9.86,8.89-19.7,17.81a50.82,50.82,0,0,0-4.84,4.66,8.44,8.44,0,0,0-.72,10.1c2.16,3.28,5.29,4.38,9.09,3.6,1.22-.25,2.4-.7,3.62-.91a5.51,5.51,0,0,1,5.68,2,5.66,5.66,0,0,1,.7,6.32c-.32.67-.77,1.29-1.14,1.93-2.26,4-2,7.89.73,10.69s7.41,3.28,11.1,1.22c.86-.49,1.64-1.14,2.5-1.64,2.7-1.59,5.31-1.4,7.51.84s2.15,4.65.75,7.23c-.29.55-.67,1.05-1,1.59-2.2,3.81-1.89,8,.8,10.7a9.05,9.05,0,0,0,11.07,1.08c1-.57,1.79-1.35,2.75-1.94,2.49-1.53,5-1.57,7.26.41a5.5,5.5,0,0,1,1.27,7.43c-1.42,2.42-2.61,4.78-2.26,7.71a7.34,7.34,0,0,0,5.69,6.62c3.58,1.08,6.62,0,9.37-2.27a1.52,1.52,0,0,0,.19-2.32c-.69-.89-1.44-1.72-2.21-2.54-5.71-6.08-7.6-13.26-4.94-21.08,2.81-8.25,9.08-13,17.66-14.26,2.58-.38,3.43-1.44,4.15-3.79,2.6-8.47,8.33-13.74,17.16-15.22,2.76-.46,4.21-1.44,5.11-4.33,2.8-8.94,9.05-14.1,18.46-15.07a3.16,3.16,0,0,0,3.25-2.82c2.17-8.87,7.95-14.41,16.73-16.22,8.35-1.72,15.09,1.61,20.39,8.17,2.58,3.2,5.55,6.1,8,9.36,1.76,2.3,3.2,2,5.26.55A57.12,57.12,0,0,0,321,274.4a23.35,23.35,0,0,1,10.11-8.49c14-6.62,27.83-13.48,41.75-20.23A18.61,18.61,0,0,1,377,244a5.5,5.5,0,0,1,6.5,3.19,5.22,5.22,0,0,1-1.28,6.77,18,18,0,0,1-4.12,2.52q-21,10.32-42,20.55a12.45,12.45,0,0,0-5.11,4.2,69.34,69.34,0,0,1-23.08,21.47,5.55,5.55,0,0,0-2.7,3.79c-2.62,10.16-8.94,16.16-19.58,17.12-1.74.15-2.23,1-2.63,2.51-2.62,9.84-9,15.54-19.12,16.86-2,.25-2.71,1.11-3.21,2.93C258.13,355,252.18,360.41,243,362c-2.66.47-4,1.43-4.79,4.16-3.93,13.3-17.81,19-30.21,12.54-1.72-.9-2.83-.93-4.26.38-10.65,9.72-30.76,6-34.45-11.17-.42-2-1.52-2.65-3.3-2.87-10.33-1.29-16.89-6.79-19-17.18-.34-1.67-1.2-2.38-3-2.69-11.65-2-17.23-7.67-18.9-19.36a4,4,0,0,0-3.28-3.84,18.87,18.87,0,0,1-10.63-7.83,13.55,13.55,0,0,0-5.21-4.65,106,106,0,0,1-33.28-27.38,17.07,17.07,0,0,0-6.13-4.75q-29.94-14.56-59.84-29.2C4.28,247,2,245.77.75,243.27ZM240.25,350.1a9,9,0,0,0,7.85-4.86c1.5-2.91,1.47-5.91-.57-8.45a162.39,162.39,0,0,0-10.75-12.38c-3.3-3.36-7.8-3.06-11.39.18s-4.09,7.66-1.12,11.35c3.19,4,6.62,7.75,10,11.56A7.5,7.5,0,0,0,240.25,350.1Zm53-47.48a6.78,6.78,0,0,0-1.69-4.79c-3.39-4-6.74-8-10.38-11.7-3.25-3.33-7.93-3.2-11.4-.11s-4.29,7.52-1.32,11.28c3.3,4.19,6.89,8.17,10.57,12a7.19,7.19,0,0,0,8.88,1.57A8.65,8.65,0,0,0,293.28,302.62Zm-83.59,38.85a8.92,8.92,0,0,0-8.43,4.87,7.27,7.27,0,0,0,.73,8.71c3,3.75,6.24,7.41,9.52,11,4,4.35,8.34,4.61,12.39,1,3.7-3.32,4-8.15.51-12.31-2.85-3.45-5.86-6.76-8.83-10.1C213.86,342.64,211.8,341.35,209.69,341.47Zm52.57-10.72c3.87.09,6.32-1.86,8-4.84a7.26,7.26,0,0,0-.84-8.69c-3.21-4-6.49-7.86-10-11.55s-8.16-3.76-11.9-.32a8.43,8.43,0,0,0-.64,12c2.86,3.44,5.82,6.79,8.76,10.16C257.46,329.59,259.61,331,262.26,330.75Z"/><path class="cls-1" d="M.75,134.74c3.58-4.32,5.11-4.71,10.69-2.1Q52.27,151.75,93.06,171a24.27,24.27,0,0,1,3.7,1.78c8.79,6.13,18.14,5.56,28.13,3.49,10.21-2.11,20.51-4.17,31.05-4.33,19.4-.29,36.49,5.94,51.45,18.11a6.27,6.27,0,0,0,6.41,1.34c17.07-4.78,34.21-4.61,50.64,2,8.82,3.57,15.54,2.4,23.52-2.45,27.28-16.59,55.05-32.36,82.63-48.45,1.08-.62,2.15-1.27,3.26-1.83,3.48-1.75,6.78-1,8.55,1.86,1.86,3,.94,6.39-2.64,8.56-6.08,3.69-12.26,7.21-18.4,10.79-25.11,14.63-50.27,29.18-75.29,44-5.62,3.31-11,4-17.09,1.68-9-3.36-18.09-6.32-27.8-7.1-6.06-.48-11.92.32-17.85,1.08-2.9.37-2.74,1.34-.94,3.14,7.15,7.14,14.34,14.25,21.32,21.55,6.33,6.62,8.34,14.41,4.86,23.09-5.08,12.66-20.43,17-31.88,9-8.92-6.19-17.78-12.45-26.54-18.87-2.36-1.73-3.93-1.73-6,.33-4.1,4-8.45,7.75-12.71,11.6-2,1.84-4,3.74-6.15,5.47-2.95,2.4-6.51,2.23-8.7-.27s-2.24-5.76.55-8.35c7.48-7,15-13.87,22.78-20.54,4.27-3.68,9.32-3.49,14.49.12,9.31,6.5,18.54,13.11,27.79,19.69,2.38,1.69,4.84,3.14,7.91,2.73,3.49-.47,6.19-2.26,7.34-5.61a9.09,9.09,0,0,0-2.36-9.95Q219,218.42,203,202.13c-.7-.71-1.46-1.36-2.22-2-17-14.35-36.45-18.64-58.08-14.76-10.79,1.93-21.64,3.51-32.45,5.35-2.41.4-4.42-.44-6.45-1.4L13.71,147c-2.59-1.22-5.18-2.47-7.81-3.6a11,11,0,0,1-5.15-4.16Z"/><path class="cls-1" d="M196.12.75c18.31,3.66,36.62,7.38,54.95,11,15.88,3.1,18.54,6.23,18.54,22.48,0,10.35,0,20.7,0,31.05a17.25,17.25,0,0,1-.49,4.43,5.82,5.82,0,0,1-11.26,0,17.29,17.29,0,0,1-.47-4.43c0-11.72-.15-23.45.05-35.17.06-3.62-1.38-5.11-4.75-5.76-19-3.66-37.89-7.48-56.84-11.15-6.35-1.23-12.34,1.21-18.42,2.32-15.08,2.74-30.09,5.81-45.13,8.72-5.38,1-5.59,1.25-5.59,6.82,0,15,0,29.93,0,44.9a75.38,75.38,0,0,0,48.7,70.6c5.57,2.13,11.37,6.41,16.85,5.44a82.09,82.09,0,0,0,27.39-10.64q27.74-16.47,35.69-47.82c.24-1,.43-1.95.75-2.9,1.1-3.26,3.91-5.06,6.85-4.42a6,6,0,0,1,4.72,7.3,82.54,82.54,0,0,1-9.28,25.16c-10.64,18.72-26.11,31.8-46.22,39.52-19.38,7.44-19.38,7.58-38.64.52-27.72-10.15-46-29.44-55.16-57.44a84.68,84.68,0,0,1-3.88-25.78c-.1-15.09,0-30.18,0-45.27,0-10.62,4.08-15.55,14.47-17.58Q157.69,7,186.48,1.35c.73-.14,1.44-.4,2.15-.6Z"/><path class="cls-1" d="M247.16,59.67c-.12,11.56.76,23.18-2.77,34.49-6,19.33-18.16,33.3-36.64,41.51-15.33,6.81-18.15,6.81-33.75-1.1-23.83-12.07-35.95-31.93-37-58.42-.48-11.57-.11-23.18-.08-34.78,0-6,1.47-7.68,7.31-8.84,14.66-2.9,29.33-5.74,44-8.72a22,22,0,0,1,8.86.09q21.06,4.2,42.14,8.33c6.77,1.35,8,2.84,8,9.86C247.17,48,247.16,53.81,247.16,59.67Zm-12.27,4.86c0-6-.18-11.29.07-16.52.16-3.28-1-4.61-4.23-5.19-10.06-1.79-20-4-30.09-5.79-3.28-.6-6.49-2-9.93-1.33-12.71,2.46-25.42,5-38.15,7.41-2.5.47-3.52,1.54-3.48,4.23.15,9.1,0,18.2.06,27.31.06,26,16.19,46.83,41.28,53.48a5.13,5.13,0,0,0,2.93.1c20.06-6,34-18.28,39.87-38.85C235.62,80.94,234.7,72.3,234.89,64.53Z"/><path class="cls-1" d="M182.82,105c-3.73,0-15.07-10.76-15-14.39a5.85,5.85,0,0,1,3.44-5.37c2.26-1.14,4.29-.68,6.32.68,1.73,1.15,2.94,4.2,4.82,3.52s3.25-3.25,4.74-5.07c6.12-7.39,12.19-14.82,18.29-22.22.63-.77,1.28-1.53,2-2.25,2.78-2.84,6-3.18,8.6-.94s2.84,5.66.42,8.71c-4.09,5.18-8.37,10.22-12.56,15.32L188.7,101.43C187.16,103.3,185.45,104.9,182.82,105Z"/></svg>