<svg id="Capa_1" data-name="Capa 1" xmlns="http://www.w3.org/2000/svg" viewBox="0 0 273.19 89.75"><defs><style>.cls-1,.cls-2{fill:#fff;}.cls-2{stroke:#fff;stroke-miterlimit:10;stroke-width:1.65px;}</style></defs><path class="cls-1" d="M244.22,74.3c.77-2.52,2.06-4.6,2-7.23-3.53-.82-7.14.24-10.73-.83a77.51,77.51,0,0,1,3.69-10.83c3.58-1.15,7.13.33,10.42-1.08.73-2.17,2-4.11,2.06-6.47-3.1-.92-6.2.21-9.49-1,1.26-3.21,1.84-6.53,3.69-9.5,3.44-.62,6.9.21,10.32-.6a14.87,14.87,0,0,0,2.17-7.06H238.1c-5.19,14.7-10.39,29.41-15.75,44.57A218.45,218.45,0,0,0,244.22,74.3Z"/><path class="cls-1" d="M133.62,74.48c1.61-.06,3.3.41,5.12-.85,5.42-10.54,11-21.39,16.59-32.24l.83.27c-2.3,10.76-4.6,21.51-7,32.53a30.69,30.69,0,0,0,9.53-.09c3.07-14.63,6.15-29.3,8.85-44.36h-15.7c-7.95,14.62-16,29.27-24.08,44.76C130.38,74.5,132,74.55,133.62,74.48Z"/><path class="cls-1" d="M206.42,52.43a55.51,55.51,0,0,1,5.34,5c1.93,2.19,1.7,5.56-.28,8.31a4,4,0,0,1-5.6,1.41c-1.8-2.69.65-5,.53-7.63a22.77,22.77,0,0,0-9.25-.16,13.81,13.81,0,0,0-2.26,6.67c-.57,4.65,1.12,7.59,5.69,8.46,12.54,2.39,18.36-.85,21.86-10.76,2.24-6.34,1.61-8.64-3.59-13.22a36,36,0,0,1-4.38-4.26c-1.73-2.15-1.34-5.36.63-7.93,1.36-1.77,2.94-2.27,4.73-1.17,1.55,2.16-.44,4.16.27,6.26a32.18,32.18,0,0,0,8.27,0,12.78,12.78,0,0,0,1.85-4.84c1.25-5.39-1.12-8.75-6.59-9.46a45.24,45.24,0,0,0-7.36-.08,10,10,0,0,0-8.46,4.93,34.32,34.32,0,0,0-4.06,8.43C202.52,46.36,203.28,49.69,206.42,52.43Z"/><path class="cls-1" d="M268.24,74.32c.51-2.59,2.09-4.47,1.77-7-3.2-.6-6.38.29-9.85-.68l13-36.58A24.87,24.87,0,0,0,263.14,30L247.52,74.32Z"/><path class="cls-1" d="M170,74c2.53-7.73,5.09-15.53,7.64-23.33l.87.13c-.31,7.77-.64,15.54-.32,23.35,3.54.34,6.49.71,9.61-.24,5.14-14.56,10.28-29.11,15.49-43.88a23.28,23.28,0,0,0-8.8-.23c-3.37,8-5.39,16.3-8.62,24.16v-24a32.3,32.3,0,0,0-9.34-.12c-5.12,14.84-10.7,29.32-15.67,44.55C164.33,74.4,167,74.87,170,74Z"/><path class="cls-1" d="M94.7,74.26c3.83-9.26,6.16-19,10.67-28.12-1.35,9.22-2.69,18.44-4.06,27.8a17.73,17.73,0,0,0,8.4.18L125,46.69l.83.35c-3.29,8.94-6.58,17.88-10.08,27.37,3.5-.07,6.29.56,9.36-.43,5.14-14.52,10.29-29.09,15.66-44.24a102.77,102.77,0,0,0-13.73.05L111,59c.42-9.94,3.28-19.33,4.06-29.23-4.07-.31-7.69-.57-11.52.19a120.18,120.18,0,0,1-9,23.69A83,83,0,0,1,78.9,74.26Z"/><path class="cls-1" d="M59.24,60.48a14.26,14.26,0,0,0,6.87.62s-1.77,3.12-3.43,2.6S59.24,60.48,59.24,60.48Z"/><path class="cls-1" d="M52.28,61.62S58.41,68,64,68.9c0,0,10.29-7.69,12.37-13.62,0,0,1.67-2.08-3.22-8,0,0-2.18-3.85-.83-6.76s1.14-4.34,1.14-4.34a33.94,33.94,0,0,0-4.78-7.93C65.17,23.66,54,12.85,54,12.85s-3.12-1.77-.41-4.27,9.46-3.33,9.46-3.33S81.4,8.17,93.15,21.17c0,0-7.59,48.05-40.87,60.73,0,0-1.43,1.36-2.76-1.37s-4.6-9.36-4.6-9.36-2.34-6.79,2.18-10A5.13,5.13,0,0,1,52.28,61.62Z"/><path class="cls-1" d="M46.4,15.55S41.25.42,62.94,1.2c0,0-20.83-6.56-30.27,11A12.6,12.6,0,0,0,35.4,23.66,3.85,3.85,0,0,1,35.71,21s.52,2.42,3.81,2.65a23.73,23.73,0,0,0,7.19-.93s3.82-1.17,3.28-6.32a8.7,8.7,0,0,1-1.09-5.18S47.44,11.39,46.4,15.55Z"/><path class="cls-1" d="M2.72,24.36S16.84,14.69,26,12.59l4.29-6.87S15.12,6.27.3,20.78C.3,20.78-1.26,24.36,2.72,24.36Z"/><path class="cls-1" d="M70.37,53.72c-5.3.52-4.26-4.58-4.26-4.58l3.74-.31c-.62-2.6-3.64-6.55-3.64-6.55C68,41.24,68.92,37,68.92,37,65.07,25.64,52.8,18.67,52.8,18.67c-7,13.21-12.48,11.54-12.48,11.54-9.68-3-13.84,2.6-13.84,2.6,2.26,3.8,7.28,4,7.28,4-7.28,3.32-13.2-4.68-13.2-4.68a27.8,27.8,0,0,1,5.61-4.37c3.95-2.5,1.77-2.81,1.77-2.81C13.8,28,7.56,42.59,7.56,42.59L19,62.46l.2,0c.07-.18.13-.35.21-.54C21.91,55.7,31.06,48,31.06,48c-2.91,3.53-4.58,19.14-4.16,20.59,1.19,4.18,9.57,6.24,9.57,6.24-7.28-19,6.65-35.78,6.65-35.78.66,9,2.4,10.82,2.4,10.82C48,56.11,58.1,53.2,58.1,53.2c.62,2,1.14,3.43,1.14,3.43s2.4,2.81,8.64,1S70.37,53.72,70.37,53.72ZM56.62,31.93A1.19,1.19,0,0,1,57,30.41c.86-.74,1.64-.2,1.09-2.07,0,0-.63-1.44.65-.82A38.88,38.88,0,0,1,65,34.35S58.41,32.4,56.62,31.93Z"/><line class="cls-2" x1="71.49" y1="84.61" x2="155.03" y2="84.61"/><path class="cls-1" d="M159.67,89.62l1-8.74h1.78c-.23,1.56-.77,4.61-1,6h.06c.58-1.67,1.42-4.1,2-6H165c-.21,1.71-.56,4.4-.79,6.07h.07c.41-1.6,1.25-4.62,1.69-6.07h1.79l-3.15,8.74h-1.84c.17-1.45.3-3.05.55-4.85h-.06c-.58,1.77-1.15,3.27-1.7,4.85Z"/><path class="cls-1" d="M171,85.73h-1.93l-.54,2.45h2.33l-.52,1.44h-3.91l2-8.74h3.8l-.33,1.44h-2l-.45,2h1.93Z"/><path class="cls-1" d="M173.21,80.88H175l-1.66,7.28h2.21l-.45,1.46h-3.86Z"/><path class="cls-1" d="M177.79,80.88h1.78l-1.66,7.28h2.21l-.45,1.46h-3.86Z"/><path class="cls-1" d="M184.23,87.1l-.09.42c-.11.6,0,.92.4.92s.57-.27.7-.86,0-1.16-.78-2c-1-1-1.33-1.59-1.05-2.92a2.12,2.12,0,0,1,2.31-1.9c2.05,0,2.2,1.33,2,2.44l0,.19H186l.07-.33c.11-.57.1-1-.33-1s-.48.16-.56.61c-.12.62,0,.9.63,1.6,1.25,1.36,1.53,2,1.23,3.4a2.33,2.33,0,0,1-2.61,2.06c-1.75,0-2.3-1-2-2.44l.05-.21Z"/><path class="cls-1" d="M192,85.73H190l-.54,2.45h2.34l-.53,1.44h-3.91l2-8.74h3.81l-.34,1.44h-2l-.45,2h1.93Z"/><path class="cls-1" d="M194.8,85.85l-.86,3.77h-1.77l2-8.74h2.15c1.57,0,2.26.76,1.93,2.28l-.12.5c-.23,1-.71,1.42-1.25,1.57.41.26.68.66.35,2a18.67,18.67,0,0,0-.47,2.37H195a14.69,14.69,0,0,1,.5-2.69c.19-.87.1-1.08-.47-1.08Zm.3-1.31h.24c.64,0,.85-.17,1-1l.11-.54c.12-.59,0-.87-.55-.87h-.28Z"/><path class="cls-1" d="M198.5,89.62l.63-8.74h1.81l-.4,3.13c-.15,1.16-.37,2.76-.53,3.85h.07c.31-1.08.84-2.68,1.22-3.83l1-3.15h1.84l-3.34,8.74Z"/><path class="cls-1" d="M206.58,80.88l-2,8.74h-1.77l2-8.74Z"/><path class="cls-1" d="M210.81,86.84l-.09.38c-.32,1.25-.63,2.53-2.68,2.53-1.66,0-2.27-.86-1.88-2.55l.9-4c.39-1.67,1-2.49,2.59-2.49,2.2,0,2.19,1.45,1.93,2.47l-.08.34h-1.77l.14-.63c.13-.55.06-.83-.32-.83s-.49.25-.63.88l-1,4.5c-.13.57-.13.92.29.92s.52-.27.67-.93l.15-.63Z"/><path class="cls-1" d="M215.54,85.73h-1.93l-.54,2.45h2.33l-.52,1.44H211l2-8.74h3.8l-.33,1.44h-2l-.46,2h1.94Z"/><path class="cls-1" d="M217.82,87.1l-.08.42c-.12.6,0,.92.4.92s.57-.27.69-.86,0-1.16-.77-2c-.95-1-1.33-1.59-1.06-2.92a2.13,2.13,0,0,1,2.32-1.9c2.05,0,2.19,1.33,2,2.44l0,.19h-1.7l.07-.33c.12-.57.11-1-.32-1s-.48.16-.57.61c-.12.62,0,.9.63,1.6,1.25,1.36,1.54,2,1.23,3.4a2.32,2.32,0,0,1-2.6,2.06c-1.76,0-2.3-1-2-2.44l0-.21Z"/><path class="cls-1" d="M229.78,84.36l-2.22,3.27c-1.11,1.64-1.69,2.09-2.88,2.09-1.54,0-2.09-1-1.71-2.7.24-1.09.74-1.65,2.5-2.72.95-.58,1.09-.77,1.27-1.5.1-.46,0-.8-.31-.8s-.43.21-.53.63a2.45,2.45,0,0,0,.26,1.76l2.5,5.23h-1.79L224.7,85a3.39,3.39,0,0,1-.34-2.51,2,2,0,0,1,2.14-1.76c1.51,0,2,1.06,1.66,2.43-.2.72-.43,1.08-2,2-1,.63-1.32,1-1.51,1.8s0,1.27.47,1.27.75-.44,1.17-1.08l1.84-2.87Z"/><path class="cls-1" d="M233.14,80.88h1.78l-1.67,7.28h2.22L235,89.62h-3.86Z"/><path class="cls-1" d="M241.66,83.35l-.92,4c-.36,1.6-1,2.36-2.72,2.36s-2.32-.94-2-2.56l.95-4.26a2.42,2.42,0,0,1,2.61-2.18C241.28,80.75,242.05,81.66,241.66,83.35Zm-2.85-.44-1,4.6c-.11.47-.08.89.42.89s.6-.34.72-.85l1-4.61c.11-.5,0-.83-.45-.83S238.93,82.35,238.81,82.91Z"/><path class="cls-1" d="M245.83,89.62h-1.36a2.9,2.9,0,0,1,.09-.62,1.78,1.78,0,0,1-1.51.75c-1.45,0-1.67-1.08-1.35-2.5l.91-4c.33-1.48.87-2.51,2.67-2.49,2.15,0,2.22,1.43,2,2.41l-.06.27h-1.8l.1-.47c.1-.52.07-.85-.37-.85s-.52.16-.69.92l-1,4.4c-.15.64-.07,1,.34,1s.63-.33.82-1.15l.25-1.17h-.62l.33-1.4H247Z"/><path class="cls-1" d="M250.68,80.88l-2,8.74h-1.77l2-8.74Z"/><path class="cls-1" d="M251.88,87.1l-.09.42c-.11.6,0,.92.41.92s.57-.27.69-.86,0-1.16-.77-2c-1-1-1.33-1.59-1.06-2.92a2.13,2.13,0,0,1,2.32-1.9c2.05,0,2.19,1.33,2,2.44l0,.19h-1.7l.07-.33c.12-.57.11-1-.32-1s-.49.16-.57.61c-.12.62,0,.9.63,1.6,1.25,1.36,1.53,2,1.23,3.4a2.32,2.32,0,0,1-2.6,2.06c-1.76,0-2.3-1-2-2.44l0-.21Z"/><path class="cls-1" d="M257.24,82.33h-1.33l.33-1.45h4.44l-.33,1.45H259l-1.65,7.29h-1.77Z"/><path class="cls-1" d="M263.07,80.88l-2,8.74h-1.76l2-8.74Z"/><path class="cls-1" d="M267.29,86.84l-.09.38c-.32,1.25-.63,2.53-2.67,2.53-1.66,0-2.28-.86-1.89-2.55l.91-4c.38-1.67,1-2.49,2.59-2.49,2.2,0,2.19,1.45,1.92,2.47l-.07.34h-1.77l.14-.63c.13-.55.06-.83-.32-.83s-.49.25-.64.88l-1,4.5c-.12.57-.13.92.29.92s.52-.27.68-.93l.15-.63Z"/></svg>