<?xml version="1.0" encoding="utf-8"?>
<!-- Generator: Adobe Illustrator 25.4.1, SVG Export Plug-In . SVG Version: 6.00 Build 0)  -->
<svg version="1.1" id="Capa_1" xmlns="http://www.w3.org/2000/svg" xmlns:xlink="http://www.w3.org/1999/xlink" x="0px" y="0px"
	 viewBox="0 0 1221.6 1213.5" style="enable-background:new 0 0 1221.6 1213.5;" xml:space="preserve">
<style type="text/css">
	.st0{fill:url(#SVGID_1_);}
	.st1{fill:url(#SVGID_00000067200654588900184780000002579285689352227992_);}
	.st2{fill:url(#SVGID_00000151529897258715462000000007090152470194552483_);}
	.st3{fill:url(#SVGID_00000083070022651111083900000009089792947748724663_);}
	.st4{fill:url(#SVGID_00000116205959839664065240000008643225841296139399_);}
</style>
<g id="Capa_5">
	
		<linearGradient id="SVGID_1_" gradientUnits="userSpaceOnUse" x1="421.841" y1="1669.7401" x2="409.6811" y2="794.2701" gradientTransform="matrix(1 0 0 -1 0 1832.0006)">
		<stop  offset="0" style="stop-color:#E11F2B"/>
		<stop  offset="1" style="stop-color:#B72F23"/>
	</linearGradient>
	<path class="st0" d="M70.3,642.1C70.3,328,324.9,73.4,639,73.4c52.6,0,104.9,7.3,155.4,21.7l44.8-48.9
		C765.5,15.6,686.5-0.1,606.8,0C271.7,0,0,271.7,0,606.8s271.7,606.7,606.8,606.7c22.9,0,45.8-1.4,68.6-4c-12,0.8-24.2,1.3-36.4,1.3
		C324.9,1210.8,70.3,956.2,70.3,642.1z"/>
	
		<linearGradient id="SVGID_00000183960105391095729180000018116419411038565523_" gradientUnits="userSpaceOnUse" x1="367.3906" y1="1544.816" x2="727.3107" y2="752.0261" gradientTransform="matrix(1 0 0 -1 0 1832.0006)">
		<stop  offset="0" style="stop-color:#EB6461"/>
		<stop  offset="1" style="stop-color:#E53726"/>
	</linearGradient>
	<path style="fill:url(#SVGID_00000183960105391095729180000018116419411038565523_);" d="M708.3,1061.7
		c-33.3,7.5-67.4,11.3-101.6,11.3c-257.1,0-466.2-209.1-466.2-466.2s209.1-466.2,466.2-466.2c43.7,0,87.2,6.2,129.2,18.4l58.4-63.8
		C743.9,80.7,691.6,73.4,639,73.4C324.9,73.4,70.3,328,70.3,642.1s254.6,568.7,568.7,568.7c12.2,0,24.3-0.5,36.4-1.3
		c49.8-5.6,98.8-17.3,145.7-35L708.3,1061.7z"/>
	
		<linearGradient id="SVGID_00000129922150080280870950000008355816414289989261_" gradientUnits="userSpaceOnUse" x1="641.7139" y1="1615.7704" x2="652.6639" y2="1052.1903" gradientTransform="matrix(1 0 0 -1 0 1832.0006)">
		<stop  offset="0.1" style="stop-color:#160907"/>
		<stop  offset="0.22" style="stop-color:#2D0F0B"/>
		<stop  offset="0.48" style="stop-color:#681F15"/>
		<stop  offset="0.68" style="stop-color:#9A2D1E"/>
	</linearGradient>
	<polygon style="fill:url(#SVGID_00000129922150080280870950000008355816414289989261_);" points="607.7,628.4 322.2,379.4 
		599.5,703.2 966.1,302.8 931.5,272.7 	"/>
	
		<linearGradient id="SVGID_00000152238557249908181220000006001546554186728849_" gradientUnits="userSpaceOnUse" x1="972.4028" y1="782.3314" x2="1089.1328" y2="1548.3713" gradientTransform="matrix(1 0 0 -1 0 1832.0006)">
		<stop  offset="0" style="stop-color:#160907"/>
		<stop  offset="0.2" style="stop-color:#31100C"/>
		<stop  offset="0.62" style="stop-color:#762318"/>
		<stop  offset="0.83" style="stop-color:#9A2D1E"/>
	</linearGradient>
	<path style="fill:url(#SVGID_00000152238557249908181220000006001546554186728849_);" d="M926.8,98.2
		c86.2,62.5,161.5,160.4,198,259.8c59.2,161.2,47.3,349.2-46.6,494.8c-49.8,77.2-119,140.4-196.7,188.8c-5.5,3.4-11.2,6.8-16.8,10.1
		l77.5,80.6c176-110.1,284.9-310.4,279.2-532.9C1215.8,383,1100.2,201.2,926.8,98.2z"/>
	
		<radialGradient id="SVGID_00000083088546941271640870000016527561813582952885_" cx="1017.5701" cy="1729.3604" r="841.57" gradientTransform="matrix(1 0 0 -1 0 1832.0006)" gradientUnits="userSpaceOnUse">
		<stop  offset="0" style="stop-color:#160907"/>
		<stop  offset="0.16" style="stop-color:#1B0A08"/>
		<stop  offset="0.34" style="stop-color:#280E0A"/>
		<stop  offset="0.52" style="stop-color:#3F140E"/>
		<stop  offset="0.72" style="stop-color:#5E1D14"/>
		<stop  offset="0.92" style="stop-color:#87281B"/>
		<stop  offset="1" style="stop-color:#9A2D1E"/>
	</radialGradient>
	<path style="fill:url(#SVGID_00000083088546941271640870000016527561813582952885_);" d="M1124.9,358
		c-36.5-99.5-111.8-197.3-198-259.8l-98.1,108.2l0.1,0.1l-1.3,1.5l-229,250.8L430.8,283.7l-108.6,95.8l285.4,249l320.5-352
		c88.4,81.8,143.1,197.5,146.5,328.8c4.7,183.8-84.4,338.2-237.3,418.1l27.4,28.5c5.6-3.3,11.3-6.6,16.8-10.1
		c77.7-48.4,146.9-111.6,196.7-188.8C1172.2,707.2,1184,519.2,1124.9,358z"/>
</g>
</svg>
