<svg id="Capa_1" data-name="Capa 1" xmlns="http://www.w3.org/2000/svg" viewBox="0 0 200 98.72"><defs><style>.cls-1{fill:#fff;}.cls-2{fill:none;stroke:#fff;stroke-miterlimit:10;stroke-width:2px;}</style></defs><path class="cls-1" d="M34.15,88.85h2.4c2,0,3.48.87,3.48,3,0,2.9-1.57,4.47-4.37,4.47h-3Zm.69,6h.81c1.72,0,2.49-1.37,2.49-2.86,0-.94-.38-1.66-1.92-1.66H35.7Z"/><path class="cls-1" d="M43.31,90.75l-1.07,5.58H40.45l1.07-5.58Zm.45-2.33-.28,1.41H41.69L42,88.42Z"/><path class="cls-1" d="M48.39,91,48,92.21a3.39,3.39,0,0,0-1.42-.31c-.55,0-.82.19-.82.49s.23.35.87.6c1,.38,1.34.78,1.34,1.38,0,1.3-1,2.09-2.52,2.09a7.25,7.25,0,0,1-2-.29l.36-1.32a3.29,3.29,0,0,0,1.43.33c.63,0,1-.17,1-.5s-.31-.43-.93-.66a1.55,1.55,0,0,1-1.19-1.57c0-1.21,1.24-1.83,2.59-1.83A5.26,5.26,0,0,1,48.39,91Z"/><path class="cls-1" d="M54.14,93A6.5,6.5,0,0,1,54,94.1H50.38c0,.64.33,1.08,1.37,1.08a3.64,3.64,0,0,0,1.61-.39l-.22,1.36a5.82,5.82,0,0,1-1.8.31,2.44,2.44,0,0,1-2.63-2.6,3.11,3.11,0,0,1,3.07-3.24A2.18,2.18,0,0,1,54.14,93Zm-1.48,0c0-.62-.22-1.11-.87-1.11A1.34,1.34,0,0,0,50.49,93Z"/><path class="cls-1" d="M60.58,92.55a6.36,6.36,0,0,1-.13,1.18L60,96.33H58.14l.49-2.61a4.94,4.94,0,0,0,.12-.85.6.6,0,0,0-.66-.64c-1,0-1.28,1.17-1.33,1.43l-.52,2.67H54.47l.78-4c.08-.4.19-1,.24-1.55h1.64l-.14.91h0a2.34,2.34,0,0,1,2-1C60,90.62,60.58,91.41,60.58,92.55Zm-.15-4c-.09.88-.52,1.52-1.27,1.52-.52,0-1.09-.39-1.4-.39s-.41.14-.48.42h-.71c.09-.82.5-1.51,1.25-1.51.51,0,1,.38,1.41.38a.45.45,0,0,0,.49-.42Z"/><path class="cls-1" d="M67.25,93.13A3,3,0,0,1,64,96.46a2.37,2.37,0,0,1-2.67-2.56,3.11,3.11,0,0,1,3.31-3.28A2.42,2.42,0,0,1,67.25,93.13Zm-3.2,2c1,0,1.37-.91,1.37-2,0-.72-.33-1.13-.93-1.13-.83,0-1.38,1-1.38,1.9C63.11,94.57,63.44,95.11,64.05,95.11Z"/><path class="cls-1" d="M72.45,91l-.38,1.26a3.34,3.34,0,0,0-1.41-.31c-.55,0-.83.19-.83.49s.24.35.88.6c1,.38,1.33.78,1.33,1.38,0,1.3-1,2.09-2.52,2.09a7.18,7.18,0,0,1-2-.29l.35-1.32a3.33,3.33,0,0,0,1.44.33c.63,0,1-.17,1-.5s-.3-.43-.92-.66a1.54,1.54,0,0,1-1.19-1.57c0-1.21,1.24-1.83,2.58-1.83A5.26,5.26,0,0,1,72.45,91Z"/><path class="cls-1" d="M77.91,90.75l.46,3.52h0l1.74-3.52H82L78.66,97c-.56,1.06-1.14,1.68-2.26,1.68A4,4,0,0,1,75,98.48l.38-1.41a2.22,2.22,0,0,0,.8.16c.54,0,.85-.4,1-.92l-1.13-5.56Z"/><path class="cls-1" d="M91.73,89.11l-.43,1.54a3,3,0,0,0-1.71-.45A2.54,2.54,0,0,0,87,93a1.75,1.75,0,0,0,1.89,2,3.57,3.57,0,0,0,1.73-.42l-.2,1.61a6.16,6.16,0,0,1-1.83.29A3.24,3.24,0,0,1,85.12,93a4,4,0,0,1,4.19-4.26A6.66,6.66,0,0,1,91.73,89.11Z"/><path class="cls-1" d="M97.33,93.13A3,3,0,0,1,94,96.46a2.38,2.38,0,0,1-2.67-2.56,3.11,3.11,0,0,1,3.31-3.28A2.42,2.42,0,0,1,97.33,93.13Zm-3.2,2c1,0,1.37-.91,1.37-2,0-.72-.34-1.13-.94-1.13-.82,0-1.38,1-1.38,1.9C93.18,94.57,93.52,95.11,94.13,95.11Z"/><path class="cls-1" d="M103.78,92.55a5.61,5.61,0,0,1-.14,1.18l-.47,2.6h-1.83l.49-2.61a4.94,4.94,0,0,0,.12-.85.6.6,0,0,0-.66-.64c-1,0-1.28,1.17-1.33,1.43l-.52,2.67H97.67l.78-4c.08-.4.18-1,.23-1.55h1.65l-.14.91h0a2.34,2.34,0,0,1,2-1C103.19,90.62,103.78,91.41,103.78,92.55Z"/><path class="cls-1" d="M109.08,91l-.37,1.26a3.39,3.39,0,0,0-1.42-.31c-.55,0-.82.19-.82.49s.23.35.87.6c1,.38,1.34.78,1.34,1.38,0,1.3-1,2.09-2.52,2.09a7.25,7.25,0,0,1-2-.29l.36-1.32a3.29,3.29,0,0,0,1.43.33c.63,0,1-.17,1-.5s-.31-.43-.93-.66a1.55,1.55,0,0,1-1.19-1.57c0-1.21,1.24-1.83,2.59-1.83A5.26,5.26,0,0,1,109.08,91Z"/><path class="cls-1" d="M110.52,92.1h-1l.27-1.35h1l.24-1.21,1.88-.54-.35,1.75h1.24l-.27,1.35h-1.24l-.4,2.09a2.58,2.58,0,0,0,0,.44c0,.4.17.55.56.55a3.57,3.57,0,0,0,.56-.08l-.19,1.26a7.61,7.61,0,0,1-1.13.1c-1.13,0-1.61-.5-1.61-1.46a4.8,4.8,0,0,1,.08-.79Z"/><path class="cls-1" d="M118.33,90.76l-.4,1.7a1.17,1.17,0,0,0-.81-.23c-.72,0-1.15.62-1.31,1.43l-.52,2.67h-1.77l.78-4c.07-.4.18-1,.23-1.55h1.65l-.2,1.14h0a1.86,1.86,0,0,1,1.58-1.27A1.76,1.76,0,0,1,118.33,90.76Z"/><path class="cls-1" d="M120.64,90.75l-.49,2.61a4.47,4.47,0,0,0-.12.84.6.6,0,0,0,.66.65c.86,0,1.21-.8,1.33-1.42l.52-2.68h1.77l-.79,4.13c0,.25-.16.86-.22,1.45h-1.64l.13-.91h0a2.34,2.34,0,0,1-2,1c-1,0-1.61-.78-1.61-1.93a6.5,6.5,0,0,1,.16-1.29l.45-2.49Z"/><path class="cls-1" d="M129.61,91l-.38,1.34a2.58,2.58,0,0,0-1.14-.3c-1,0-1.57.69-1.57,1.8a1.18,1.18,0,0,0,1.24,1.22,2.59,2.59,0,0,0,1.13-.25l-.26,1.45a4.35,4.35,0,0,1-1.5.21,2.4,2.4,0,0,1-2.44-2.55,3.21,3.21,0,0,1,3.3-3.29A4.48,4.48,0,0,1,129.61,91Z"/><path class="cls-1" d="M134.53,91l-.38,1.34A2.58,2.58,0,0,0,133,92c-1,0-1.57.69-1.57,1.8a1.18,1.18,0,0,0,1.23,1.22,2.6,2.6,0,0,0,1.14-.25l-.26,1.45a4.38,4.38,0,0,1-1.51.21,2.39,2.39,0,0,1-2.43-2.55,3.21,3.21,0,0,1,3.3-3.29A4.48,4.48,0,0,1,134.53,91Z"/><path class="cls-1" d="M137.33,90.75l-1.07,5.58h-1.79l1.07-5.58Zm.45-2.33-.28,1.41h-1.79l.28-1.41Z"/><path class="cls-1" d="M143.78,93.13a3,3,0,0,1-3.31,3.33,2.37,2.37,0,0,1-2.66-2.56,3.11,3.11,0,0,1,3.3-3.28A2.42,2.42,0,0,1,143.78,93.13Zm-3.2,2c1,0,1.37-.91,1.37-2,0-.72-.33-1.13-.93-1.13-.83,0-1.38,1-1.38,1.9C139.64,94.57,140,95.11,140.58,95.11Z"/><path class="cls-1" d="M150.24,92.55a5.61,5.61,0,0,1-.14,1.18l-.47,2.6h-1.84l.5-2.61a4.94,4.94,0,0,0,.12-.85.6.6,0,0,0-.66-.64c-1,0-1.28,1.17-1.33,1.43l-.52,2.67h-1.78l.78-4c.08-.4.19-1,.24-1.55h1.64l-.14.91h0a2.34,2.34,0,0,1,2-1C149.65,90.62,150.24,91.41,150.24,92.55Z"/><path class="cls-1" d="M156.36,93a6.64,6.64,0,0,1-.12,1.06H152.6c0,.64.34,1.08,1.37,1.08a3.71,3.71,0,0,0,1.62-.39l-.23,1.36a5.81,5.81,0,0,1-1.79.31,2.45,2.45,0,0,1-2.64-2.6A3.11,3.11,0,0,1,154,90.62,2.18,2.18,0,0,1,156.36,93Zm-1.47,0c0-.62-.23-1.11-.88-1.11a1.34,1.34,0,0,0-1.3,1.11Z"/><path class="cls-1" d="M161.55,91l-.38,1.26a3.34,3.34,0,0,0-1.41-.31c-.55,0-.83.19-.83.49s.24.35.88.6c1,.38,1.34.78,1.34,1.38,0,1.3-1,2.09-2.52,2.09a7.2,7.2,0,0,1-2-.29l.35-1.32a3.36,3.36,0,0,0,1.44.33c.63,0,1-.17,1-.5s-.3-.43-.92-.66a1.54,1.54,0,0,1-1.19-1.57c0-1.21,1.24-1.83,2.59-1.83A5.26,5.26,0,0,1,161.55,91Z"/><path class="cls-1" d="M39.47,70.09h8.16c6.75,0,11.83,2,11.83,6.78,0,6.51-5.35,10.06-14.84,10.06H34.52ZM41.81,83.6h2.77c5.82,0,8.46-3.09,8.46-6.44,0-2.12-1.3-3.74-6.52-3.74H44.75Z"/><path class="cls-1" d="M71.93,70.09,67.08,86.93H60.8l4.84-16.84Z"/><path class="cls-1" d="M92.16,70.55,90.65,73.9a15.74,15.74,0,0,0-5.15-.77C83,73.13,81,73.4,81,74.75c0,1,1.47,1.4,3.51,2,2.68.77,5.55,1.73,5.55,4.63,0,4.29-5.15,5.86-11.36,5.86a35.36,35.36,0,0,1-7.26-.87l1.47-3.42a16.29,16.29,0,0,0,5.75,1c3.18,0,5-.68,5-2s-1.7-1.67-4-2.29c-2.85-.8-5.09-1.74-5.09-4.18,0-3.64,3.91-5.62,10.43-5.62A25.66,25.66,0,0,1,92.16,70.55Z"/><path class="cls-1" d="M116.22,70.69l-1.47,3.45a14.3,14.3,0,0,0-5.78-1c-6.28,0-8.79,3.19-8.79,6.37,0,2.8,2.34,4.39,6.42,4.39a17.56,17.56,0,0,0,5.88-.94l-.67,3.62a31,31,0,0,1-6.22.65c-7.38,0-11.83-3.11-11.83-7.84,0-5.57,5.38-9.58,14.24-9.58A32.65,32.65,0,0,1,116.22,70.69Z"/><path class="cls-1" d="M139.73,76.7c0,6.59-4.95,10.52-13.64,10.52-7,0-10.37-3-10.37-6.88,0-6.51,4.85-10.54,13.64-10.54C136.48,69.8,139.73,72.84,139.73,76.7Zm-13.24,7.19A6.72,6.72,0,0,0,133.31,77c0-1.47-.54-3.91-4.38-3.91A6.74,6.74,0,0,0,122.14,80C122.14,82.44,123.58,83.89,126.49,83.89Z"/><path class="cls-1" d="M153.1,70.09l4.78,11.68H158l3.27-11.68h5.89l-5,16.84H154.4l-4.88-11.65h-.07l-3.24,11.65h-5.88l5-16.84Z"/><ellipse class="cls-2" cx="98.64" cy="40.69" rx="15.91" ry="76.64" transform="translate(35.85 126.96) rotate(-76.37)"/><path class="cls-1" d="M70.85,30.51,159,54.38S163.93,21,200,0C200,0,138.11,31.45,70.85,30.51Z"/><path class="cls-1" d="M41.29,27.19,128.2,49.87S49.4,51.79,0,81.85C0,81.85,33.71,59.68,41.29,27.19Z"/></svg>