<svg id="Capa_1" data-name="Capa 1" xmlns="http://www.w3.org/2000/svg" viewBox="0 0 284.75 384"><defs><style>.cls-1{fill:#fff;}</style></defs><path class="cls-1" d="M186.64,344.81q-2.17-6.17-4.3-12.34c-3.22-9.3-6.55-18.92-10.06-28.25s-9.07-14-18.54-15.43c-9.63-1.46-19.22-1.3-29.38-1.13-4.91.08-10,.17-15,0-22.87-.53-35.18-8.9-42.5-28.9-10.25-28-19.87-56-28.62-83.32a25.16,25.16,0,0,1,5.67-25,32.83,32.83,0,0,1,26.89-10.25c12.22,1,23.46,7.82,30.84,18.83a373.82,373.82,0,0,1,20,33.82c6.16,11.66,12.3,18,27,18h.46c13,0,21,1.1,25.7,6.74s3.78,13.74,1.94,23.54L163,238.56c1.3-6.91,1.65-11,1-12-.5-.47-3-1.66-15.26-1.65h-.1c-22.89,0-32.77-12.87-39.42-25.46A360.63,360.63,0,0,0,90,166.86c-4.92-7.33-12.51-12.06-20.31-12.67A18.64,18.64,0,0,0,54.13,160a11,11,0,0,0-2.6,11.23c8.68,27.12,18.25,55,28.43,82.78,5.31,14.53,12.53,19.32,29.67,19.71,4.79.11,9.72,0,14.5,0,10.28-.17,20.92-.35,31.71,1.29,14.35,2.18,24.29,10.38,29.54,24.35,3.57,9.49,6.94,19.2,10.19,28.58q2.12,6.15,4.27,12.28Z"/><path class="cls-1" d="M94.3,318.47a70.39,70.39,0,0,1-35.71-9.36,56.4,56.4,0,0,1-26.46-35.23C23.67,239.42,16.3,204.14,9.16,170c-3-14.24-6.05-29-9.16-43.41l13.69-2.94c3.12,14.48,6.2,29.23,9.18,43.48,7.1,34,14.45,69.15,22.86,103.38C51.3,293.23,74.12,307,101.2,304.09c10.06-1.09,20.19-.81,30-.54,4.29.12,8.71.24,13,.24v14c-4.49,0-9-.12-13.39-.25-9.76-.26-19-.52-28.09.47A76.72,76.72,0,0,1,94.3,318.47Z"/><path class="cls-1" d="M234.29,349.42c-5.71,0-9.49-3.16-11.26-9.43-2.86-10.08-6.55-20.23-10.13-30.06s-7.32-20.11-10.28-30.49c-6.53-22.85-26.05-28.4-34.14-29.73-6.72-1.1-15-.34-23.69.46-4.59.42-9.34.86-14,1a51.61,51.61,0,0,0-5.19.59c-6.88,1-16.31,2.32-21.44-5.39a75.09,75.09,0,0,0-7.65-9.1c-6.84-7.36-14.6-15.71-15.2-28.8l14-.64c.36,8,5.51,13.5,11.47,19.91a88.33,88.33,0,0,1,8.88,10.63c1.43.46,5.66-.14,8-.47a63,63,0,0,1,6.69-.72c4.22-.14,8.76-.56,13.15-1,9.22-.85,18.75-1.72,27.23-.33,22.33,3.66,39.28,18.5,45.34,39.69,2.83,9.91,6.46,19.9,10,29.56s7.23,19.89,10.19,30.16a11.1,11.1,0,0,1,3.6.5l-4.18,13.36a2.36,2.36,0,0,0,.76.13c-.21,0-.41,0-.62.05C235.29,349.4,234.78,349.42,234.29,349.42Zm2.5-12.4Z"/><path class="cls-1" d="M90.48,372.2c-2-13-1.77-25.93-1.6-38.46.09-6,.17-12.21,0-18.24l14-.37c.16,6.31.08,12.66,0,18.8-.17,12.53-.33,24.35,1.44,36.19Z"/><path class="cls-1" d="M228.62,155c-2.32,0-4.62-.08-6.89-.15s-4.44-.16-6.59-.15H215c-23,0-44.75-16.75-48.58-37.39-4.32-23.28-4.37-47.92-.15-73.23,4.4-26.39,28.95-34.44,42.14-38.76l3.68,11.26V5h4.29c3.11,0,6.22,0,9.33,0,30.92.14,50.47,15.64,56.55,44.82,3.72,17.84,2.51,35.72,1.35,53V103c-1.74,25.92-15.36,43.26-39.38,50.12A55.85,55.85,0,0,1,228.62,155Zm-13.24-14.3c2.31,0,4.6.08,6.82.15,6.42.22,12.48.42,18.19-1.21,18.08-5.17,27.92-17.82,29.25-37.6v-.16c1.1-16.35,2.24-33.27-1.08-49.22C263.8,29.78,250.17,19.07,225.65,19c-3.08,0-6.16,0-9.24,0H212.1v-.12c-17.94,6-29.54,12.7-32,27.53-4,23.7-3.92,46.71.1,68.38,2.61,14.08,18.55,25.94,34.82,25.94Z"/><path class="cls-1" d="M71.45,134.23A40.43,40.43,0,1,1,111.88,93.8,40.48,40.48,0,0,1,71.45,134.23Zm0-66.86A26.43,26.43,0,1,0,97.88,93.8,26.46,26.46,0,0,0,71.45,67.37Z"/></svg>