<svg id="Capa_1" data-name="Capa 1" xmlns="http://www.w3.org/2000/svg" viewBox="0 0 317.18 384"><defs><style>.cls-1{fill:#fff;}</style></defs><rect class="cls-1" x="151.34" y="148.75" width="14" height="14.92"/><rect class="cls-1" x="151.34" y="227.54" width="14" height="14.92"/><polygon class="cls-1" points="238.02 317.75 212.94 287.38 223.73 278.46 239.09 297.06 272.82 263.85 282.64 273.83 238.02 317.75"/><path class="cls-1" d="M157.44,379.49a86.54,86.54,0,0,1-29.71-5.32c-44.07-16-77.6-42.29-99.65-78.08C9.1,265.27,0,234.33.13,201.51.38,155.12.34,119.37,0,85.63-.1,75,4.11,68.81,14.08,65,31.2,58.33,47.59,51,65.71,42.77c10.72-4.86,21.71-9.45,32.34-13.89,15.34-6.41,31.2-13,46.26-20.49,9.62-4.76,19.39-4.55,29,.63a221.65,221.65,0,0,0,22.78,10.13c3.65,1.47,7.43,3,11.14,4.58l29.32,12.61c22.71,9.78,46.19,19.9,69.34,29.69,10.16,4.3,11.3,12.23,11.27,17.83-.16,32.52-.21,61.5-.14,88.59,0,4.72.16,9.58.29,14.27.64,21.73,1.3,44.19-10,65.29L295,245.38c9.57-17.8,9-37.45,8.38-58.25-.14-4.79-.29-9.74-.3-14.65-.07-27.12,0-56.13.14-88.69,0-3.71-.56-4-2.72-4.87C277.27,69.11,253.76,59,231,49.2l-29.3-12.61c-3.56-1.52-7.26-3-10.84-4.44a238.2,238.2,0,0,1-24.2-10.8c-5.71-3.07-10.54-3.2-16.17-.41C135.05,28.6,119,35.31,103.45,41.8c-10.54,4.4-21.43,9-32,13.72C53.85,63.52,36.57,71.26,19.14,78,14.58,79.77,14,80.68,14,85.49c.34,33.82.38,69.63.13,116.1C14,231.71,22.43,260.22,40,288.75c20.64,33.5,50.9,57.13,92.52,72.26,18.64,6.78,38.15,5.8,58-2.92l4.35-1.88c8.26-3.53,15.39-6.57,21.22-12.38l9.88,9.92c-7.73,7.7-16.81,11.58-25.6,15.33l-4.22,1.82A95.89,95.89,0,0,1,157.44,379.49Z"/><path class="cls-1" d="M158.75,335.08a62,62,0,0,1-21.59-4,144.69,144.69,0,0,1-63.48-45.57C55,262.21,44.92,236.4,43.77,208.75c-.92-22.07-.72-44.48-.52-66.15.09-10.18.18-20.72.16-31.06,0-4.75,1-10.75,8.74-15A141.37,141.37,0,0,1,66.27,90c3.09-1.29,6-2.5,8.87-3.86,5.22-2.49,10.58-4.67,15.76-6.78,8.91-3.63,17.33-7.06,25.07-11.89l7.42,11.88c-8.77,5.46-18.14,9.28-27.21,13C91,94.49,86,96.5,81.15,98.81c-3.18,1.52-6.4,2.85-9.51,4.15a127.59,127.59,0,0,0-12.75,5.83,4.27,4.27,0,0,0-1.31.93h0a4.93,4.93,0,0,0-.17,1.79c0,10.42-.07,21-.17,31.22-.19,21.49-.38,43.72.52,65.44,1,24.59,10.05,47.65,26.83,68.53A130.85,130.85,0,0,0,142,317.91c13.7,5.06,26.5,4.07,39.14-3a6.26,6.26,0,0,0,.55-.34,11.75,11.75,0,0,1,8.07-2.21l-1.71,13.9a3.25,3.25,0,0,0,1.75-.25c-.19.1-.37.23-.56.35-.41.26-.82.52-1.25.76A59.1,59.1,0,0,1,158.75,335.08Z"/><path class="cls-1" d="M155,281.29c-25.58,0-47.36-10.17-64.74-30.24s-20.81-51.74-8.27-77c7.18-14.44,17.07-26.61,26.63-38.37,5.34-6.58,10.87-13.38,15.71-20.36,3.92-5.66,10.14-5.63,13.52-5.64q20.76,0,41.51,0c2.73,0,10,0,14.72,7.57,2.87,4.61,6.57,8.76,10.47,13.15,3,3.4,6.14,6.9,9,10.75l2.81,3.81c8.61,11.63,17.52,23.65,22.74,38.56,3.42,9.79,3.38,19.14,3.34,28.19,0,3.81,0,7.41.2,11l-14,.92c-.27-4.07-.25-8.09-.23-12,0-8.23.07-16-2.55-23.5-4.52-12.91-12.42-23.57-20.78-34.86q-1.42-1.92-2.84-3.85c-2.44-3.32-5.21-6.43-8.14-9.73a111.11,111.11,0,0,1-11.9-15.07c-.51-.81-.64-1-2.82-1q-20.78,0-41.56,0a21.5,21.5,0,0,0-2.3.07c-5.06,7.25-10.64,14.11-16,20.76-9.5,11.68-18.46,22.72-25,35.77-10.1,20.31-7.5,45.63,6.31,61.57,14.81,17.1,33.36,25.68,55.09,25.4,5.79-.06,11.65,0,17.32,0l7.85,0v14l-7.89,0c-5.62,0-11.43,0-17.13,0Z"/><path class="cls-1" d="M270.08,226l-13.48-3.78c.3-1.08.62-2.15.94-3.22,1.12-3.72,2.18-7.24,2.19-10.5.08-18.29.08-36.9.08-54.89q0-21,0-42a5.29,5.29,0,0,0-.17-1.79h0a4.47,4.47,0,0,0-1.32-.93A126.38,126.38,0,0,0,245.61,103c-3.12-1.3-6.34-2.63-9.52-4.15-4.86-2.31-9.8-4.32-15-6.45-9.07-3.7-18.45-7.52-27.21-13l7.41-11.88c7.75,4.83,16.16,8.26,25.08,11.89,5.18,2.11,10.54,4.29,15.76,6.78C245,87.53,247.89,88.74,251,90a141.22,141.22,0,0,1,14.11,6.49c7.78,4.27,8.76,10.27,8.75,15q0,21,0,42c0,18,0,36.63-.08,54.95,0,5.28-1.48,10.16-2.78,14.47C270.65,224,270.35,225,270.08,226Z"/><path class="cls-1" d="M245.2,358.7a73.45,73.45,0,0,1-13.46-1.25C213.1,354,200.9,342.67,190.48,331c-11.49-12.91-12.68-27.6-13.83-41.81-.13-1.56-.26-3.13-.4-4.7-1.1-12.18,3.76-21,8.05-28.86.66-1.19,1.31-2.38,1.95-3.6a63.27,63.27,0,0,1,26.24-26.19c28-15.09,56.94-11.74,81.37,9.43,1.07.93,2,1.86,2.9,2.76,1.93,1.95,3.19,3.16,4.55,3.49l-1.89,7.92,8-1.76a75.27,75.27,0,0,0,3.73,11,91.45,91.45,0,0,1,4.17,12.17c9,36.75-12.62,74.77-48.29,84.74A80.4,80.4,0,0,1,245.2,358.7Zm2-128.18c-9.2,0-18.62,2.54-28.06,7.62a49.33,49.33,0,0,0-20.49,20.38c-.68,1.29-1.37,2.55-2.06,3.82-3.81,6.94-7.1,12.94-6.38,20.87.14,1.61.27,3.22.4,4.82,1.06,13,2,24.22,10.34,33.63,8.76,9.84,18.87,19.32,33.37,22a61.8,61.8,0,0,0,28.91-1.6c28.46-8,45.72-38.43,38.47-67.92a80.72,80.72,0,0,0-3.59-10.35c-1.26-3.19-2.56-6.47-3.57-10a27.74,27.74,0,0,1-7.7-6c-.75-.75-1.46-1.46-2.14-2.05C273,235.64,260.28,230.52,247.19,230.52Z"/><path class="cls-1" d="M187.73,93.07l-13.21-4.64c2.62-7.48,7.76-13.71,15.69-19.05.85-.57,1.37-.92-.1-4.42a6.38,6.38,0,0,0-3.53-3.66c-11.13,4.8-19.18,2-24-8.28a4.64,4.64,0,0,0-8,0c-4.77,10.3-12.8,13.1-23.87,8.34a5.54,5.54,0,0,0-3,3.34,14.74,14.74,0,0,0-1.26,4.15,3.34,3.34,0,0,0,.7.6c5.07,3.61,12.19,9.5,15.52,19l-13.21,4.64c-1.57-4.48-4.69-8.13-10.43-12.21-10-7.1-6-17.06-4.34-21.31a19.59,19.59,0,0,1,10.46-11.06,13.86,13.86,0,0,1,10.92-.05c2.8,1.22,3.92,1.26,4.19,1.23a7.48,7.48,0,0,0,1.59-2.53,18.12,18.12,0,0,1,16.71-10.42h0a18.09,18.09,0,0,1,16.71,10.42,7.64,7.64,0,0,0,1.58,2.51c.28,0,1.41,0,4.2-1.24a14.12,14.12,0,0,1,11,0A20.69,20.69,0,0,1,203,59.53c5.17,12.29-.91,18.73-5,21.47C192.61,84.64,189.34,88.47,187.73,93.07ZM140.27,49.71Zm36.69,0Z"/><path class="cls-1" d="M159.13,234.56a19,19,0,0,1-7.54-1.6l-.22-.09c-8.24-3.53-20.69-8.87-19.64-24.86l14,.93c-.35,5.34,2.07,7.15,11.18,11.06l.23.1c3.08,1.32,6.3-.64,11.23-4l.91-.62c1.51-1,2.32-2.11,2.41-3.2.13-1.57-1-3.69-3.12-5.69-2.81-2.69-6.82-3.46-11.47-4.35-1.14-.22-2.28-.44-3.41-.68-12.38-2.7-20.87-12-20.19-22.1.48-7.19,6.08-14.06,10.72-17.76,4.84-3.86,10-5.57,14.62-4.84,12.19,1.94,20.4,7.6,24.41,16.82l-12.84,5.58c-2.06-4.74-6.31-7.39-13.77-8.58h0c-2.53,0-8.9,6.22-9.14,9.72-.17,2.55,3.57,6.25,9.2,7.48,1,.22,2.05.42,3.08.61,5.66,1.09,12.71,2.44,18.5,8,5.27,5,7.9,11.06,7.41,17-.45,5.35-3.46,10.18-8.49,13.61l-.87.59C172,230.53,166.15,234.55,159.13,234.56Z"/><path class="cls-1" d="M192.56,122.93l-10.76-9c.39-.47.76-1,1.13-1.44A27.64,27.64,0,0,1,187,108c2.59-2.21,2.29-3,.71-5-3.33-4.14-5.52-4.54-8.39-3.83a87,87,0,0,1-41.33.06c-2.44-.58-6.42.94-9,4.88-.83,1.26-1.08,1.64,1.52,4.08a38.81,38.81,0,0,1,3.75,4.29c.39.5.78,1,1.18,1.49l-10.75,9c-.5-.6-1-1.21-1.46-1.83a25.5,25.5,0,0,0-2.32-2.71c-9.7-9.14-6.44-17.69-3.63-22,5.52-8.4,15.36-12.85,23.93-10.83a73.13,73.13,0,0,0,34.74,0c8.69-2.16,16.31.74,22.66,8.62,6.56,8.14,5.6,17.49-2.52,24.42a17,17,0,0,0-2,2.38C193.57,121.66,193.08,122.31,192.56,122.93Z"/></svg>