<svg id="Capa_1" data-name="Capa 1" xmlns="http://www.w3.org/2000/svg" viewBox="0 0 384 384"><defs><style>.cls-1{fill:#fff;}</style></defs><path class="cls-1" d="M193,60.92a40.46,40.46,0,1,1-40.46,40.46A40.51,40.51,0,0,1,193,60.92m0-14a54.46,54.46,0,1,0,54.46,54.46A54.46,54.46,0,0,0,193,46.92Z"/><path class="cls-1" d="M193,286.2a19,19,0,1,1-19,19,19.06,19.06,0,0,1,19-19m0-14a33,33,0,1,0,33,33,33,33,0,0,0-33-33Z"/><path class="cls-1" d="M33,286.2a19,19,0,1,1-19,19,19.06,19.06,0,0,1,19-19m0-14a33,33,0,1,0,33,33,33,33,0,0,0-33-33Z"/><path class="cls-1" d="M351,286.2a19,19,0,1,1-19,19,19.06,19.06,0,0,1,19-19m0-14a33,33,0,1,0,33,33,33,33,0,0,0-33-33Z"/><polygon class="cls-1" points="359.81 283.65 345.81 283.65 345.81 220.68 40.03 220.68 40.03 281 26.03 281 26.03 206.68 359.81 206.68 359.81 283.65"/><rect class="cls-1" x="185.97" y="150.26" width="14" height="129.22"/></svg>