<svg id="Capa_1" data-name="Capa 1" xmlns="http://www.w3.org/2000/svg" viewBox="0 0 384 384"><defs><style>.cls-1{fill:#fff;}</style></defs><path class="cls-1" d="M125.1,300.78a65.49,65.49,0,0,1-12.88-1.6c-5-1-13.21-2.65-17.22-11.23-.38-.2-.92-.45-1.32-.64l-.31-.14c-7.4-3.44-16-7.46-24.47-11.56-13-6.3-17.84-17.18-14.78-33.26,2.62-13.79,5.91-27.6,9.09-40.95l1.08-4.56c.36-1.5.7-3,1-4.49,2.07-9.16,4.21-18.63,10-27.47,10.42-15.94,24.69-25.57,42.41-28.63,8.47-1.46,17.07-2.6,25.38-3.7,3.72-.49,7.44-1,11.15-1.51l1.95,13.87c-3.75.53-7.51,1-11.26,1.52-8.18,1.08-16.64,2.2-24.83,3.61-13.94,2.41-24.76,9.77-33.09,22.5-4.39,6.73-6.16,14.58-8,22.89-.35,1.55-.7,3.1-1.07,4.64l-1.08,4.57c-3.15,13.2-6.4,26.86-9,40.32-2.12,11.18,1,15.08,7.13,18,8.38,4.06,16.92,8,24.27,11.46l.29.13c2.33,1.08,6.24,2.89,8,7.15.81,2,2.2,2.66,7.41,3.7s9.74,1.81,14.12,1a5.26,5.26,0,0,0,.89-.24,2.37,2.37,0,0,0,.19-.3,102.79,102.79,0,0,0,9-21.22c.86-2.9.14-3.83-1-4.84l-.42-.38c-2.6-2.37-5.07-4.61-7.54-5.68-6.13-2.65-9-7.54-8.62-14.52,0-.32,0-.66.07-1a15.76,15.76,0,0,0,.06-2A2.63,2.63,0,0,0,123,237.9l4.33-13.32c9.18,3,8.55,11.79,8.34,14.67,0,.27,0,.53,0,.8a7,7,0,0,0,0,.75l.22.1c4.61,2,8.22,5.28,11.4,8.18l.41.37c3.84,3.48,7.81,9.64,5,19.19a117.18,117.18,0,0,1-10.2,24.11,14.54,14.54,0,0,1-10.61,7.4A35,35,0,0,1,125.1,300.78Z"/><path class="cls-1" d="M258.84,300.77a35.57,35.57,0,0,1-6.57-.59,14.89,14.89,0,0,1-11.16-8.12,120.22,120.22,0,0,1-9.77-24c-2-7.17-.45-13.22,4.44-18,3.37-3.27,7.37-6.95,12.39-9.15l.25-.12c0-.18,0-.43,0-.75s0-.53-.05-.8c-.23-3.19-.84-11.64,8.34-14.67l4.39,13.3a2.71,2.71,0,0,0,1.17-1.6,14,14,0,0,0,.06,2c0,.33.05.67.07,1,.4,7-2.48,11.83-8.59,14.51-2.87,1.26-5.64,3.83-8.24,6.36-.79.77-1.47,1.43-.7,4.28a106.67,106.67,0,0,0,8.69,21.23c.29.57.32.63,1.31.81,4.39.82,8.85.1,14.66-1,5.05-1,6.23-1.92,7-3.68,1.59-3.76,5.15-5.86,7.7-7.11l3.77-1.86c5.93-2.94,12.06-6,18.43-8.52,9.34-3.73,11.8-8.58,9.73-19.24-2.61-13.5-5.77-27.19-8.82-40.42q-1.5-6.49-3-13c-2.65-11.67-6.86-20.19-13.26-26.81L301.13,155c8.25,8.54,13.6,19.17,16.84,33.44q1.47,6.48,3,12.94c3.08,13.36,6.27,27.17,8.93,40.9,1.23,6.34,5,25.63-18.29,34.91-5.84,2.33-11.46,5.11-17.4,8.06l-3.82,1.89a12.47,12.47,0,0,0-1.3.72c-4.13,8.8-12.72,10.45-16.9,11.25A70,70,0,0,1,258.84,300.77Zm-10.46-59.54Z"/><path class="cls-1" d="M193,379.85a99.59,99.59,0,0,1-21.09-2.34c-17.48-3.8-32.89-12.81-45.78-26.78a85.18,85.18,0,0,1-21.88-43.41L118,304.87c2.44,13.71,8.45,25.6,18.38,36.37,10.91,11.81,23.86,19.41,38.48,22.59,22.91,5,43.79.62,62-12.94a74,74,0,0,0,28.62-43.23c-.05-.29-.09-.59-.12-.87l.33,0h0l13.6-1.35,0,.15a10.29,10.29,0,0,1,0,4.3,87.72,87.72,0,0,1-34.14,52.28C229.41,373.93,211.89,379.85,193,379.85Z"/><path class="cls-1" d="M145.61,230.69l-8.23-11.33,1.44-1.07c1.18-.88,2.39-1.79,3.74-2.67a89.47,89.47,0,0,1,104.19,3.85l-8.51,11.11a75.47,75.47,0,0,0-88.05-3.21c-1,.61-1.94,1.35-3,2.12Z"/><path class="cls-1" d="M230.38,247.15c-11.41-9.9-24.6-14.79-39.17-14.6a57.27,57.27,0,0,0-37.59,14.59l-9.19-10.56a70.84,70.84,0,0,1,46.58-18c18.11-.28,34.45,5.79,48.54,18Z"/><path class="cls-1" d="M237.91,210.84a9.86,9.86,0,0,1-4.18-1l6-12.64a5,5,0,0,0-5.43,1.08l.23-.3q.45-.62.9-1.14c1.78-2,3.47-4.07,5.26-6.26,1-1.25,2-2.5,3.08-3.74l3.08-3.67c13.36-15.94,27.17-32.42,40.82-48.59.11-.13.22-.28.33-.42,1.06-1.41,3.86-5.16,9.22-5l-.49,14a4,4,0,0,0,2.81-1.06c-.13.15-.25.31-.37.47-.27.35-.53.7-.8,1-13.63,16.15-27.44,32.62-40.79,48.56l-3.08,3.67c-1,1.19-2,2.39-3,3.59-1.8,2.21-3.66,4.49-5.63,6.7l-.16.22C243.15,209.87,240.28,210.84,237.91,210.84Z"/><path class="cls-1" d="M212.89,200.17a9.2,9.2,0,0,1-4.45-1.2l7-12.13a5.63,5.63,0,0,0-6.65,1l.13-.17.33-.4,7.23-8.62c15-18,30.6-36.53,46-54.7a2.7,2.7,0,0,0,.17-.22.54.54,0,0,0-.07.17l13.93-.72a13.5,13.5,0,0,1-3.35,9.82c-15.39,18.15-30.94,36.7-46,54.64l-7.37,8.8C217.5,199.36,215,200.17,212.89,200.17Z"/><path class="cls-1" d="M220.65,269.27c-17.49-6.25-35.19-6.65-54.11-1.23a2.52,2.52,0,0,0-.29.12,10.19,10.19,0,0,1-8.69.18l6-12.66a4.44,4.44,0,0,0-3.13-.25l.33-.14a14.56,14.56,0,0,1,1.86-.69c21.57-6.19,42.69-5.69,62.77,1.49Zm-54.19-1.21Z"/><path class="cls-1" d="M213.15,352.31l-14-1.18a10.93,10.93,0,0,0-.09-1.31,17.74,17.74,0,0,1,.08-5.66c2.79-14.33,10.47-24.87,22.84-31.34,9.14-4.78,19.16-8.5,30.46-3.35l-5.8,12.74c-5.54-2.53-10.86-.81-18.17,3-8.53,4.46-13.63,11.52-15.59,21.6a9,9,0,0,0,.09,1.48A19.89,19.89,0,0,1,213.15,352.31Z"/><path class="cls-1" d="M184.79,352.31l-13.95-1.18c.81-9.56-3.27-17.22-13.23-24.84-4-3.08-9.21-4.19-15.57-5.31-1.14-.2-2.69.34-4.83,1.27l-5.61-12.83c2.57-1.12,7.35-3.21,12.88-2.23,6.15,1.09,14.57,2.58,21.63,8C179.9,325.71,186,337.86,184.79,352.31Z"/><path class="cls-1" d="M190.49,362.07A31.46,31.46,0,0,1,176,358.86l-.22-.11c-16.76-.46-27.58-11.14-37.16-20.6l-.17-.16A41,41,0,0,1,127,318.4a14,14,0,0,0-1.37-2.73,21.27,21.27,0,0,1-3.33-9l13.94-1.24a11,11,0,0,0,1.49,3.16,23.76,23.76,0,0,1,2.87,6.47A27.19,27.19,0,0,0,148.29,328l.16.16c9,8.89,16.8,16.58,28.48,16.58h.46a9,9,0,0,1,5,1.62l.07,0c4.87,2.4,10.4,1.7,16.79.9l1.47-.18a10.09,10.09,0,0,1,7.05-2c3.41.34,6.84-1.5,10.82-3.63l1.61-.86c12.75-6.7,21.41-17.7,27.23-34.6a9.89,9.89,0,0,1,.94-2,5.69,5.69,0,0,0-.2,4.56l13-5.06a8.36,8.36,0,0,1-.71,7.48c-7,20-18,33.7-33.79,42l-1.52.8c-4.63,2.48-10.3,5.52-17.21,5.33a10,10,0,0,1-4.53,1.75l-2.46.3A83.23,83.23,0,0,1,190.49,362.07Z"/><path class="cls-1" d="M111.7,241.16l-14-1.27c0-.38,0-.78.07-1.17a18.6,18.6,0,0,1,.71-5.11c.89-2.9,1.85-5.78,2.78-8.57,1.34-4,2.61-7.81,3.7-11.69.59-2.06,1.28-4,1.94-5.93a45.17,45.17,0,0,0,2.56-9.34l13.91,1.62A56.74,56.74,0,0,1,120.17,212c-.63,1.78-1.21,3.47-1.69,5.13-1.18,4.18-2.56,8.31-3.89,12.29-.9,2.72-1.84,5.53-2.68,8.27a12.17,12.17,0,0,0-.1,1.5C111.78,239.88,111.75,240.53,111.7,241.16Z"/><path class="cls-1" d="M286.2,241.45l-13.88-1.84a9.09,9.09,0,0,0-.64-3.17q-4.19-13.31-8.45-26.58L260.41,201l13.34-4.25,2.82,8.84q4.24,13.31,8.47,26.63A21.18,21.18,0,0,1,286.2,241.45Z"/><path class="cls-1" d="M118.15,248.91l-10.9-8.79a47.56,47.56,0,0,0,2.83-4.06c2.64-4,5.92-9.07,12-12l6.13,12.58c-2.43,1.19-4,3.47-6.36,7.08A59.75,59.75,0,0,1,118.15,248.91Z"/><path class="cls-1" d="M265.84,248.91a61.59,61.59,0,0,1-3.65-5.18c-2.15-3.27-3.84-5.85-6.4-7.11l6.2-12.56c6,3,9.27,8,11.91,12a49.2,49.2,0,0,0,2.84,4.06Z"/><path class="cls-1" d="M191.55,135.45a67.71,67.71,0,0,1-10.39-.8c-29.17-4.47-53.55-31.81-54.35-60.93-.54-19.55,5.5-35.68,18.46-49.32,9.47-10,21.71-16.3,37.43-19.33l1.69,8.8L184.73,5c1.86.07,3.72.07,5.69.08,5.27,0,10.73,0,16.48,1.35a65.46,65.46,0,0,1,40.64,98.28A65.61,65.61,0,0,1,191.55,135.45ZM184.65,19c-12.41,2.5-22,7.44-29.23,15.08-10.26,10.8-15,23.66-14.62,39.29.61,22.3,20.07,44.05,42.48,47.49,21,3.21,41.51-6,52.36-23.53A51.47,51.47,0,0,0,203.7,20c-4.18-1-8.6-1-13.29-1C188.54,19,186.61,19,184.65,19Z"/><path class="cls-1" d="M191.08,309.66c-5.83,0-11.73-2.44-15.17-6.76a19.58,19.58,0,0,1-3.6-18.77A20.57,20.57,0,0,1,186.77,271l2.12,8.58v-8.79h.83a27.71,27.71,0,0,1,2.84,0c8.9.72,15.73,7.14,17.4,16.35,1.63,9-2.61,17.05-11.07,20.91A18.92,18.92,0,0,1,191.08,309.66Zm-1.6-24.92a6.5,6.5,0,0,0-3.92,3.89,5.68,5.68,0,0,0,1.3,5.55c.93,1.17,4.37,2,6.22,1.11,2.67-1.22,3.6-2.91,3.1-5.67-.25-1.38-1.21-4.61-4.75-4.89-.34,0-.86,0-1.4,0Z"/></svg>