<svg id="Capa_1" data-name="Capa 1" xmlns="http://www.w3.org/2000/svg" viewBox="0 0 384 384"><defs><style>.cls-1{fill:#fff;}</style></defs><path class="cls-1" d="M236.33,344.81q-2.18-6.17-4.3-12.34c-3.22-9.3-6.55-18.92-10.06-28.25s-9.07-14-18.54-15.43c-9.63-1.46-19.22-1.3-29.38-1.13-4.91.08-10,.17-15.05,0-22.87-.53-35.18-8.9-42.5-28.9-10.24-28-19.87-56-28.61-83.32a25.13,25.13,0,0,1,5.66-25,32.84,32.84,0,0,1,26.9-10.25c12.21,1,23.45,7.82,30.83,18.83a373.82,373.82,0,0,1,20,33.82c6.16,11.66,12.3,18,27,18h.46c13,0,21,1.1,25.7,6.74s3.79,13.74,1.95,23.54l-13.76-2.59c1.29-6.91,1.64-11,1-12-.5-.47-3-1.66-15.26-1.65h-.1c-22.89,0-32.77-12.87-39.42-25.46a360.63,360.63,0,0,0-19.24-32.55c-4.92-7.33-12.51-12.06-20.31-12.67a18.64,18.64,0,0,0-15.53,5.8,11,11,0,0,0-2.6,11.23c8.68,27.12,18.25,55,28.43,82.78,5.32,14.53,12.53,19.32,29.67,19.71,4.79.11,9.72,0,14.5,0,10.28-.17,20.92-.35,31.71,1.29,14.35,2.18,24.29,10.38,29.55,24.35,3.57,9.49,6.93,19.2,10.18,28.58,1.42,4.1,2.83,8.19,4.27,12.28Z"/><path class="cls-1" d="M144,318.47a70.39,70.39,0,0,1-35.71-9.36,56.4,56.4,0,0,1-26.46-35.23C73.36,239.42,66,204.14,58.86,170c-3-14.24-6.06-29-9.17-43.41l13.69-2.94c3.12,14.48,6.2,29.23,9.18,43.48,7.11,34,14.45,69.15,22.86,103.38,5.57,22.69,28.39,36.49,55.47,33.55,10.06-1.09,20.19-.81,30-.54,4.29.12,8.71.24,13,.24v14c-4.49,0-9-.12-13.39-.25-9.76-.26-19-.52-28.09.47A76.72,76.72,0,0,1,144,318.47Z"/><path class="cls-1" d="M284,349.42c-5.71,0-9.49-3.16-11.26-9.43-2.86-10.08-6.55-20.23-10.13-30.06s-7.32-20.11-10.28-30.49c-6.53-22.85-26.05-28.4-34.14-29.73-6.72-1.1-15-.34-23.69.46-4.59.42-9.34.86-14,1a51.61,51.61,0,0,0-5.19.59c-6.88,1-16.31,2.32-21.44-5.39a75.89,75.89,0,0,0-7.64-9.1c-6.85-7.36-14.61-15.71-15.21-28.8l14-.64c.36,8,5.51,13.5,11.47,19.91a88.33,88.33,0,0,1,8.88,10.63c1.43.46,5.66-.14,8-.47a63,63,0,0,1,6.69-.72c4.22-.14,8.76-.56,13.15-1,9.22-.85,18.75-1.72,27.23-.33,22.33,3.66,39.28,18.5,45.34,39.69,2.83,9.91,6.46,19.9,10,29.56S283,325,285.94,335.31a11.2,11.2,0,0,1,3.61.5l-4.19,13.36a2.36,2.36,0,0,0,.76.13c-.21,0-.41,0-.62.05C285,349.4,284.47,349.42,284,349.42Zm2.5-12.4Z"/><path class="cls-1" d="M140.17,372.2c-1.94-13-1.77-25.93-1.59-38.46.08-6,.16-12.21,0-18.24l14-.37c.17,6.31.08,12.66,0,18.8-.17,12.53-.33,24.35,1.44,36.19Z"/><path class="cls-1" d="M278.31,155c-2.32,0-4.61-.08-6.88-.15s-4.45-.16-6.6-.15h-.13c-23,0-44.75-16.75-48.58-37.39C211.8,94,211.75,69.37,216,44.06c4.4-26.39,28.95-34.44,42.14-38.76l3.69,11.26V5h4.28c3.11,0,6.22,0,9.33,0C306.33,5.1,325.88,20.6,332,49.78c3.72,17.84,2.52,35.72,1.35,53V103c-1.74,25.92-15.36,43.26-39.38,50.12A55.85,55.85,0,0,1,278.31,155Zm-13.24-14.3c2.31,0,4.61.08,6.82.15,6.42.22,12.48.42,18.19-1.21,18.08-5.17,27.92-17.82,29.25-37.6v-.16c1.1-16.35,2.24-33.27-1.08-49.22-4.77-22.86-18.4-33.57-42.91-33.68-3.09,0-6.17,0-9.25,0h-4.3v-.12c-18,6-29.55,12.7-32,27.53-3.95,23.7-3.92,46.71.1,68.38,2.62,14.08,18.55,25.94,34.82,25.94Z"/><path class="cls-1" d="M121.14,134.23A40.43,40.43,0,1,1,161.57,93.8,40.48,40.48,0,0,1,121.14,134.23Zm0-66.86A26.43,26.43,0,1,0,147.57,93.8,26.46,26.46,0,0,0,121.14,67.37Z"/></svg>