<svg id="Capa_1" data-name="Capa 1" xmlns="http://www.w3.org/2000/svg" viewBox="0 0 384 384"><defs><style>.cls-1{fill:#fff;}</style></defs><rect class="cls-1" x="184.53" y="148.75" width="14" height="14.92"/><rect class="cls-1" x="184.53" y="227.54" width="14" height="14.92"/><polygon class="cls-1" points="271.21 317.75 246.12 287.38 256.92 278.46 272.27 297.06 306 263.85 315.83 273.83 271.21 317.75"/><path class="cls-1" d="M190.62,379.49a86.53,86.53,0,0,1-29.7-5.32c-44.08-16-77.61-42.29-99.65-78.08-19-30.82-28.13-61.76-28-94.58.25-46.39.21-82.14-.12-115.88C33.08,75,37.29,68.81,47.27,65c17.11-6.62,33.5-14,51.62-22.18,10.72-4.86,21.71-9.45,32.34-13.89,15.34-6.41,31.2-13,46.26-20.49,9.63-4.76,19.39-4.55,29,.63A220.88,220.88,0,0,0,229.3,19.15c3.65,1.47,7.42,3,11.13,4.58l29.32,12.61C292.46,46.12,316,56.24,339.1,66c10.15,4.3,11.29,12.23,11.26,17.83-.16,32.52-.2,61.5-.13,88.59,0,4.72.15,9.58.29,14.27.64,21.73,1.3,44.19-10,65.29l-12.33-6.63c9.56-17.8,9-37.45,8.37-58.25-.14-4.79-.28-9.74-.29-14.65-.07-27.12,0-56.13.13-88.69,0-3.71-.56-4-2.72-4.87C310.45,69.11,287,59,264.21,49.2l-29.3-12.61c-3.56-1.52-7.26-3-10.83-4.44a237.22,237.22,0,0,1-24.2-10.8c-5.71-3.07-10.55-3.2-16.17-.41-15.47,7.66-31.54,14.37-47.08,20.86-10.54,4.4-21.43,9-32,13.72C87,63.52,69.76,71.26,52.32,78c-4.56,1.76-5.18,2.67-5.14,7.48.34,33.82.38,69.63.13,116.1-.16,30.12,8.31,58.63,25.88,87.16,20.63,33.5,50.89,57.13,92.51,72.26,18.65,6.78,38.16,5.8,58-2.92,1.46-.64,2.91-1.26,4.36-1.88,8.25-3.53,15.39-6.57,21.21-12.38l9.88,9.92c-7.73,7.7-16.81,11.58-25.6,15.33-1.39.6-2.8,1.2-4.21,1.82A95.9,95.9,0,0,1,190.62,379.49Z"/><path class="cls-1" d="M191.93,335.08a62,62,0,0,1-21.59-4,144.66,144.66,0,0,1-63.47-45.57C88.16,262.21,78.1,236.4,77,208.75c-.91-22.07-.71-44.48-.52-66.15.09-10.18.18-20.72.16-31.06,0-4.75,1-10.75,8.75-15A141.22,141.22,0,0,1,99.45,90c3.09-1.29,6-2.5,8.87-3.86,5.22-2.49,10.58-4.67,15.76-6.78,8.92-3.63,17.33-7.06,25.08-11.89l7.41,11.88c-8.76,5.46-18.14,9.28-27.21,13-5.22,2.13-10.16,4.14-15,6.45-3.18,1.52-6.4,2.85-9.52,4.15a127.41,127.41,0,0,0-12.74,5.83,4.47,4.47,0,0,0-1.32.93h0a5.29,5.29,0,0,0-.17,1.79c0,10.42-.07,21-.16,31.22-.19,21.49-.39,43.72.51,65.44,1,24.59,10,47.65,26.84,68.53a130.8,130.8,0,0,0,57.42,41.21c13.69,5.06,26.49,4.07,39.13-3,.19-.1.37-.22.56-.34a11.7,11.7,0,0,1,8.06-2.21l-1.71,13.9A3.31,3.31,0,0,0,223,326a5.28,5.28,0,0,0-.56.35c-.42.26-.83.52-1.26.76A59.1,59.1,0,0,1,191.93,335.08Z"/><path class="cls-1" d="M188.21,281.29c-25.58,0-47.36-10.17-64.75-30.24s-20.8-51.74-8.26-77c7.17-14.44,17.06-26.61,26.62-38.37,5.35-6.58,10.87-13.38,15.71-20.36,3.93-5.66,10.15-5.63,13.52-5.64q20.76,0,41.52,0c2.72,0,10,0,14.72,7.57a99.2,99.2,0,0,0,10.47,13.15c3,3.4,6.14,6.9,9,10.75l2.81,3.81c8.62,11.63,17.52,23.65,22.74,38.56,3.43,9.79,3.38,19.14,3.34,28.19,0,3.81,0,7.41.2,11l-14,.92c-.27-4.07-.25-8.09-.23-12,0-8.23.08-16-2.55-23.5-4.52-12.91-12.42-23.57-20.78-34.86l-2.84-3.85c-2.44-3.32-5.21-6.43-8.14-9.73a111.11,111.11,0,0,1-11.9-15.07c-.51-.81-.64-1-2.81-1q-20.79,0-41.57,0a21.5,21.5,0,0,0-2.3.07c-5.06,7.25-10.64,14.11-16,20.76-9.49,11.68-18.46,22.72-25,35.77-10.09,20.31-7.5,45.63,6.31,61.57,14.81,17.1,33.37,25.68,55.09,25.4,5.79-.06,11.66,0,17.32,0l7.86,0v14l-7.9,0c-5.62,0-11.43,0-17.12,0Z"/><path class="cls-1" d="M303.26,226l-13.48-3.78c.3-1.08.62-2.15,1-3.22,1.12-3.72,2.17-7.24,2.19-10.5.07-18.29.07-36.9.07-54.89q0-21,0-42a4.93,4.93,0,0,0-.17-1.79h0a4.27,4.27,0,0,0-1.31-.93A127.59,127.59,0,0,0,278.79,103c-3.11-1.3-6.33-2.63-9.51-4.15-4.86-2.31-9.8-4.32-15-6.45-9.07-3.7-18.44-7.52-27.21-13l7.42-11.88c7.74,4.83,16.16,8.26,25.07,11.89,5.18,2.11,10.54,4.29,15.76,6.78,2.86,1.36,5.78,2.57,8.87,3.86a141.37,141.37,0,0,1,14.12,6.49c7.77,4.27,8.76,10.27,8.74,15q0,21,0,42c0,18,0,36.63-.07,54.95,0,5.28-1.49,10.16-2.79,14.47C303.84,224,303.54,225,303.26,226Z"/><path class="cls-1" d="M278.38,358.7a73.61,73.61,0,0,1-13.46-1.25C246.29,354,234.08,342.67,223.67,331c-11.49-12.91-12.69-27.6-13.84-41.81-.13-1.56-.25-3.13-.39-4.7-1.1-12.18,3.76-21,8.05-28.86.65-1.19,1.31-2.38,1.95-3.6a63.25,63.25,0,0,1,26.23-26.19c28-15.09,56.94-11.74,81.38,9.43,1.07.93,2,1.86,2.89,2.76,1.94,1.95,3.19,3.16,4.56,3.49l-1.9,7.92,8-1.76a73,73,0,0,0,3.73,11,92.91,92.91,0,0,1,4.17,12.17c9,36.75-12.63,74.77-48.3,84.74A80.35,80.35,0,0,1,278.38,358.7Zm2-128.18c-9.21,0-18.62,2.54-28.07,7.62a49.31,49.31,0,0,0-20.48,20.38c-.68,1.29-1.38,2.55-2.07,3.82-3.81,6.94-7.1,12.94-6.38,20.87.14,1.61.28,3.22.41,4.82,1.05,13,2,24.22,10.34,33.63,8.75,9.84,18.86,19.32,33.36,22a61.79,61.79,0,0,0,28.91-1.6c28.47-8,45.72-38.43,38.47-67.92a79.22,79.22,0,0,0-3.59-10.35c-1.26-3.19-2.56-6.47-3.57-10a27.74,27.74,0,0,1-7.7-6c-.75-.75-1.46-1.46-2.13-2.05C306.13,235.64,293.46,230.52,280.38,230.52Z"/><path class="cls-1" d="M220.91,93.07,207.7,88.43c2.63-7.48,7.76-13.71,15.7-19.05.85-.57,1.36-.92-.11-4.42a6.38,6.38,0,0,0-3.53-3.66c-11.12,4.8-19.18,2-23.95-8.28a4.64,4.64,0,0,0-8,0c-4.77,10.3-12.8,13.1-23.87,8.34a5.54,5.54,0,0,0-3,3.34,14.94,14.94,0,0,0-1.25,4.15,3.47,3.47,0,0,0,.69.6c5.07,3.61,12.19,9.5,15.52,19L162.7,93.07c-1.57-4.48-4.69-8.13-10.42-12.21-10-7.1-6-17.06-4.34-21.31a19.61,19.61,0,0,1,10.45-11.06,13.88,13.88,0,0,1,10.93-.05c2.79,1.22,3.91,1.26,4.18,1.23a7.58,7.58,0,0,0,1.6-2.53,18.09,18.09,0,0,1,16.71-10.42h0a18.12,18.12,0,0,1,16.71,10.42,7.53,7.53,0,0,0,1.57,2.51c.28,0,1.41,0,4.21-1.24a14.09,14.09,0,0,1,10.95,0A20.71,20.71,0,0,1,236.2,59.53c5.16,12.29-.91,18.73-5,21.47C225.8,84.64,222.52,88.47,220.91,93.07ZM173.45,49.71Zm36.69,0Z"/><path class="cls-1" d="M192.31,234.56a18.91,18.91,0,0,1-7.53-1.6l-.23-.09c-8.24-3.53-20.69-8.87-19.63-24.86l14,.93c-.36,5.34,2.06,7.15,11.18,11.06l.22.1c3.09,1.32,6.3-.64,11.23-4l.91-.62c1.51-1,2.33-2.11,2.42-3.2.13-1.57-1-3.69-3.13-5.69-2.81-2.69-6.82-3.46-11.46-4.35-1.15-.22-2.29-.44-3.42-.68-12.38-2.7-20.87-12-20.19-22.1.48-7.19,6.08-14.06,10.72-17.76,4.84-3.86,10-5.57,14.63-4.84,12.19,1.94,20.4,7.6,24.4,16.82l-12.84,5.58c-2.06-4.74-6.3-7.39-13.77-8.58h0c-2.53,0-8.91,6.22-9.14,9.72-.17,2.55,3.56,6.25,9.2,7.48,1,.22,2,.42,3.07.61,5.67,1.09,12.72,2.44,18.51,8,5.26,5,7.89,11.06,7.4,17-.44,5.35-3.46,10.18-8.49,13.61l-.87.59C205.2,230.53,199.34,234.55,192.31,234.56Z"/><path class="cls-1" d="M225.74,122.93,215,114c.39-.47.75-1,1.12-1.44a27.73,27.73,0,0,1,4.08-4.55c2.58-2.21,2.29-3,.71-5-3.34-4.14-5.52-4.54-8.39-3.83a87,87,0,0,1-41.34.06c-2.43-.58-6.41.94-9,4.88-.83,1.26-1.08,1.64,1.52,4.08a36.82,36.82,0,0,1,3.75,4.29c.39.5.78,1,1.19,1.49l-10.76,9c-.5-.6-1-1.21-1.46-1.83a25.5,25.5,0,0,0-2.32-2.71c-9.7-9.14-6.43-17.69-3.62-22C156,88,165.82,83.58,174.39,85.6a73.13,73.13,0,0,0,34.74,0c8.69-2.16,16.32.74,22.67,8.62,6.56,8.14,5.59,17.49-2.53,24.42a17.65,17.65,0,0,0-2,2.38C226.76,121.66,226.26,122.31,225.74,122.93Z"/></svg>