<svg id="Capa_1" data-name="Capa 1" xmlns="http://www.w3.org/2000/svg" viewBox="0 0 384 291.35"><defs><style>.cls-1{fill:#fff;}</style></defs><path class="cls-1" d="M193,14a40.46,40.46,0,1,1-40.46,40.46A40.51,40.51,0,0,1,193,14m0-14a54.46,54.46,0,1,0,54.46,54.46A54.46,54.46,0,0,0,193,0Z"/><path class="cls-1" d="M193,239.28a19,19,0,1,1-19,19,19.06,19.06,0,0,1,19-19m0-14a33,33,0,1,0,33,33,33,33,0,0,0-33-33Z"/><path class="cls-1" d="M33,239.28a19,19,0,1,1-19,19,19.06,19.06,0,0,1,19-19m0-14a33,33,0,1,0,33,33,33,33,0,0,0-33-33Z"/><path class="cls-1" d="M351,239.28a19,19,0,1,1-19,19,19.06,19.06,0,0,1,19-19m0-14a33,33,0,1,0,33,33,33,33,0,0,0-33-33Z"/><polygon class="cls-1" points="359.81 236.73 345.81 236.73 345.81 173.76 40.03 173.76 40.03 234.08 26.03 234.08 26.03 159.76 359.81 159.76 359.81 236.73"/><rect class="cls-1" x="185.97" y="103.34" width="14" height="129.22"/></svg>