<svg id="Capa_1" data-name="Capa 1" xmlns="http://www.w3.org/2000/svg" viewBox="0 0 384 384"><defs><style>.cls-1{fill:#fff;}</style></defs><path class="cls-1" d="M306.15.75c9.41,3.07,16,8.85,18.5,18.79a27.37,27.37,0,0,1,.49,6.69c0,12,.14,24-.06,35.93-.06,3.55,1.18,4.48,4.53,4.41,9.35-.17,18.71.11,28.07-.09,16.74-.35,27,13,26.75,26.76-.53,31.68-.16,63.37-.17,95.06,0,15.89-10,26-25.83,26.07-9.35,0-18.71,0-28.07,0-5.19,0-5.2,0-5.2,5.13q0,70,0,140c0,12.17-7.56,21.59-19.28,24.29a25.26,25.26,0,0,1-5.57.48q-108,0-215.93,0c-14.1,0-24.69-10.46-24.72-24.52-.08-33.93,0-67.86-.05-101.79,0-2.82.6-5.18,3.32-6.57a5.49,5.49,0,0,1,6,.53c1.92,1.34,2.48,3.29,2.47,5.55,0,7,.18,14-.08,20.95-.14,3.58,1.19,4.37,4.52,4.37q84.39-.13,168.78-.06a27.85,27.85,0,0,1,4.48.14,5.35,5.35,0,0,1,4.91,5.27,5.49,5.49,0,0,1-4.25,6.2,24.22,24.22,0,0,1-7.06.56H77.26c-5.89,0-5.89,0-5.89,6q0,28.06,0,56.13c0,10.58,5,15.52,15.66,15.52H297.72c10.69,0,15.65-4.94,15.66-15.52,0-19.09-.09-38.17.08-57.26,0-3.76-1-5-4.86-4.92-10.35.23-20.7.09-31.06.07a37.22,37.22,0,0,1-4.48-.2c-4.3-.52-6.49-2.83-6.21-6.42s2.61-5.41,6.71-5.52c2.12-.06,4.24,0,6.36,0,9.86,0,19.71-.08,29.57,0,2.83,0,4-.7,3.95-3.77q-.18-30.51,0-61c0-2.82-1-3.65-3.71-3.64q-38.54.1-77.09,0c-3.8,0-6.25,1.59-8.11,4.86-7.27,12.8-14.74,25.48-22,38.28-2.34,4.13-5.05,7.61-10.23,7.51-5-.09-7.58-3.51-9.85-7.52-7.25-12.81-14.76-25.47-22-38.28-2-3.5-4.63-4.85-8.5-4.85q-38.35.09-76.72,0c-2.87,0-4.06.8-3.91,3.82.2,4.23.1,8.48,0,12.72-.08,3.84-2.49,6.46-5.79,6.51s-5.82-2.56-5.92-6.36c-.1-4-.23-8,0-12,.22-3.54-.91-4.84-4.6-4.74-8.61.23-17.22.07-25.82.07-16.07,0-22.46-4.27-28.48-19V86.08c5-14,12.88-19.56,27.83-19.57,8.86,0,17.72-.12,26.57.06,3.36.08,4.58-.89,4.52-4.42-.2-12-.09-23.95-.06-35.92a27.45,27.45,0,0,1,.49-6.7C62.56,9.6,69.19,3.82,78.6.75ZM192.76,12.24h-79.7c-9.23,0-18.47-.11-27.69,0-8.74.15-13.93,5.46-14,14.15-.07,12.1.06,24.2-.08,36.29,0,3,1.1,3.88,4,3.84,8.6-.13,17.21-.06,25.82,0,5.84,0,9,2.17,9,6.18s-3,6.07-9,6.07c-24.45,0-48.9.3-73.34-.13-11-.19-15.66,7-15.6,15.63.21,30.81.07,61.62.09,92.43,0,11.13,4.81,15.9,16,15.9,41.54,0,83.07.08,124.61-.07,8.11,0,13.76,3.2,17.7,10.18,6.57,11.61,13.37,23.09,20,34.7,1.59,2.79,2.33,2.81,3.94,0,6.41-11.41,13.16-22.64,19.54-34.07,4.12-7.38,10-10.8,18.55-10.76,41.28.16,82.57.07,123.85.07,11.38,0,16.1-4.74,16.1-16.2,0-30.56-.14-61.12.1-91.67.08-8.89-4.3-16.12-15.92-16.08-74.59.25-149.18.13-223.76.12a31.47,31.47,0,0,1-4.86-.14c-3.21-.51-5.26-2.45-5.39-5.75s1.76-5.42,5-6a30.48,30.48,0,0,1,5.58-.31q87.56,0,175.12,0c5,0,5,0,5-4.89q0-16.45,0-32.93c0-11.87-4.61-16.45-16.6-16.45Z"/><path class="cls-1" d="M192.24,361c-6.35,0-12.71.1-19.06,0a28.14,28.14,0,0,1-27.35-28.05c.11-15,12.37-27.56,27.25-27.73q19.24-.21,38.49,0a27.89,27.89,0,0,1,.1,55.77C205.2,361.1,198.72,361,192.24,361Zm.14-12.22c6.23,0,12.47.12,18.7,0,9-.21,15.57-6.89,15.57-15.7s-6.5-15.51-15.59-15.64q-18.69-.27-37.39,0c-9.1.13-15.57,6.84-15.57,15.66s6.52,15.47,15.58,15.68C179.91,348.9,186.15,348.78,192.38,348.78Z"/><path class="cls-1" d="M276.05,173.07c.8-4.58,1.67-10,2.74-15.36a7.06,7.06,0,0,0-2.33-7.34c-3.62-3.24-6.93-6.82-10.46-10.17-3.09-2.94-4.31-6.39-3.05-10.49,1.33-4.32,4.59-6.35,8.86-7,5.18-.77,10.35-1.59,15.54-2.19a4.84,4.84,0,0,0,4.22-3.08c2.24-4.73,4.65-9.38,6.94-14.09,1.92-3.93,4.88-6.24,9.37-6.27s7.17,2.46,9,6.17c2.34,4.68,4.68,9.37,6.92,14.1a4.69,4.69,0,0,0,4.16,3.1c4.95.53,9.85,1.45,14.79,2.13,4.49.62,8.26,2.32,9.73,7s-.32,8.27-3.65,11.43c-3.52,3.34-6.95,6.8-10.54,10.08a5.46,5.46,0,0,0-1.74,5.68c1,4.76,1.74,9.56,2.53,14.35,1,6.29-1.16,10.56-6.18,12.52-2.95,1.15-5.63.53-8.27-.85-4.75-2.49-9.52-4.92-14.22-7.51a4.74,4.74,0,0,0-5.19,0c-4.89,2.74-9.83,5.43-14.91,7.79C283.17,186.33,275.85,181.56,276.05,173.07Zm1.64-38.83c3.23,3.32,5.89,6.45,8.95,9.12a13.07,13.07,0,0,1,4.53,13.4c-.63,3.17-1.12,6.37-1.67,9.56-.17,1-.75,2.13.21,2.78s1.87-.29,2.72-.73c3.1-1.61,6.22-3.19,9.25-4.92a11.17,11.17,0,0,1,12-.06c3.23,1.89,6.62,3.49,9.91,5.26,2,1.11,2.81.44,2.49-1.71-.52-3.44-.93-6.93-1.75-10.31-1.25-5.16.13-9.25,4.11-12.72,3.24-2.82,6.26-5.87,9.86-9.27-5.47-1.68-10.09-1.89-14.61-2.56a11.54,11.54,0,0,1-9.45-7c-1.65-3.5-3.42-6.93-5.15-10.39-.32-.65-.54-1.56-1.38-1.58s-1.05.92-1.37,1.57q-2.65,5.35-5.27,10.74a11,11,0,0,1-9.27,6.58C287.19,132.58,282.6,133.47,277.69,134.24Z"/><path class="cls-1" d="M45.45,172.5c.76-4.51,1.64-10.17,2.73-15.79A5.54,5.54,0,0,0,46.4,151c-3.56-3.3-6.93-6.82-10.49-10.14-3.37-3.14-5.19-6.76-3.68-11.35s5.25-6.34,9.75-6.94c4.93-.67,9.84-1.54,14.79-2.09a4.76,4.76,0,0,0,4.15-3.14c2.25-4.73,4.64-9.39,7-14.09,1.85-3.74,4.59-6.2,9-6.18s7.46,2.32,9.37,6.25c2.3,4.71,4.7,9.36,7,14.09a4.76,4.76,0,0,0,4.22,3c4.95.54,9.86,1.46,14.79,2.12,4.53.62,8.15,2.45,9.6,7.1,1.39,4.46-.28,8-3.56,11-3.47,3.23-6.68,6.73-10.2,9.9a6.52,6.52,0,0,0-2.13,6.69c.88,4.65,1.61,9.33,2.51,14,.85,4.41,0,8.25-3.77,11s-7.64,2.3-11.59.12c-4.47-2.48-9.08-4.69-13.56-7.16a4.84,4.84,0,0,0-5.22,0c-4.8,2.64-9.65,5.24-14.58,7.62C52.35,186.44,45.22,181.76,45.45,172.5Zm62.11-38.26c-5.58-.84-10.23-1.65-14.91-2.23a10.57,10.57,0,0,1-8.77-6.12c-1.72-3.47-3.38-7-5.1-10.42-.43-.85-.58-2.19-1.67-2.29s-1.34,1.3-1.76,2.12q-2.56,5-5,10.06A11.1,11.1,0,0,1,61.14,132c-4.62.57-9.2,1.42-14.43,2.25,3.73,3.76,6.76,7,10,10.06a11.52,11.52,0,0,1,3.72,11.81c-.69,3.16-1.17,6.37-1.68,9.57-.17,1.08-.71,2.43.21,3.21s2.08-.25,3-.74c3.22-1.64,6.44-3.29,9.59-5.07a10.41,10.41,0,0,1,10.69-.07q5.28,2.81,10.58,5.59c.65.33,1.36.92,2.08.5,1-.55.53-1.54.39-2.37-.59-3.43-1.17-6.87-1.83-10.3-1-4.91.1-9,4.07-12.43C100.87,141.22,103.79,138,107.56,134.24Z"/><path class="cls-1" d="M237.54,132.81c.19,2.74-1.1,5.06-3.15,7.07-3.74,3.67-7.4,7.43-11.23,11a5.91,5.91,0,0,0-1.95,6c.91,4.64,1.66,9.32,2.51,14,.81,4.46.3,8.51-3.65,11.4s-7.86,2.24-11.9,0c-4.44-2.52-9.07-4.72-13.55-7.18a4.16,4.16,0,0,0-4.51,0c-4.7,2.59-9.51,5-14.22,7.52-3.86,2.1-7.58,2.3-11.24-.35s-4.41-6.22-3.79-10.3c.74-4.8,1.49-9.61,2.55-14.34a6.83,6.83,0,0,0-2.36-7.28c-3.69-3.35-7.11-7-10.71-10.45a9.68,9.68,0,0,1-2.75-10.27c1.1-3.84,4-6,7.85-6.63,5.52-.93,11.07-1.77,16.63-2.45a4.84,4.84,0,0,0,4.18-3.11c2.25-4.74,4.66-9.39,6.95-14.1,1.84-3.79,4.64-6.14,9-6.21,4.52-.07,7.46,2.28,9.37,6.22,2.29,4.71,4.7,9.37,6.94,14.1a4.75,4.75,0,0,0,4.21,3c5.2.57,10.37,1.4,15.53,2.25C234.31,123.72,237.53,127.21,237.54,132.81Zm-75.78,1.46c3.83,3.76,6.8,7,10.07,9.8,4.06,3.53,5,7.76,3.91,12.81-.7,3.16-1.16,6.38-1.69,9.57-.14.84-.5,1.87.21,2.5,1,.86,1.86-.09,2.69-.52,3.44-1.77,6.87-3.56,10.25-5.42a10.14,10.14,0,0,1,10.34,0c3.4,1.84,6.83,3.64,10.26,5.41.83.42,1.73,1.37,2.69.52.71-.63.34-1.65.2-2.5-.5-3.07-.88-6.18-1.61-9.2-1.33-5.52-.05-10,4.39-13.7,3.17-2.66,5.94-5.77,9.5-9.28-5.72-.86-10.37-1.64-15.05-2.25a10.46,10.46,0,0,1-8.67-6.24c-1.78-3.71-3.69-7.36-5.47-11.07-1-2.14-1.82-2.06-2.82,0-1.78,3.71-3.69,7.37-5.47,11.08A10.51,10.51,0,0,1,176.8,132C172.13,132.61,167.48,133.4,161.76,134.27Z"/><path class="cls-1" d="M192.3,48.91q-19.26,0-38.53,0c-5,0-7.9-2.23-7.85-6s2.84-5.8,7.63-5.8q38.89,0,77.79,0c4.71,0,7.54,2.32,7.49,6s-2.87,5.8-7.64,5.81Q211.75,48.93,192.3,48.91Z"/></svg>