<svg id="Capa_1" data-name="Capa 1" xmlns="http://www.w3.org/2000/svg" viewBox="0 0 384 384"><defs><style>.cls-1{fill:#fff;}</style></defs><path class="cls-1" d="M201.36.75C213.48,2.93,224.61,7.36,234,15.56c24.22,21.2,29.66,54.2,13.61,82.11-4.42,7.67-8.76,15.4-13.35,23-1.57,2.58-1.46,3.54,1.6,4.67,47.49,17.51,76.75,51.25,87.28,100.56,12.38,58-18.83,119.5-72.38,145-21.8,10.38-44.66,15-68.63,13.13-29.36-2.32-55.42-13.18-77.57-32.7C78.83,328.67,64.19,300,59.88,266.14a128,128,0,0,1,3.6-48.93c1.09-4.17,4.15-6.28,7.59-5.39s5.13,4,4.05,8.31a121,121,0,0,0,4.5,75.25c.32.82.61,1.64,1,2.42.91,1.81,2.23,3.12,4.43,2.59a3.85,3.85,0,0,0,3.18-4.06c0-3.37.08-6.74,0-10.1-.19-18.73,7.5-32.87,24-42.17,13.48-7.59,26.76-15.52,40.17-23.22,15-8.63,15.36-25.73.58-34.78q-10.53-6.44-21.12-12.8c-14.72-8.83-29.09-5.73-38.8,8.34a127.5,127.5,0,0,0-8.54,14.06c-2.36,4.58-5.52,6.05-8.89,4.32s-4.18-5.18-1.82-9.68q24.52-46.86,74.3-64.79c4.19-1.52,4.22-1.43,2-5.46a21.65,21.65,0,0,1-1.68-3.33,5.66,5.66,0,0,1,2.68-7.37c2.8-1.62,5.43-.86,7.34,1.53a52.19,52.19,0,0,1,3.94,6.35q13.59,23.47,27.16,47c2.45,4.22,3.21,4.24,5.6.11,14.24-24.62,28.64-49.14,42.62-73.91,17.89-31.71-1-71.53-36.65-77.18C180.49,10,163,16.6,150.52,33.63s-13.75,35.6-4.67,54.76c.37.79.85,1.53,1.19,2.33,1.5,3.48.48,6.8-2.55,8.35s-6,.55-8-2.73a63.06,63.06,0,0,1-8-23.57C124,40.55,146.79,6.46,182.34,1.13a5.3,5.3,0,0,0,1-.38Zm-84.1,155.32a45.57,45.57,0,0,1,21.47,7.18c7,4.37,14.08,8.53,21.1,12.83,22,13.5,21.5,42.08-.89,54.92-14.06,8.07-28,16.3-42.09,24.38-9.43,5.42-15,13.5-16.13,24.24-.6,5.55-.1,11.21-.23,16.82-.15,5.87-2.46,10.63-7.61,13.76-4.77,2.89-4.78,2.88-1.56,7.75.28.41.55.83.84,1.24a119.68,119.68,0,0,0,48.26,41.4c3.63,1.72,3.76,1.65,3.79-2.2,0-3.62-.1-7.24,0-10.85a7.93,7.93,0,0,0-2.65-6.3c-4.47-4.35-8.85-8.8-13.25-13.22a19.19,19.19,0,0,1-5.84-14.11c0-12.35,0-24.7,0-37.05.06-10.65,8.56-18.06,18.89-15.73,20.67,4.64,41.25,9.69,61.8,14.84,7.55,1.89,11.72,7.92,11.8,15.8.05,5.24-.12,10.49.05,15.72a20.86,20.86,0,0,1-6.72,16.39c-8.05,7.84-15.89,15.87-23.86,23.78-1.58,1.55-2.7,3.16-2.67,5.51q.1,7.66,0,15.34c0,2.33.93,3.24,3.28,3.5a85,85,0,0,0,14.18,0c25.6-1.43,48.3-10.4,68.46-26.05,2.39-1.86,4.94-3.63,6.95-6.21-17.11-5.2-23.4-13.74-23.4-31.35,0-10.48,0-20.95,0-31.43,0-9.74-6-15.86-15.8-16.21a30.91,30.91,0,0,1-7.37-1.11c-13.37-3.8-23.08-17.73-21.37-30.63,2.14-16.18,13.75-27,29.12-27.16,4.49,0,9,0,13.47,0,5.2,0,7.77,2,7.72,6s-2.57,5.75-7.91,5.77c-4.11,0-8.24-.13-12.35.06-10.11.48-17.62,7.46-18,16.55-.42,9.8,5.91,17,16.27,18.38,2.47.34,5,.42,7.39,1,12.91,3.16,20.94,13.75,21.07,27.83.1,11.35,0,22.7,0,34,0,8.15,3.65,13.26,10.86,15.55,6.68,2.12,12.95-.29,17.45-6.75a116.4,116.4,0,0,0,11.92-21.58c11.14-26.49,12.7-53.56,5-81.23-.79-2.87-2.15-4-5.24-3.93-8.48.21-17,.09-25.45.07-5.57,0-8.18-1.93-8.11-5.94s2.78-5.8,8.32-5.8c6.86,0,13.73,0,20.59,0,4.1,0,4.22-.15,2.34-3.88q-23-45.71-71.48-62.1c-2.85-1-4.24-.23-5.64,2.26-5.75,10.22-11.79,20.27-17.48,30.52-3.22,5.79-6.74,11-14.19,11.09-7.67.05-11.19-5.39-14.47-11.27-5.77-10.34-11.79-20.55-17.7-30.82-.9-1.58-1.68-2.9-4-2.16A122,122,0,0,0,117.26,156.07ZM156,353.56v3.74c0,10.4,0,10.4,10.23,12.17.12,0,.25,0,.37.06,2.17.57,3.2,0,3.12-2.51-.16-4.73,0-9.48-.06-14.21a16.28,16.28,0,0,1,5.12-12.4c5.06-5,9.57-10.69,15.19-14.93,11-8.28,15-18.84,12.87-32.12a1.61,1.61,0,0,1,0-.38c.36-3.47-1.26-5.21-4.63-6-19.16-4.51-38.29-9.15-57.43-13.72-4.53-1.09-6,0-6,4.74-.07,8.1.68,16.28-.2,24.29-1.2,11,2,19.28,10.84,25.9C153.75,334.46,158.33,342.64,156,353.56Z"/><path class="cls-1" d="M156.93,62.6a35.45,35.45,0,1,1,35.21,35.66A35.61,35.61,0,0,1,156.93,62.6ZM192.52,86A23.45,23.45,0,0,0,216,62.89a23.78,23.78,0,0,0-23.78-23.75c-12.77,0-23.77,11.09-23.54,23.65A23.45,23.45,0,0,0,192.52,86Z"/><path class="cls-1" d="M86.6,25.4a6.15,6.15,0,0,1,5.13,3.13,5.76,5.76,0,0,1-.53,6.65c-1.8,2.38-3.85,4.6-5.47,7.09a38.29,38.29,0,0,0,3.42,45.47c.49.56,1,1.08,1.51,1.66,2.5,3,2.53,6.34.1,8.71s-6,2.16-8.94-.63C63.24,79.74,63.17,45.84,81.65,27.9A7.75,7.75,0,0,1,86.6,25.4Z"/><path class="cls-1" d="M317,57.79c-.15,18.3-4.67,29.58-13.53,39.1-3.16,3.4-6.8,3.8-9.45,1.26s-2.42-5.94.77-9.54c13.41-15.16,13.68-35.64.69-51.07-3.88-4.61-4.24-8.08-1.09-10.66s6.47-1.78,10.41,2.9C312.91,39.39,317.18,50.4,317,57.79Z"/><path class="cls-1" d="M289.13,62.35c-.36,9.45-3.31,17.46-9.38,24.22-2.8,3.12-6.61,3.63-9.24,1.39s-2.63-5.82.11-9.29c8.6-10.89,8.55-21.28-.14-32.2-2.59-3.26-2.61-6.7-.05-9s5.89-2.17,8.89,1C285.85,45.2,288.75,53.48,289.13,62.35Z"/><path class="cls-1" d="M95.64,62.48c.47-9.15,3.31-17.32,9.75-24,3-3.13,6.17-3.44,8.89-1s2.61,5.76,0,9c-8.85,11.19-8.84,21.2,0,32.45,2.5,3.18,2.48,6.81-.05,9s-6.33,1.83-9-1C99,80,95.94,71.77,95.64,62.48Z"/></svg>