<svg id="Capa_1" data-name="Capa 1" xmlns="http://www.w3.org/2000/svg" viewBox="0 0 384 384"><defs><style>.cls-1{fill:#fff;}</style></defs><path class="cls-1" d="M228.3.75c8.57,3.76,11.67,10.59,11.29,19.6-.25,6,.09,12-.09,18-.31,10.11-5.84,16.2-15.68,17.1-2.8.25-3.53,1.24-3.55,3.88-.09,10-.17,10,9.6,12.39A152,152,0,0,1,274.65,90.1c2.7,1.67,4.27,1.41,6.24-1,3.19-3.83,6.64-7.45,10.09-11,6-6.22,13.14-6.68,19.57-1q10.83,9.49,21.32,19.38c6.25,5.9,6.41,13.47.65,20Q327.3,122.24,321.9,128c-1.59,1.69-1.94,3-.4,5.15,15.64,21.5,25.51,45.44,28.74,71.81,5.61,45.77-6.05,86.87-35.56,122.4-25.13,30.25-57.43,48.93-96.3,55-46.69,7.23-88.78-4.19-125.74-33.86-2.72-2.18-5.29-4.56-7.83-6.94-4.41-4.13-5-7.2-2.21-10.19S88.74,328.7,93,332.7a141.66,141.66,0,0,0,29.57,21.5A143.47,143.47,0,0,0,185.27,372c37.37,1.83,70.77-8.82,99.74-32.3,30.17-24.46,48.29-56.15,53.15-94.81,5.94-47.18-8.14-88.09-41.14-122A138.73,138.73,0,0,0,214,81c-47.67-6.35-89.18,7.32-123.66,40.68-23.89,23.1-38,51.61-42.33,84.71-5,38.73,4,74,26.7,105.73,1.23,1.73,2.57,3.5,2.22,5.78A6,6,0,0,1,72.58,323c-2.79.84-4.89-.39-6.53-2.48A133.91,133.91,0,0,1,53.52,301a155.71,155.71,0,0,1-18.63-66.77c-1.86-37.14,8.2-70.72,29.7-100.93,1.7-2.39,1.38-3.81-.49-5.72-3.41-3.47-6.62-7.13-9.9-10.72-6.42-7-6.21-14.6.73-21,6.77-6.27,13.57-12.52,20.5-18.61,6.78-6,13.84-5.49,20.11,1.11q5.4,5.7,10.62,11.57c1.4,1.57,2.58,1.86,4.47.69A156.14,156.14,0,0,1,163,70.25c2.1-.42,3.11-1.35,2.95-3.49,0-.5,0-1,0-1.5,0-2.74.61-5.74-.29-8.16-1.1-3-4.8-1.6-7.26-2.51-6.44-2.37-10.53-7.69-10.83-15.54-.28-7.47-.19-15,0-22.45.17-7.69,4.34-12.75,11.17-15.85ZM97.48,98.52a9.81,9.81,0,0,0-.77-1.11c-3.19-3.5-6.41-7-9.58-10.48-1.53-1.69-2.88-1.46-4.45,0q-9.62,8.86-19.33,17.63c-1.46,1.32-1.86,2.54-.41,4.11,3.3,3.56,6.6,7.13,9.83,10.76,1.27,1.42,2.16,1.12,3.3-.19A138.46,138.46,0,0,1,96,100.7C96.71,100.18,97.52,99.71,97.48,98.52ZM301.16,85.67a4,4,0,0,0-2.39,1.66c-2.88,3.11-5.63,6.34-8.62,9.33-1.86,1.86-1.45,3,.46,4.4a131.94,131.94,0,0,1,19.43,18c1.24,1.42,2.14,1.85,3.55.24,3.13-3.54,6.35-7,9.58-10.48,1.57-1.67,1.22-2.94-.39-4.38-6.39-5.75-12.71-11.58-19.07-17.36A3.69,3.69,0,0,0,301.16,85.67ZM184.41,27.32c0,4.23.09,8.46,0,12.69-.08,2.44.92,3.33,3.3,3.27,4-.11,8-.07,11.94,0,2,0,3-.67,3-2.81q-.07-12.69,0-25.38c0-2.09-.86-2.88-2.91-2.84-4,.07-8,.13-11.94,0-2.69-.11-3.47,1-3.38,3.55C184.51,19.6,184.41,23.46,184.41,27.32Zm-11.76.59c0-2.74,0-5.48,0-8.21-.14-8.27,1.48-7.46-7.6-7.43-4,0-5.31,1.44-5.36,5.48-.06,5.35,0,10.71,0,16.06,0,9.46.56,9.91,9.87,9.49,2.51-.11,3.21-1.15,3.15-3.44C172.57,35.88,172.65,31.89,172.65,27.91Zm41.69-.46c0,2.86,0,5.73,0,8.59.11,7.89-1.29,7.22,7.51,7.2,4.35,0,5.43-1.16,5.46-5.62,0-5.35,0-10.7,0-16,0-9.09-.67-9.73-9.77-9.33a2.41,2.41,0,0,1-.38,0c-2.09-.17-2.89.83-2.85,2.88C214.4,19.24,214.35,23.35,214.34,27.45Zm-21,28.08c-2.48,0-5,0-7.46,0-9.41.14-7.93-1.34-8.25,8.41-.12,3.55,1.4,4.36,4.45,3.92A75.75,75.75,0,0,1,200,67.44c10.15.91,8.36,1.38,8.6-8.61.05-2.38-.83-3.39-3.26-3.33C201.32,55.61,197.34,55.53,193.36,55.53Z"/><path class="cls-1" d="M199.26,150.55c0,11.85.06,23.7,0,35.55,0,2.84.9,4.08,3.74,4.92,23,6.77,33.29,32,21.59,52.8-1.37,2.45-1.1,3.9.81,5.8q25.35,25.19,50.53,50.55c2.19,2.21,3.51,1.92,5.34-.3,15-18.2,23.94-38.91,26.32-62.46,2.54-25.18-2.91-48.54-15.46-70.38-2.21-3.86-1.6-7.3,1.45-9.17,3.22-2,6.64-.81,9,3.25,10.3,17.63,16.65,36.56,17.31,57,1.8,55-21.81,96.09-70.33,121.4-59,30.78-133.28,7.74-166.4-50-10.9-19-16.87-39.46-17.14-61.28-.4-32.31,9.89-61.07,31.16-85.54,19.77-22.74,44.58-37.08,74.37-42,39.67-6.58,74.8,3.82,105.44,29.69,2.85,2.4,5.54,5,8.15,7.7,3.74,3.83,4.07,7.4,1.13,10.12s-6.16,2.12-9.77-1.62a114.24,114.24,0,0,0-61.71-33.66c-3.67-.72-7.41-1-11.08-1.7-3.21-.6-4.51.29-4.46,3.78C199.35,126.85,199.26,138.7,199.26,150.55Zm-12.27,0c0-12-.06-23.95,0-35.92,0-2.79-.91-3.78-3.74-3.49a117,117,0,0,0-64,26.48c-2.55,2.1-2.89,3.34-.34,5.7,3.24,3,3.35,6.72.85,9.22-2.66,2.64-6.06,2.6-9.15-.83-2.63-2.93-4-1.87-6,.59C89.56,170.9,80.58,192,78.51,216c-.26,3,.21,4,3.34,4,4.9-.1,7.44,2.11,7.45,5.88s-2.4,5.88-7.31,6.26a10.47,10.47,0,0,1-1.12,0c-1.94-.08-2.55.73-2.4,2.73,1.85,24.56,11,46.12,26.56,65.06,1.86,2.25,3.36,2.63,5.34.26a6.47,6.47,0,0,1,4.8-2.61,5.59,5.59,0,0,1,5.75,3.36,5.81,5.81,0,0,1-1.86,7.38c-2.59,2.11-2.55,3.59.09,5.76a115.6,115.6,0,0,0,61.74,26.26c5.43.62,5.45.44,6.18-4.77.49-3.53,3-6,6.07-6s5.56,2.53,6,6.07a9.76,9.76,0,0,1,.08,1.87c-.12,2.26.93,3.1,3.16,3A78.16,78.16,0,0,0,215,338.84a114.58,114.58,0,0,0,52.38-25.11c1.7-1.43,2.81-2.48.59-4.68q-25.92-25.68-51.61-51.59c-1.69-1.7-2.91-1.62-4.79-.44A33.14,33.14,0,0,1,195,262.14a36.51,36.51,0,0,1-37.72-30.59c-3-17.82,8.09-35.29,26.11-40.54,2.88-.84,3.72-2.14,3.69-4.95C186.93,174.21,187,162.36,187,150.51Zm6.09,99.43a24.21,24.21,0,0,0,24.37-24.14c0-13.14-11.23-24.28-24.48-24.2a24.58,24.58,0,0,0-24.18,24.12A24.22,24.22,0,0,0,193.08,249.94Z"/></svg>