<svg id="Capa_1" data-name="Capa 1" xmlns="http://www.w3.org/2000/svg" viewBox="0 0 384 384"><defs><style>.cls-1{fill:#fff;}</style></defs><path class="cls-1" d="M204.35.75c10.85,1.85,21.49,4.41,31.34,9.53,30.52,15.88,48.37,40.93,53.2,74.92,2.1,14.84.71,29.9.83,44.85a17.3,17.3,0,0,0,2.68,9.43c7.69,12.6,7.36,25.29-.73,37.64a10.47,10.47,0,0,0-1.92,6.25,51.38,51.38,0,0,1-.49,10.06c-2,11.34-11.28,19.82-22.76,19.2-7.58-.41-12.45,1.42-16,8.5-3,6-8.13,10.73-13.56,14.79-2.37,1.77-1.93,2.78-.31,5,3.55,4.77,7.85,6.84,13.75,6a32.42,32.42,0,0,1,7.1,0c3.3.25,5.34,2.07,5.54,5.45s-1.51,5.43-4.76,6.19-6.46.54-9.69.41c-2.84-.1-4.22.73-4.74,3.79-2,11.42-4.21,22.79-6.35,34.18-.24,1.22-.45,2.45-.74,3.66-1.76,7.27-8.82,10.06-15.1,6-6.52-4.24-6.53-4.25-11.32,1.89-2.91,3.74-5.72,7.57-8.71,11.24a4.22,4.22,0,0,0-.63,4.79q9.12,22.74,18.13,45.53c.68,1.71,1.62,2.58,3.57,2.58,14.22,0,28.44-.08,42.66,0,2.94,0,3.15-1.54,3.14-3.79-.05-10.86,0-21.71,0-32.56,0-1.13,0-2.25,0-3.37.21-3.87,2.59-6.36,6-6.28s5.5,2.45,5.72,6.15c.07,1.24,0,2.5,0,3.74,0,10.86.06,21.71,0,32.56,0,2.52.72,3.58,3.4,3.55,10.6-.11,21.21-.09,31.81,0,2.82,0,4-1,4-3.92-.07-25.45.19-50.9-.15-76.35-.25-17.67-15.2-32.41-32.81-33.23a41.31,41.31,0,0,1-5.21-.45c-3.72-.65-5.59-3-5.31-6.45.27-3.23,2.41-5.11,6.08-5.34,22.5-1.38,43.78,15,48.3,37.11a57,57,0,0,1,1.29,11.49q0,36.5,0,73a26.15,26.15,0,0,1-.67,5.92,13,13,0,0,1-12.12,9.94c-1.25.06-2.5,0-3.74,0-81.34,0-162.67-.12-244,.14-11.77,0-16.76-7.18-16.56-16.46.24-10.47,0-20.95.06-31.43a25.19,25.19,0,0,1,.12-3.37c.49-3.74,3.13-6.24,6.37-6.1s5.67,2.77,5.7,6.67c.09,10.73,0,21.46,0,32.19,0,1.12,0,2.24,0,3.37-.06,2.18,1,3.22,3.16,3.22,11.1,0,22.2,0,33.31,0,2.9,0,2.7-1.89,2.7-3.8V335.78c0-1.12,0-2.25,0-3.36.28-3.6,2.72-6,6-5.88s5.4,2.4,5.68,5.83c.09,1.11,0,2.24,0,3.36,0,11.1,0,22.21,0,33.31,0,2.56.8,3.53,3.44,3.51q21-.14,41.91,0a3.87,3.87,0,0,0,4.17-2.85q9-22.8,18.09-45.55a4,4,0,0,0-.67-4.45q-6.17-7.76-12.14-15.68c-1.25-1.66-2.37-1.94-3.95-.51A36.3,36.3,0,0,1,165.3,306c-6.92,4.88-14.22,2.18-15.88-6.11-2.56-12.7-4.94-25.44-7.24-38.19-.42-2.31-1.33-3.22-3.64-3.16-13.34.32-26.69-.57-40,.54A35,35,0,0,0,66.86,292.7c-.11,5.11,0,10.23-.09,15.34-.11,3.84-2.58,6.4-5.9,6.48a5.86,5.86,0,0,1-6.07-5.89c-.49-12.09-1.11-24.29,4.85-35.49,8.8-16.55,22.47-25.77,41.36-26.3,13.09-.36,26.19-.07,39.29-.08,3.3,0,10-4.85,10.9-7.86.54-1.86-1.22-2.3-2.16-3.07a70.92,70.92,0,0,1-22.13-31.42,64.54,64.54,0,0,1-2.62-9.35c-.44-2.21-1.28-3.1-3.63-3.25-13.17-.85-23-7.2-28.83-19-6-12.1-4.79-23.93,2.83-35a9.76,9.76,0,0,0,1.83-5.89q-.09-17,0-34.06c.19-49.41,35.05-89.51,84-96.67a9.18,9.18,0,0,0,1.41-.44ZM134.89,155.52c0,9.5,0,17,0,24.47,0,19.19,7.6,34.81,22.35,46.95,24.74,20.37,64.1,15.1,82.37-11,.54-.78,1.65-1.54,1.11-2.58s-1.82-.54-2.75-.54q-21,0-41.92,0a21,21,0,0,1-3.73-.14c-2.92-.53-4.74-2.35-4.93-5.31s1.28-5.39,4.36-6.12a27.66,27.66,0,0,1,6.31-.57c15.09-.05,30.19-.15,45.28.06,3.76,0,5.38-1.27,6.09-4.82.87-4.4,1.92-8.75,1.91-13.28q0-25.08,0-50.15a62,62,0,0,0-1.49-11.1c-.37-2-1.44-2.91-3.51-3.1-6.7-.6-13.41-1.16-20.07-2.08-24.5-3.39-47.81-10.11-68-25.18-1.83-1.37-2.91-1.08-4.42.37-9.78,9.37-16,20.61-18.19,34C134,136.08,135.39,146.84,134.89,155.52ZM118.13,61a7.16,7.16,0,0,1,.82-1.69q23.22-27.56,58.75-33.63c4.84-.82,8.17.84,8.82,4.51.68,3.83-1.77,6.6-6.57,7.38A82.62,82.62,0,0,0,127.44,68c-12.89,15.89-19,34.26-18.75,54.75,0,2.44.4,3.49,3.16,2.48a20,20,0,0,1,7.27-1.57c3.95.14,4.89-1.92,5.67-5.21a70.11,70.11,0,0,1,26.82-40.68c3.82-2.88,6.08-2.9,9.42,0,16.07,14,35.41,20.5,55.8,24.62a203.75,203.75,0,0,0,34.49,3.9c5.4.15,7,1.45,8.61,6.59a78,78,0,0,1,2.14,7.93,2.81,2.81,0,0,0,3,2.61,30.39,30.39,0,0,1,9.48,1.94c2.57,1,3,0,3-2.31a107.61,107.61,0,0,0-.74-13,83.14,83.14,0,0,0-26.54-51,82.22,82.22,0,0,0-44.45-21.44c-4.64-.7-7.14-3.57-6.5-7.09.71-3.88,3.87-5.62,8.65-4.83a96.58,96.58,0,0,1,48.49,22.66c4.75,4.11,8.83,8.85,13.53,14.26-10.53-25.24-41.12-53.87-85.73-49.6C153.35,15.84,126.51,37.74,118.13,61Zm4.48,96.57c0-6.11-.12-12.22,0-18.33.08-3.16-1.32-3.87-4.11-3.46-10.29,1.51-18.29,11.32-18.15,22.38a21.79,21.79,0,0,0,18.7,21.45c2.63.35,3.62-.18,3.56-3C122.51,170.29,122.61,163.93,122.61,157.57Zm141,0c0,6.22.12,12.45-.05,18.67-.07,2.77.64,3.72,3.6,3.35,10-1.23,18.51-11,18.55-21.63,0-10.92-8.37-21-18.42-22.19-2.46-.28-3.75.35-3.7,3.13C263.72,145.1,263.64,151.33,263.63,157.55Zm-38,136.92c2.16-11.49,3.81-22.31,6.33-32.93,1.33-5.58-.31-9.26-4.24-12.75-1.45-1.29-2.16-1.1-3.25.24Q214,261.9,203.42,274.72c-1.18,1.43-1.28,2.53.33,3.7C210.88,283.61,218,288.84,225.63,294.47Zm-65-.06c7.63-5.65,14.79-11,22-16.27,1.59-1.17,1-2.28,0-3.45-6.87-8.52-13.78-17-20.57-25.6-1.37-1.72-2.17-1.2-3.55,0-3.92,3.31-6.21,7-4.13,12.32a25.05,25.05,0,0,1,.83,4.39C157,275.12,158.75,284.48,160.63,294.41Zm32.43,42.93C188.41,349,184.24,359.5,180,370c-.88,2.21.14,2.56,2,2.54,7.34,0,14.68-.09,22,0,2.75,0,2.8-1,1.92-3.13-3.28-8.06-6.44-16.17-9.67-24.26C195.41,342.88,194.44,340.64,193.06,337.34ZM192.31,310a2.09,2.09,0,0,0,2.17-.87c3.28-4.21,6.52-8.45,9.85-12.62,1.25-1.55.4-2.34-.76-3.33-9.86-8.4-10.73-8.42-20.72-.19a2.26,2.26,0,0,1-.29.23c-1.73,1-1.55,2.18-.38,3.63,3.11,3.87,6.11,7.82,9.15,11.75C191.78,309.19,192.18,309.81,192.31,310ZM208,250.1a117.47,117.47,0,0,1-14.8,1.59c-4.68.05-9.26-1-14.64-1.32,4.61,5.73,8.78,10.94,13,16.14,1,1.24,2,1.28,3.06,0C198.79,261.34,203,256.17,208,250.1Zm57.17-49.45c6.57-.08,11.21-3.46,12.17-8.67.36-2,0-2.9-2.28-2a29.27,29.27,0,0,1-9.46,1.93c-2.89.1-4.47,2.52-4.38,6.81C261.28,202,264,200,265.16,200.65Z"/></svg>