<?xml version="1.0" encoding="utf-8"?>
<!-- Generator: Adobe Illustrator 25.4.1, SVG Export Plug-In . SVG Version: 6.00 Build 0)  -->
<svg version="1.1" id="Capa_1" xmlns="http://www.w3.org/2000/svg" xmlns:xlink="http://www.w3.org/1999/xlink" x="0px" y="0px"
	 viewBox="0 0 317.6 374.5" style="enable-background:new 0 0 317.6 374.5;" xml:space="preserve">
<style type="text/css">
	.st0{fill:#FFFFFF;}
</style>
<g>
	<g>
		<rect x="151.3" y="143.8" class="st0" width="14" height="14.9"/>
	</g>
	<g>
		<rect x="151.3" y="222.6" class="st0" width="14" height="14.9"/>
	</g>
	<g>
		<polygon class="st0" points="238,312.8 212.9,282.4 223.7,273.5 239.1,292.1 272.8,258.9 282.6,268.9 		"/>
	</g>
	<g>
		<path class="st0" d="M157.4,374.5c-10,0-20-1.8-29.7-5.3c-44.1-16-77.6-42.3-99.6-78.1c-19-30.8-28.1-61.8-28-94.6
			C0.4,150.1,0.3,114.4,0,80.7C-0.1,70,4.1,63.8,14.1,60c17.1-6.6,33.5-14,51.6-22.2c10.7-4.9,21.7-9.5,32.3-13.9
			c15.3-6.4,31.2-13,46.3-20.5c9.6-4.8,19.4-4.6,29,0.6c7.2,3.9,14.8,6.9,22.8,10.1c3.7,1.5,7.4,3,11.1,4.6
			c9.8,4.2,19.5,8.4,29.3,12.6c22.7,9.8,46.2,19.9,69.3,29.7c10.2,4.3,11.3,12.2,11.3,17.8c-0.2,32.5-0.2,61.5-0.1,88.6
			c0,4.7,0.2,9.6,0.3,14.3c0.6,21.7,1.3,44.2-10,65.3l-12.3-6.6c9.6-17.8,9-37.5,8.4-58.2c-0.1-4.8-0.3-9.7-0.3-14.6
			c-0.1-27.1,0-56.1,0.1-88.7c0-3.7-0.6-4-2.7-4.9C277.3,64.1,253.8,54,231,44.2c-9.8-4.2-19.5-8.4-29.3-12.6
			c-3.6-1.5-7.3-3-10.8-4.4c-8-3.2-16.3-6.6-24.2-10.8c-5.7-3.1-10.5-3.2-16.2-0.4c-15.5,7.7-31.5,14.4-47.1,20.9
			c-10.5,4.4-21.4,8.9-32,13.7c-17.6,8-34.9,15.7-52.4,22.5c-4.6,1.8-5.2,2.7-5.1,7.5c0.3,33.8,0.4,69.6,0.1,116.1
			c-0.2,30.1,8.3,58.6,25.9,87.2c20.6,33.5,50.9,57.1,92.5,72.3c18.6,6.8,38.2,5.8,58-2.9c1.5-0.6,2.9-1.3,4.4-1.9
			c8.3-3.5,15.4-6.6,21.2-12.4l9.9,9.9c-7.7,7.7-16.8,11.6-25.6,15.3c-1.4,0.6-2.8,1.2-4.2,1.8C183.1,371.7,170.2,374.5,157.4,374.5
			z"/>
	</g>
	<g>
		<path class="st0" d="M158.8,330.1c-7.1,0-14.3-1.3-21.6-4c-25.3-9.4-46.7-24.7-63.5-45.6c-18.7-23.3-28.8-49.1-29.9-76.7
			c-0.9-22.1-0.7-44.5-0.5-66.2c0.1-10.2,0.2-20.7,0.2-31.1c0-4.8,1-10.8,8.7-15c4.7-2.6,9.5-4.6,14.1-6.5c3.1-1.3,6-2.5,8.9-3.9
			c5.2-2.5,10.6-4.7,15.8-6.8c8.9-3.6,17.3-7.1,25.1-11.9l7.4,11.9c-8.8,5.5-18.1,9.3-27.2,13c-5.2,2.1-10.2,4.1-15,6.5
			c-3.2,1.5-6.4,2.9-9.5,4.1c-4.5,1.9-8.7,3.6-12.7,5.8c-1.1,0.6-1.3,0.9-1.3,0.9l0,0c0,0-0.2,0.4-0.2,1.8c0,10.4-0.1,21-0.2,31.2
			c-0.2,21.5-0.4,43.7,0.5,65.4c1,24.6,10,47.6,26.8,68.5c15.2,18.9,34.5,32.7,57.4,41.2c13.7,5.1,26.5,4.1,39.1-3
			c0.2-0.1,0.4-0.2,0.6-0.3c1.5-0.9,4.2-2.7,8.1-2.2l-1.7,13.9c0.8,0.1,1.5-0.1,1.8-0.2c-0.2,0.1-0.4,0.2-0.6,0.3
			c-0.4,0.3-0.8,0.5-1.3,0.8C178.5,327.4,168.7,330.1,158.8,330.1z"/>
	</g>
	<g>
		<path class="st0" d="M155,276.3c-25.6,0-47.4-10.2-64.7-30.2c-17.4-20.1-20.8-51.7-8.3-77c7.2-14.4,17.1-26.6,26.6-38.4
			c5.3-6.6,10.9-13.4,15.7-20.4c3.9-5.7,10.1-5.6,13.5-5.6c13.8,0,27.7,0,41.5,0c2.7,0,10,0,14.7,7.6c2.9,4.6,6.6,8.8,10.5,13.2
			c3,3.4,6.1,6.9,9,10.7c0.9,1.3,1.9,2.5,2.8,3.8c8.6,11.6,17.5,23.7,22.7,38.6c3.4,9.8,3.4,19.1,3.3,28.2c0,3.8,0,7.4,0.2,11
			l-14,0.9c-0.3-4.1-0.2-8.1-0.2-12c0-8.2,0.1-16-2.6-23.5c-4.5-12.9-12.4-23.6-20.8-34.9c-0.9-1.3-1.9-2.6-2.8-3.8
			c-2.4-3.3-5.2-6.4-8.1-9.7c-4.1-4.6-8.4-9.4-11.9-15.1c-0.5-0.8-0.6-1-2.8-1c-13.9,0-27.7,0-41.6,0c-0.7,0-1.7,0-2.3,0.1
			c-5.1,7.3-10.6,14.1-16,20.8c-9.5,11.7-18.5,22.7-25,35.8c-10.1,20.3-7.5,45.6,6.3,61.6c14.8,17.1,33.4,25.7,55.1,25.4
			c5.8-0.1,11.7,0,17.3,0c2.6,0,5.2,0,7.9,0v14c-2.6,0-5.3,0-7.9,0c-5.6,0-11.4,0-17.1,0C155.7,276.3,155.4,276.3,155,276.3z"/>
	</g>
	<g>
		<path class="st0" d="M270.1,221l-13.5-3.8c0.3-1.1,0.6-2.1,0.9-3.2c1.1-3.7,2.2-7.2,2.2-10.5c0.1-18.3,0.1-36.9,0.1-54.9
			c0-14,0-28,0-42.1c0-1.4-0.2-1.8-0.2-1.8l0,0c0,0-0.2-0.3-1.3-0.9c-4-2.2-8.3-4-12.7-5.8c-3.1-1.3-6.3-2.6-9.5-4.1
			c-4.9-2.3-9.8-4.3-15-6.5c-9.1-3.7-18.4-7.5-27.2-13l7.4-11.9c7.7,4.8,16.2,8.3,25.1,11.9c5.2,2.1,10.5,4.3,15.8,6.8
			c2.9,1.4,5.8,2.6,8.9,3.9c4.6,1.9,9.4,3.9,14.1,6.5c7.8,4.3,8.8,10.3,8.7,15c0,14,0,28,0,42c0,18,0,36.6-0.1,54.9
			c0,5.3-1.5,10.2-2.8,14.5C270.7,219,270.4,220,270.1,221z"/>
	</g>
	<g>
		<path class="st0" d="M245.2,353.7c-4.5,0-9-0.4-13.5-1.3c-18.6-3.5-30.8-14.8-41.3-26.5c-11.5-12.9-12.7-27.6-13.8-41.8
			c-0.1-1.6-0.3-3.1-0.4-4.7c-1.1-12.2,3.8-21,8.1-28.9c0.7-1.2,1.3-2.4,1.9-3.6c5.8-11,14.9-20.1,26.2-26.2
			c28-15.1,56.9-11.7,81.4,9.4c1.1,0.9,2,1.9,2.9,2.8c1.9,1.9,3.2,3.2,4.6,3.5l-1.9,7.9l8-1.8c0.8,3.6,2.2,7.2,3.7,11
			c1.5,3.8,3.1,7.8,4.2,12.2c9,36.8-12.6,74.8-48.3,84.7C259.5,352.7,252.3,353.7,245.2,353.7z M247.2,225.6
			c-9.2,0-18.6,2.5-28.1,7.6c-8.9,4.8-16,11.8-20.5,20.4c-0.7,1.3-1.4,2.6-2.1,3.8c-3.8,6.9-7.1,12.9-6.4,20.9
			c0.1,1.6,0.3,3.2,0.4,4.8c1.1,13,2,24.2,10.3,33.6c8.8,9.8,18.9,19.3,33.4,22c9.5,1.8,18.7,1.3,28.9-1.6
			c28.5-8,45.7-38.4,38.5-67.9c-0.8-3.4-2.2-6.8-3.6-10.4c-1.3-3.2-2.6-6.5-3.6-10c-3.3-1.6-5.7-4-7.7-6c-0.7-0.8-1.5-1.5-2.1-2.1
			C272.9,230.7,260.3,225.6,247.2,225.6z"/>
	</g>
	<g>
		<path class="st0" d="M187.7,88.1l-13.2-4.6c2.6-7.5,7.8-13.7,15.7-19.1c0.9-0.6,1.4-0.9-0.1-4.4c-1-2.3-2.8-3.5-3.5-3.7
			c-11.1,4.8-19.2,2-24-8.3c-1-2.1-3.3-2.3-4-2.3c-0.7,0-3,0.2-4,2.3c-4.8,10.3-12.8,13.1-23.9,8.3c-0.6,0.1-2.1,1.2-3,3.3
			c-0.9,2.2-1.3,3.5-1.3,4.1c0.1,0.1,0.3,0.3,0.7,0.6c5.1,3.6,12.2,9.5,15.5,19l-13.2,4.6c-1.6-4.5-4.7-8.1-10.4-12.2
			c-10-7.1-6-17.1-4.3-21.3c2-5.1,5.8-9.2,10.5-11.1c3.7-1.5,7.6-1.5,10.9-0.1c2.8,1.2,3.9,1.3,4.2,1.2c0.2-0.1,0.8-0.7,1.6-2.5
			c3-6.4,9.4-10.4,16.7-10.4c0,0,0,0,0,0c7.3,0,13.7,4,16.7,10.4c0.8,1.8,1.4,2.4,1.6,2.5c0.3,0,1.4,0,4.2-1.2c3.4-1.5,7.3-1.5,11,0
			c4.7,1.9,8.8,6.1,10.9,11.1c5.2,12.3-0.9,18.7-5,21.5C192.6,79.7,189.3,83.5,187.7,88.1z M140.3,44.7L140.3,44.7L140.3,44.7z
			 M177,44.7L177,44.7L177,44.7z"/>
	</g>
	<g>
		<path class="st0" d="M159.1,229.6c-2.4,0-4.9-0.5-7.5-1.6l-0.2-0.1c-8.2-3.5-20.7-8.9-19.6-24.9l14,0.9
			c-0.4,5.3,2.1,7.2,11.2,11.1l0.2,0.1c3.1,1.3,6.3-0.6,11.2-4l0.9-0.6c1.5-1,2.3-2.1,2.4-3.2c0.1-1.6-1-3.7-3.1-5.7
			c-2.8-2.7-6.8-3.5-11.5-4.3c-1.1-0.2-2.3-0.4-3.4-0.7c-12.4-2.7-20.9-12-20.2-22.1c0.5-7.2,6.1-14.1,10.7-17.8
			c4.8-3.9,10-5.6,14.6-4.8c12.2,1.9,20.4,7.6,24.4,16.8l-12.8,5.6c-2.1-4.7-6.3-7.4-13.8-8.6c0,0,0,0,0,0c-2.5,0-8.9,6.2-9.1,9.7
			c-0.2,2.6,3.6,6.2,9.2,7.5c1,0.2,2,0.4,3.1,0.6c5.7,1.1,12.7,2.4,18.5,8c5.3,5,7.9,11.1,7.4,17c-0.4,5.3-3.5,10.2-8.5,13.6
			l-0.9,0.6C172,225.6,166.2,229.6,159.1,229.6z"/>
	</g>
	<g>
		<path class="st0" d="M192.6,118l-10.8-9c0.4-0.5,0.8-1,1.1-1.4c1.1-1.4,2.3-3.1,4.1-4.6c2.6-2.2,2.3-3,0.7-5
			c-3.3-4.1-5.5-4.5-8.4-3.8c-13.4,3.3-27.3,3.4-41.3,0.1c-2.4-0.6-6.4,0.9-9,4.9c-0.8,1.3-1.1,1.6,1.5,4.1c1.5,1.4,2.7,2.9,3.8,4.3
			c0.4,0.5,0.8,1,1.2,1.5l-10.8,9c-0.5-0.6-1-1.2-1.5-1.8c-0.8-1-1.6-2-2.3-2.7c-9.7-9.1-6.4-17.7-3.6-22
			c5.5-8.4,15.4-12.8,23.9-10.8c11.8,2.8,23.5,2.8,34.7,0c8.7-2.2,16.3,0.7,22.7,8.6c6.6,8.1,5.6,17.5-2.5,24.4
			c-0.6,0.5-1.3,1.4-2,2.4C193.6,116.7,193.1,117.3,192.6,118z"/>
	</g>
</g>
</svg>
