<?xml version="1.0" encoding="utf-8"?>
<!-- Generator: Adobe Illustrator 25.4.1, SVG Export Plug-In . SVG Version: 6.00 Build 0)  -->
<svg version="1.1" id="Capa_1" xmlns="http://www.w3.org/2000/svg" xmlns:xlink="http://www.w3.org/1999/xlink" x="0px" y="0px"
	 viewBox="0 0 284.8 367.3" style="enable-background:new 0 0 284.8 367.3;" xml:space="preserve">
<style type="text/css">
	.st0{fill:#FFFFFF;}
</style>
<g>
	<g>
		<path class="st0" d="M186.6,339.9c-1.4-4.1-2.9-8.2-4.3-12.3c-3.2-9.3-6.6-18.9-10.1-28.2c-3.5-9.4-9.1-14-18.5-15.4
			c-9.6-1.5-19.2-1.3-29.4-1.1c-4.9,0.1-10,0.2-15,0.1c-22.9-0.5-35.2-8.9-42.5-28.9c-10.2-28-19.9-56-28.6-83.3
			c-2.8-8.8-0.7-18.1,5.7-25c6.8-7.3,16.6-11.1,26.9-10.3c12.2,1,23.5,7.8,30.8,18.8c6.8,10.1,13.3,21.1,20,33.8
			c6.2,11.7,12.3,18,27,18c0.2,0,0.3,0,0.5,0c13,0,21,1.1,25.7,6.7c4.8,5.8,3.8,13.7,1.9,23.5l-13.8-2.6c1.3-6.9,1.6-11,1-12
			c-0.5-0.5-3-1.7-15.3-1.7c0,0-0.1,0-0.1,0c-22.9,0-32.8-12.9-39.4-25.5c-6.5-12.2-12.8-22.9-19.2-32.6
			c-4.9-7.3-12.5-12.1-20.3-12.7c-6.1-0.5-11.6,1.6-15.5,5.8c-4,4.3-3.4,8.9-2.6,11.2c8.7,27.1,18.2,55,28.4,82.8
			c5.3,14.5,12.5,19.3,29.7,19.7c4.8,0.1,9.7,0,14.5-0.1c10.3-0.2,20.9-0.4,31.7,1.3c14.3,2.2,24.3,10.4,29.5,24.3
			c3.6,9.5,6.9,19.2,10.2,28.6c1.4,4.1,2.8,8.2,4.3,12.3L186.6,339.9z"/>
	</g>
	<g>
		<path class="st0" d="M94.3,313.5c-12.9,0-25.3-3.2-35.7-9.4c-13.4-7.9-22.8-20.4-26.5-35.2c-8.5-34.5-15.8-69.7-23-103.8
			c-3-14.2-6.1-29-9.2-43.4l13.7-2.9c3.1,14.5,6.2,29.2,9.2,43.5c7.1,34,14.5,69.2,22.9,103.4c5.6,22.7,28.4,36.5,55.5,33.6
			c10.1-1.1,20.2-0.8,30-0.5c4.3,0.1,8.7,0.2,13,0.2v14c-4.5,0-9-0.1-13.4-0.2c-9.8-0.3-19-0.5-28.1,0.5
			C99.9,313.4,97.1,313.5,94.3,313.5z"/>
	</g>
	<g>
		<path class="st0" d="M234.3,344.5c-5.7,0-9.5-3.2-11.3-9.4c-2.9-10.1-6.6-20.2-10.1-30.1c-3.6-9.9-7.3-20.1-10.3-30.5
			c-6.5-22.8-26.1-28.4-34.1-29.7c-6.7-1.1-15-0.3-23.7,0.5c-4.6,0.4-9.3,0.9-14,1c-1.5,0-3.3,0.3-5.2,0.6c-6.9,1-16.3,2.3-21.4-5.4
			c-2.1-3.1-4.8-6-7.6-9.1c-6.8-7.4-14.6-15.7-15.2-28.8l14-0.6c0.4,8,5.5,13.5,11.5,19.9c3.1,3.3,6.2,6.7,8.9,10.6
			c1.4,0.5,5.7-0.1,8-0.5c2.2-0.3,4.5-0.6,6.7-0.7c4.2-0.1,8.8-0.6,13.1-1c9.2-0.8,18.8-1.7,27.2-0.3c22.3,3.7,39.3,18.5,45.3,39.7
			c2.8,9.9,6.5,19.9,10,29.6c3.6,9.8,7.2,19.9,10.2,30.2c1,0,2.3,0.1,3.6,0.5l-4.2,13.4c0.4,0.1,0.7,0.1,0.8,0.1c-0.2,0-0.4,0-0.6,0
			C235.3,344.5,234.8,344.5,234.3,344.5z M236.8,332.1L236.8,332.1L236.8,332.1z"/>
	</g>
	<g>
		<path class="st0" d="M90.5,367.3c-1.9-13-1.8-25.9-1.6-38.5c0.1-6,0.2-12.2,0-18.2l14-0.4c0.2,6.3,0.1,12.7,0,18.8
			c-0.2,12.5-0.3,24.3,1.4,36.2L90.5,367.3z"/>
	</g>
	<g>
		<path class="st0" d="M228.6,150c-2.3,0-4.6-0.1-6.9-0.2c-2.3-0.1-4.4-0.2-6.6-0.1c0,0-0.1,0-0.1,0c-23,0-44.8-16.8-48.6-37.4
			c-4.3-23.3-4.4-47.9-0.1-73.2c4.4-26.4,28.9-34.4,42.1-38.8l3.7,11.3V0l4.3,0c3.1,0,6.2,0,9.3,0c30.9,0.1,50.5,15.6,56.6,44.8
			c3.7,17.8,2.5,35.7,1.3,53l0,0.2c-1.7,25.9-15.4,43.3-39.4,50.1C238.9,149.7,233.7,150,228.6,150z M215.4,135.7
			c2.3,0,4.6,0.1,6.8,0.2c6.4,0.2,12.5,0.4,18.2-1.2c18.1-5.2,27.9-17.8,29.3-37.6l0-0.2c1.1-16.4,2.2-33.3-1.1-49.2
			c-4.8-22.9-18.4-33.6-42.9-33.7c-3.1,0-6.2,0-9.2,0l-4.3,0v-0.1c-17.9,5.9-29.5,12.7-32,27.5c-4,23.7-3.9,46.7,0.1,68.4
			c2.6,14.1,18.5,25.9,34.8,25.9C215.1,135.7,215.3,135.7,215.4,135.7z"/>
	</g>
	<g>
		<path class="st0" d="M71.4,129.3c-22.3,0-40.4-18.1-40.4-40.4s18.1-40.4,40.4-40.4s40.4,18.1,40.4,40.4S93.7,129.3,71.4,129.3z
			 M71.4,62.4C56.9,62.4,45,74.3,45,88.9s11.9,26.4,26.4,26.4s26.4-11.9,26.4-26.4S86,62.4,71.4,62.4z"/>
	</g>
</g>
</svg>
