<svg id="Capa_1" data-name="Capa 1" xmlns="http://www.w3.org/2000/svg" viewBox="0 0 384 384"><defs><style>.cls-1{fill:#fff;}</style></defs><path class="cls-1" d="M384.75,205.85c-1.46,9.48-3,18.94-5.9,28.12-8.13,25.67-22.34,47.5-41.82,66-2.67,2.53-4,4.61-3.23,8.84,2.79,15.9-11.07,28.44-26.74,24.5-2.92-.74-4.13.7-5.66,2.31-15.15,16.11-32.62,29-53.12,37.45-42.19,17.37-83.49,14.94-123.67-6.46a151.82,151.82,0,0,1-39.92-31.19c-1.62-1.75-3-2.73-5.75-2A21.28,21.28,0,0,1,52.5,308.51c.88-4.45-.92-6.3-3.48-8.74C28.86,280.5,13.79,257.9,6.6,230.84c-14.14-53.18-.47-99.46,36.2-139.62a19.12,19.12,0,0,1,1.84-1.87c5.59-4.61,8.65-9.36,7.84-17.76C51.21,58.38,65.08,48.08,78,51.19c3.15.76,4.95.08,7.08-2.17,23-24.39,50.69-40.48,83.88-46.58,3.54-.66,7.12-1.13,10.68-1.69H206.6c10.47,1.56,20.89,3.36,31,6.8C262,15.89,282.9,29.73,300.69,48.38c1.7,1.79,2.89,4,6.42,3.1,15.61-4,29.51,8.67,26.68,24.55-.76,4.25.62,6.3,3.27,8.82,19.07,18.09,33.12,39.43,41.32,64.51,3.15,9.64,4.83,19.57,6.37,29.54ZM49.31,282.61c-.51-1.46-.64-1.93-.82-2.37a217.81,217.81,0,0,1-16.78-64.51c-.46-4.57,1.39-7.63,5.15-8s6.27,2.14,6.77,6.76a206.7,206.7,0,0,0,21.46,72.75c1.48,2.9,3,4,6.47,3.81,15-.87,25.25,10.14,23.34,24.93-.32,2.42.9,3.06,2.48,3.89a189.5,189.5,0,0,0,28.5,12.21c34.8,11.63,70.31,13.65,106.3,7.31a191.58,191.58,0,0,0,56.38-19.35c1.64-.86,3.11-1.43,2.77-4.09-1.87-14.81,8.36-25.79,23.39-24.89,3.52.21,5-1,6.44-3.85,18.34-35.84,24.89-73.89,21.61-113.83A201.47,201.47,0,0,0,320.88,97c-1.29-2.51-2.58-3.52-5.66-3.3-14.5,1-25.5-9.55-24.06-23.28.36-3.45-.64-4.79-3.46-6.21-45-22.65-92.19-27.5-141.16-17.26a186.76,186.76,0,0,0-49,17.88c-1.52.8-2.93,1.33-2.63,3.82,1.82,15.16-8.32,26-23.55,25.05-3.18-.2-4.62.68-6,3.37a202.32,202.32,0,0,0-22.53,88.36,17.27,17.27,0,0,1-.68,5.54,5.48,5.48,0,0,1-4.56,3.92,5.82,5.82,0,0,1-5.89-2.43c-1.21-1.62-1.21-3.49-1.16-5.38a220.25,220.25,0,0,1,12.8-69.54c1.75-4.88,3.74-9.67,5.84-15.08C3.19,151.94-.36,228,49.31,282.61ZM103,48.4c60.4-25,120-25,179.88-.17C232.73,1.85,157-.52,103,48.4ZM337.49,103a224.76,224.76,0,0,1,18.28,89.38,221.26,221.26,0,0,1-18.9,90C381.89,234.31,387.68,158.48,337.49,103ZM103.1,336.39c53.45,48.56,129.07,46.84,179.87.07C223,361.32,163.41,361.32,103.1,336.39ZM83,72.43a9,9,0,0,0-9.23-9.5,9.43,9.43,0,0,0-9.82,9.51A10,10,0,0,0,73.58,82,9.46,9.46,0,0,0,83,72.43Zm220.25-.19A9.48,9.48,0,0,0,312.47,82c5.14.11,9.94-4.63,9.84-9.71a9.43,9.43,0,0,0-9.62-9.34A9,9,0,0,0,303.24,72.24ZM83,312.58a9.47,9.47,0,0,0-9.15-9.81c-5.12-.16-10,4.55-9.91,9.63a9.42,9.42,0,0,0,9.54,9.41A9,9,0,0,0,83,312.58Zm229.45,9.23a9.44,9.44,0,0,0,9.86-9.47,10,10,0,0,0-9.61-9.57,9.47,9.47,0,0,0-9.45,9.5A9,9,0,0,0,312.45,321.81Z"/><path class="cls-1" d="M275.33,280.91c-7.17-1.63-13.18-4.65-17.57-10.37a26.39,26.39,0,0,1-5.7-16.3c-.06-11.73,0-23.45,0-35.18,0-10.45-5.5-16.23-15.87-16.85-16.35-1-29-14-28.92-29.64.13-16.09,12.71-28.9,29.27-29.64,4.73-.22,9.48-.14,14.22,0,4.47.1,7,2.42,7,6.11s-2.55,6-7,6.07c-4.86.11-9.73-.07-14.59.09a17.4,17.4,0,0,0-.18,34.76c17.3.84,28.05,11.9,28.28,29.34.15,11.6-.09,23.21.1,34.8a15.15,15.15,0,0,0,19.79,14.27,14.41,14.41,0,0,0,7.92-6c17.11-24.9,24.57-52.3,21.59-82.48a148.58,148.58,0,0,0-4-21.27c-.66-2.63-2-3.62-4.73-3.57-8.11.14-16.22,0-24.33,0-1.12,0-2.25,0-3.36,0-4-.28-6.34-2.51-6.42-5.92-.08-3.59,2.33-6.13,6.47-6.23,7.24-.17,14.47-.06,21.71-.08,4.83,0,4.9-.05,2.67-4.35C282,100.84,251.06,78.86,209.32,72.3c-17.71-2.79-35.31-1-52.48,4.41-.59.19-1.18.41-1.78.57-4,1.13-7.12-.21-8.26-3.53-1.2-3.5.54-6.57,4.72-8a116,116,0,0,1,21.79-5.22c45.85-6,85.11,7.7,117.05,40.94C311.83,123.84,323.64,151,325.84,182c3.05,43-11.58,79.46-43,108.77-21.94,20.47-48.38,31.93-78.37,34.28-43.15,3.39-79.71-11.13-109.36-42.4a125.58,125.58,0,0,1-33.89-71.53c-5.92-45.26,8.05-83.84,40.5-115.78a123.36,123.36,0,0,1,23.57-17.74,17.06,17.06,0,0,1,2-1.05c3.21-1.34,6.3-.44,7.85,2.24A6.11,6.11,0,0,1,133,87c-4.12,2.81-8.33,5.49-12.48,8.25-.6.39-1.47.81-1.24,1.67s1.15.82,1.89.87c6.53.49,12.23,3.19,17.71,6.54,7.13,4.36,14.35,8.57,21.46,13,22.1,13.68,21.79,41.76-.63,54.91-13.87,8.14-27.84,16.13-41.75,24.21-11.06,6.43-16.87,15.92-16.74,28.85q.06,5.8,0,11.61C101.14,244.31,98.08,250,91,252.7c-3,1.13-1.6,2.43-.71,3.86A118.61,118.61,0,0,0,133.61,298c2.83,1.58,5.8,2.9,8.67,4.41,1.84,1,2.72.75,2.67-1.58-.09-4.24-.06-8.48,0-12.73a7.13,7.13,0,0,0-2.48-5.24c-4.34-4.3-8.64-8.65-13-13a20,20,0,0,1-6.27-15.07c.15-12.1,0-24.2.05-36.3,0-11.45,8.82-18.49,20-15.86q29.85,7,59.63,14.32c8.39,2,12.8,7.82,12.88,16.51,0,5.24-.09,10.48,0,15.72a21,21,0,0,1-6.71,16.05c-7.91,7.78-15.65,15.75-23.6,23.49a10.11,10.11,0,0,0-3.38,8.28c.21,4.48.1,9,0,13.47,0,2.06.8,2.85,2.86,2.95,34.15,1.61,64.1-8.7,89.71-31.43A5.61,5.61,0,0,0,275.33,280.91ZM71.91,195a87.87,87.87,0,0,0,1,13.05A120.4,120.4,0,0,0,80.77,238c1,2.43,2.41,4.16,5.33,3.51,2.7-.59,2.88-2.74,2.87-5,0-3.87-.09-7.74,0-11.6.5-17,7.79-30.12,22.7-38.74,14-8.11,28.09-16.2,42.07-24.4,14.36-8.42,14.5-25.35.3-34.16-7.31-4.53-14.72-8.91-22.09-13.35-14-8.42-28.27-5.43-37.66,8C79.55,143.25,72.11,166.64,71.91,195ZM156.7,295v3.36c0,10.34,0,10.23,10.28,12.45,3,.63,3.5-.42,3.45-3-.1-4.36.12-8.73-.06-13.09a16.71,16.71,0,0,1,5.5-13.33c8.21-8,16.22-16.22,24.38-24.27a10.13,10.13,0,0,0,3.31-8c-.15-4.85-.17-9.72,0-14.58.13-3.6-1.27-5.42-4.85-6.26-19-4.47-38-9.13-57.05-13.68-4.71-1.12-6.58.36-6.63,5.22q-.1,11.4,0,22.81c.17,19-2.16,13.61,11.07,26.4C153.69,276.37,159,283.9,156.7,295Z"/><path class="cls-1" d="M207.42,135.77c-2.49,0-5,0-7.47,0a17.49,17.49,0,0,1-17.41-17.33,17.72,17.72,0,0,1,17-17.52c5.47-.19,11-.24,16.43,0,9.46.44,17.05,8.53,16.86,17.62a17.45,17.45,0,0,1-17.53,17.21C212.65,135.81,210,135.78,207.42,135.77Zm.23-11.82v0a60,60,0,0,0,7.82-.07c3-.39,5.06-2.1,5.07-5.43,0-3-2.17-5.16-5.58-5.24q-7.26-.18-14.54,0c-3.49.09-5.56,2.14-5.59,5.19s2,5.26,5.36,5.55C202.66,124.11,205.16,124,207.65,124Z"/></svg>