<?xml version="1.0" encoding="utf-8"?>
<!-- Generator: Adobe Illustrator 25.4.1, SVG Export Plug-In . SVG Version: 6.00 Build 0)  -->
<svg version="1.1" id="Capa_1" xmlns="http://www.w3.org/2000/svg" xmlns:xlink="http://www.w3.org/1999/xlink" x="0px" y="0px"
	 viewBox="0 0 384 291.3" style="enable-background:new 0 0 384 291.3;" xml:space="preserve">
<style type="text/css">
	.st0{fill:#FFFFFF;}
</style>
<g>
	<g>
		<path class="st0" d="M193,14c22.3,0,40.5,18.2,40.5,40.5c0,22.3-18.2,40.5-40.5,40.5s-40.5-18.2-40.5-40.5
			C152.5,32.2,170.7,14,193,14 M193,0c-30.1,0-54.5,24.4-54.5,54.5s24.4,54.5,54.5,54.5s54.5-24.4,54.5-54.5S223.1,0,193,0L193,0z"
			/>
	</g>
	<g>
		<path class="st0" d="M193,239.3c10.5,0,19,8.5,19,19c0,10.5-8.5,19-19,19s-19-8.5-19-19C173.9,247.8,182.5,239.3,193,239.3
			 M193,225.3c-18.2,0-33,14.8-33,33c0,18.2,14.8,33,33,33s33-14.8,33-33C226,240.1,211.2,225.3,193,225.3L193,225.3z"/>
	</g>
	<g>
		<path class="st0" d="M33,239.3c10.5,0,19,8.5,19,19c0,10.5-8.5,19-19,19s-19-8.5-19-19C14,247.8,22.5,239.3,33,239.3 M33,225.3
			c-18.2,0-33,14.8-33,33c0,18.2,14.8,33,33,33c18.2,0,33-14.8,33-33C66.1,240.1,51.3,225.3,33,225.3L33,225.3z"/>
	</g>
	<g>
		<path class="st0" d="M351,239.3c10.5,0,19,8.5,19,19c0,10.5-8.5,19-19,19c-10.5,0-19-8.5-19-19C331.9,247.8,340.5,239.3,351,239.3
			 M351,225.3c-18.2,0-33,14.8-33,33c0,18.2,14.8,33,33,33c18.2,0,33-14.8,33-33C384,240.1,369.2,225.3,351,225.3L351,225.3z"/>
	</g>
	<g>
		<polygon class="st0" points="359.8,236.7 345.8,236.7 345.8,173.8 40,173.8 40,234.1 26,234.1 26,159.8 359.8,159.8 		"/>
	</g>
	<g>
		<rect x="186" y="103.3" class="st0" width="14" height="129.2"/>
	</g>
</g>
</svg>
