<svg id="Capa_1" data-name="Capa 1" xmlns="http://www.w3.org/2000/svg" viewBox="0 0 296.99 45.61"><defs><style>.cls-1{fill:#fff;}</style></defs><path class="cls-1" d="M0,10.38s7.33,7.08,9.47,26c0,0,19.71-11,25.09-9.31L31.07,4.7S29.56-1,22.36.15,5.68,5.33,0,10.38Z"/><path class="cls-1" d="M32.23,5.43s7.62,2,12.8-2.56c0,0,1.9,18.56,10.11,26.71,0,0-8.53.38-13.39,2.72,0,0-3.81,1.94-5.08-1.72C36,28.64,32.23,5.43,32.23,5.43Z"/><path class="cls-1" d="M111.15,20.52c0,4.07,0,8.13,0,12.2,0,3,.17,2.77-2.64,3.46-3.53.86-7.17,1.14-10.57-.74a9.07,9.07,0,0,1-4.61-7.26,19.94,19.94,0,0,1,0-5.51c.49-3.16,1.72-6,4.82-7.54a9.27,9.27,0,0,1,6.06-1.08c1.67.34,2,0,2-1.77,0-1.39,0-2.79,0-4.19,0-1.72.39-2.07,2.07-2.4,2.78-.54,2.78-.54,2.78,2.24C111.14,12.13,111.15,16.32,111.15,20.52Zm-4.83,4.81h0V22.09c0-1.08,0-2.16,0-3.24-.06-1.52-.47-1.9-2-2a5.37,5.37,0,0,0-5.58,4,15.11,15.11,0,0,0-.06,9,4.93,4.93,0,0,0,5.81,3.72c1.41-.19,1.75-.51,1.78-1.95C106.35,29.52,106.32,27.43,106.32,25.33Z"/><path class="cls-1" d="M135.78,30.57c0-4.4,0-8.79,0-13.18,0-2.12.13-2.18,2.09-2.78a17.31,17.31,0,0,1,7.17-.66,9.15,9.15,0,0,1,7.84,5.82,12.41,12.41,0,0,1,.8,4.84,15.27,15.27,0,0,1-.83,6,9.14,9.14,0,0,1-7.89,6,22.29,22.29,0,0,1-3.06,0c-.87,0-1.27.41-1.27,1.28,0,1.65-.06,3.31,0,5A1.83,1.83,0,0,1,139.22,45c-.19,0-.36.12-.55.18-2.52.82-2.89.56-2.9-2V30.57ZM140.66,25h0c0,2.22,0,4.45,0,6.68,0,.83,0,1.68,1.15,1.9A5.3,5.3,0,0,0,148.15,30a16.82,16.82,0,0,0,.17-9,5.1,5.1,0,0,0-6-4c-1.39.18-1.61.38-1.62,1.81C140.64,20.83,140.66,22.93,140.66,25Z"/><path class="cls-1" d="M216.78,20.49c0,4.33,0,8.66,0,13,0,1.81-.07,1.71-1.68,2.4-2.89,1.24-5.92,1.06-8.83.61a8.17,8.17,0,0,1-6.44-5.37,15.2,15.2,0,0,1,.61-12.57c1.44-3.07,5.5-5,9.15-4.6.31,0,.62.14.94.16,1.17.07,1.49-.18,1.53-1.38.06-1.52,0-3.05,0-4.58,0-1.7.25-1.95,1.86-2.38,2.67-.71,2.85-.58,2.86,2.12v12.6Zm-4.71,4.8h0c0-2,0-4.07,0-6.11,0-1.84-.61-2.36-2.45-2.31a5.49,5.49,0,0,0-5,3.52,13.55,13.55,0,0,0-.23,9.31,5.07,5.07,0,0,0,5.2,3.93c2,0,2.45-.33,2.49-2.42S212.07,27.27,212.07,25.29Z"/><path class="cls-1" d="M241.53,25.68c0-2.8,0-5.6,0-8.4,0-1.82.34-2.13,2.1-2.6a25,25,0,0,1,8.12-.78,7.94,7.94,0,0,1,5.31,2.26,5,5,0,0,1,1.63,3.54c0,5,0,10.06,0,15.09,0,1.32-.25,1.47-1.61,1.55-3.23.17-3.23.17-3.23-3,0-4,0-8,0-12,0-3.62-3.25-5.51-6.53-3.92-1,.48-.9,1.28-.9,2.1V33.29c0,3.21,0,3.24-3.16,3-1.53-.1-1.7-.25-1.72-1.86,0-2.93,0-5.86,0-8.79Z"/><path class="cls-1" d="M178.17,25.85c0-2.87,0-5.73,0-8.59,0-1.53.45-2.22,1.88-2.45a39.2,39.2,0,0,1,6.95-1A13,13,0,0,1,192.35,15a5.48,5.48,0,0,1,3.2,5.07c.14,4.9.07,9.8,0,14.7,0,1.41-.18,1.5-1.55,1.58-3.28.19-3.32.15-3.33-3.1,0-3.88,0-7.77,0-11.65,0-3.23-2-4.95-5.15-4.64-1.76.17-2.38.77-2.43,2.53-.05,2,0,4.07,0,6.11,0,2.93,0,5.86,0,8.79,0,1.91-.09,2-1.9,2-3,0-3,0-3.05-3.05q0-3.73,0-7.45Z"/><path class="cls-1" d="M72.58,26c-.12-2.77.14-5.82-.15-8.87A1.86,1.86,0,0,1,73.87,15a20.75,20.75,0,0,1,10-1c3.37.61,6,2.14,6,6.63,0,4.65,0,9.29,0,13.93,0,1.65-.09,1.7-1.72,1.76-3.25.1-3.25.1-3.25-3.18V22.27c0-.31,0-.63,0-.95-.11-1.24.1-2.68-1.16-3.43a5.73,5.73,0,0,0-4.93-.67,1.53,1.53,0,0,0-1.25,1.64c0,1.4,0,2.8,0,4.19,0,3.69,0,7.38,0,11.07,0,2.14-.06,2.18-2.08,2.22-2.83.06-2.83.06-2.83-2.84Z"/><path class="cls-1" d="M168.35,26.46c-1.72,0-3.44,0-5.16,0s-1.83.44-1.45,2c.91,3.83,3.73,5.57,8,4.7a11.71,11.71,0,0,0,3.12-.83c.64-.32,1,0,1,.64.12,2.15.08,2.62-1.84,3.09a15.82,15.82,0,0,1-9.72-.2,7.39,7.39,0,0,1-4.09-3.83c-2.26-4.77-2.37-9.62.4-14.22a8.24,8.24,0,0,1,6.6-3.94c6.7-.61,9.24,4.59,9.74,9.36.34,3.15.2,3.2-3,3.19h-3.63Zm-2.45-2.72v0h3.23c.9,0,1.28-.46,1.19-1.31A7.38,7.38,0,0,0,168.69,18a3.61,3.61,0,0,0-4.95-.4c-1.44,1.09-1.81,2.7-2.28,4.27-.33,1.11.06,1.72,1.21,1.82S164.82,23.74,165.9,23.74Z"/><path class="cls-1" d="M290.47,26.49c-1.65,0-3.31,0-5,0s-2,.62-1.63,2.34a6.37,6.37,0,0,0,7.92,4.41c1-.24,2-.53,2.92-.86s1.13.07,1.18.88c.14,1.95-.47,3-3,3.24-2.86.31-5.85.72-8.6-.72A9.27,9.27,0,0,1,279.05,29a18.51,18.51,0,0,1,.06-7.56A9.66,9.66,0,0,1,288,13.84c4.59-.13,6.92,2.63,8.25,6a13.31,13.31,0,0,1,.74,5.23c0,1-.39,1.38-1.36,1.37-1.72,0-3.44,0-5.15,0Zm-2.56-2.84v.08c.95,0,1.91,0,2.86,0,1.4,0,1.62-.3,1.61-1.72a5.61,5.61,0,0,0-2-4.34,3.52,3.52,0,0,0-4.33-.05c-1.83,1.25-2.11,3.24-2.66,5.09-.2.65.44.91.94.93C285.5,23.69,286.7,23.65,287.91,23.65Z"/><path class="cls-1" d="M125.79,26.46c-1.72,0-3.44,0-5.16,0-1.47,0-1.77.44-1.48,1.9.73,3.75,4.37,5.85,8.36,4.8.92-.24,1.84-.52,2.75-.8.71-.23,1.05,0,1.13.76.2,1.92-.76,3.17-3.11,3.44a24.63,24.63,0,0,1-6.86-.05c-3.2-.54-6.13-3.77-6.77-7.06a22.06,22.06,0,0,1,0-8.53c.75-3.88,4.66-6.81,8.66-7.08s7.06,2.63,8.22,5.61a20.37,20.37,0,0,1,.91,5.61c.08.94-.36,1.41-1.34,1.39-1.78,0-3.57,0-5.35,0Zm-2.35-2.7V23.7c1.14,0,2.28,0,3.42,0,.6,0,1.15-.27,1.07-1a8.22,8.22,0,0,0-1.37-4.27,3.73,3.73,0,0,0-4.93-.91,6.28,6.28,0,0,0-2.54,4.46c-.25,1.48,0,1.78,1.5,1.82C121.54,23.78,122.49,23.76,123.44,23.76Z"/><path class="cls-1" d="M231.73,26.45c-1.78,0-3.57,0-5.35,0-1.36,0-1.49.23-1.41,1.61a6,6,0,0,0,6.42,5.38,19.54,19.54,0,0,0,4.44-1.06c1.28-.45,1.39-.34,1.43,1,.07,1.8.05,1.94-1.63,2.51a13.61,13.61,0,0,1-9.85-.05c-3.7-1.55-5.51-4.54-5.68-8.51a42.86,42.86,0,0,1,0-4.39c.42-6.69,6.82-11,13.1-8.33A6.28,6.28,0,0,1,236,17a12.74,12.74,0,0,1,2.14,8.51c-.06.8-.38,1.07-1.21,1-1.71-.07-3.43,0-5.15,0Zm-2.61-2.73h0c1.07,0,2.15,0,3.23,0,.85,0,1.21-.48,1.22-1.34a7.16,7.16,0,0,0-1-3.61,3.7,3.7,0,0,0-4.75-1.52,6,6,0,0,0-3.06,5.5,1,1,0,0,0,1.16,1C227,23.73,228,23.72,229.12,23.72Z"/><path class="cls-1" d="M68.47,20.92c0,4.39,0,8.77,0,13.16,0,2.25,0,2.27-2.19,2.3-3.12,0-3.12,0-3.12-3.13q0-12.19,0-24.4c0-.93-.24-2,.75-2.6a7.53,7.53,0,0,1,3.86-.81c.43,0,.61.4.64.81s0,1,0,1.52q0,6.59,0,13.15Z"/><path class="cls-1" d="M272.25,36.66a8.47,8.47,0,0,1-7.75-3.23,9.46,9.46,0,0,1-2-4.66C261.6,24,262,19.53,265.89,16a8,8,0,0,1,4.61-2.06,11.07,11.07,0,0,1,5.63.57,2.43,2.43,0,0,1,1.19,3.06.56.56,0,0,1-.63.3c-.37-.08-.74-.19-1.11-.28-3.91-.93-6.25.16-7.76,3.87a10,10,0,0,0,.86,9.31A6,6,0,0,0,275.4,33c1.93-.67,2.3-.27,2,1.76a1.71,1.71,0,0,1-1.24,1.51A11.48,11.48,0,0,1,272.25,36.66Z"/></svg>