<svg xmlns="http://www.w3.org/2000/svg" xmlns:xlink="http://www.w3.org/1999/xlink" viewBox="0 0 3067.23 1832.21"><defs><style>.cls-1{fill:url(#Degradado_sin_nombre_11);}.cls-2{fill:url(#Degradado_sin_nombre_4);}.cls-3{fill:url(#Degradado_sin_nombre_25);}.cls-4{fill:url(#Degradado_sin_nombre_16);}.cls-5{fill:url(#Degradado_sin_nombre_2);}.cls-6{fill:#dc1e2c;}.cls-7{fill:#fff;}</style><linearGradient id="Degradado_sin_nombre_11" x1="1302.65" y1="162.26" x2="1290.49" y2="1037.73" gradientUnits="userSpaceOnUse"><stop offset="0" stop-color="#e11f2b"/><stop offset="1" stop-color="#b72f23"/></linearGradient><linearGradient id="Degradado_sin_nombre_4" x1="1248.22" y1="287.18" x2="1608.14" y2="1079.97" gradientUnits="userSpaceOnUse"><stop offset="0" stop-color="#eb6461"/><stop offset="1" stop-color="#e53726"/></linearGradient><linearGradient id="Degradado_sin_nombre_25" x1="1522.53" y1="216.23" x2="1533.48" y2="779.81" gradientUnits="userSpaceOnUse"><stop offset="0.1" stop-color="#160907"/><stop offset="0.22" stop-color="#2d0f0b"/><stop offset="0.48" stop-color="#681f15"/><stop offset="0.68" stop-color="#9a2d1e"/></linearGradient><linearGradient id="Degradado_sin_nombre_16" x1="1853.23" y1="1049.67" x2="1969.96" y2="283.63" gradientUnits="userSpaceOnUse"><stop offset="0" stop-color="#160907"/><stop offset="0.2" stop-color="#31100c"/><stop offset="0.62" stop-color="#762318"/><stop offset="0.83" stop-color="#9a2d1e"/></linearGradient><radialGradient id="Degradado_sin_nombre_2" cx="1898.39" cy="102.64" r="841.57" gradientUnits="userSpaceOnUse"><stop offset="0" stop-color="#160907"/><stop offset="0.16" stop-color="#1b0a08"/><stop offset="0.34" stop-color="#280e0a"/><stop offset="0.52" stop-color="#3f140e"/><stop offset="0.72" stop-color="#5e1d14"/><stop offset="0.92" stop-color="#87281b"/><stop offset="1" stop-color="#9a2d1e"/></radialGradient></defs><g id="Capa_5" data-name="Capa 5"><path class="cls-1" d="M951.11,642.08c0-314.08,254.61-568.69,568.69-568.69a568.73,568.73,0,0,1,155.45,21.69L1720,46.2A604.73,604.73,0,0,0,1487.57,0c-335.1,0-606.75,271.65-606.75,606.75s271.65,606.75,606.75,606.75a609.64,609.64,0,0,0,68.62-4c-12,.76-24.15,1.28-36.39,1.28C1205.72,1210.76,951.11,956.15,951.11,642.08Z"/><path class="cls-2" d="M1589.15,1061.68A465.93,465.93,0,0,1,1487.57,1073c-257.07,0-466.21-209.14-466.21-466.21s209.14-466.21,466.21-466.21a464.4,464.4,0,0,1,129.25,18.37l58.43-63.83A568.73,568.73,0,0,0,1519.8,73.39c-314.08,0-568.69,254.61-568.69,568.69s254.61,568.68,568.69,568.68c12.24,0,24.34-.52,36.39-1.28a604,604,0,0,0,145.71-35Z"/><polygon class="cls-3" points="1488.48 628.37 1203.04 379.4 1480.27 703.15 1846.88 302.8 1812.28 272.74 1488.48 628.37"/><path class="cls-4" d="M1807.66,98.19c86.24,62.49,161.48,160.35,198,259.82,59.19,161.15,47.31,349.21-46.61,494.85-49.8,77.22-119,140.44-196.69,188.84-5.54,3.45-11.18,6.75-16.8,10.07l77.49,80.64c176-110.12,284.88-310.42,279.16-532.95C2096.66,383,1981,201.15,1807.66,98.19Z"/><path class="cls-5" d="M2005.67,358c-36.53-99.46-111.77-197.33-198-259.81L1709.6,206.42l.13.08-1.34,1.48-229,250.76-167.8-175.09L1203,379.4l285.44,249,320.49-352c88.37,81.75,143.12,197.54,146.5,328.81,4.72,183.76-84.38,338.25-237.31,418.07l27.41,28.51c5.62-3.32,11.26-6.62,16.8-10.07,77.72-48.4,146.89-111.62,196.69-188.84C2053,707.22,2064.86,519.16,2005.67,358Z"/><path class="cls-6" d="M324.92,1538.37a157.83,157.83,0,0,1-12.05,61.44,153.46,153.46,0,0,1-35.1,51.29,166,166,0,0,1-115.31,46.72A164.86,164.86,0,0,1,47.57,1651.1,154.7,154.7,0,0,1,0,1538.37a157.32,157.32,0,0,1,12.15-61.57,155.34,155.34,0,0,1,35.42-51.6A161.65,161.65,0,0,1,100.34,1391a167.18,167.18,0,0,1,124.54,0,161.64,161.64,0,0,1,52.89,34.25,153.26,153.26,0,0,1,35.1,51.39A159.3,159.3,0,0,1,324.92,1538.37Zm-162.46,125.4a121.52,121.52,0,0,0,47.47-9.46,126,126,0,0,0,40.63-27.5,122.93,122.93,0,0,0,36.57-88.44,126.73,126.73,0,0,0-9.46-48.58,123.84,123.84,0,0,0-115.21-77.24,124.24,124.24,0,0,0-48,9.35,119,119,0,0,0-40.1,27.18A126.58,126.58,0,0,0,115,1654.43,122,122,0,0,0,162.46,1663.77Z"/><path class="cls-6" d="M525.47,1701.54,431,1483.13l-38.21,206.59H357.5l61.67-316,106.3,251.42,106.3-251.42,61.67,316H658.13l-38.62-206.59Z"/><path class="cls-6" d="M740.16,1689.72v-304H900.44v33H776.28V1506H900.44v33.64H776.28v116.47H900.44v33.64Z"/><path class="cls-6" d="M1128.82,1532.77h125.4v10.17q0,71.82-40.69,113.35t-111.07,41.53a177.21,177.21,0,0,1-40.8-4.57,148,148,0,0,1-35.82-13.29q-37.37-20.57-57.72-56.78t-20.34-82.33q0-38,12.15-68.6a149.38,149.38,0,0,1,36.64-53.89,136.94,136.94,0,0,1,47.75-29.48q27.2-10,60.21-10,43.79,0,76,15.88t53.36,47.85l-30.31,24.29q-16.41-27.6-40.91-41.42t-56.89-13.8q-52.93,0-85.94,35.71t-33,93.42q0,54.4,33.52,89.29t85.44,34.87q45.68,0,76.1-27.71t33.73-72.16h-86.78Z"/><path class="cls-6" d="M1403.9,1373.73l138.28,316h-39.24l-39.45-93.22H1344.73l-39.45,93.22h-39.23Zm0,79.92-48.38,111.9h96.75Z"/><path class="cls-7" d="M1733.2,1532.77h125.4v10.17q0,71.82-40.69,113.35t-111.07,41.53a177.21,177.21,0,0,1-40.8-4.57,147.87,147.87,0,0,1-35.82-13.29q-37.37-20.57-57.72-56.78t-20.34-82.33q0-38,12.15-68.6a149.38,149.38,0,0,1,36.64-53.89,136.94,136.94,0,0,1,47.75-29.48q27.19-10,60.2-10,43.8,0,76,15.88t53.36,47.85L1808,1466.94q-16.41-27.6-40.91-41.42t-56.89-13.8q-52.94,0-85.94,35.71t-33,93.42q0,54.4,33.52,89.29t85.44,34.87q45.67,0,76.1-27.71t33.73-72.16H1733.2Z"/><path class="cls-7" d="M1912.16,1689.72v-304h71.41q30.54,0,44.75,3.42a66.32,66.32,0,0,1,25,11.73q13.48,10.6,21,28.36t7.49,39.33q0,37.37-20.87,56.8t-61.14,19.4h-6.45l116.06,144.92h-45.88L1952.64,1544.8h-5.19v144.92Zm35.29-273.45V1518h27.62q42.33,0,56.67-10.91t14.32-38.11q0-29.27-14.74-41t-56.25-11.74Z"/><path class="cls-7" d="M2450.72,1538.37a157.83,157.83,0,0,1-12,61.44,153.46,153.46,0,0,1-35.1,51.29,165.07,165.07,0,0,1-230.2,0,154.7,154.7,0,0,1-47.57-112.73A157.32,157.32,0,0,1,2138,1476.8a155.34,155.34,0,0,1,35.42-51.6,161.65,161.65,0,0,1,52.77-34.25,167.18,167.18,0,0,1,124.54,0,161.64,161.64,0,0,1,52.89,34.25,153.26,153.26,0,0,1,35.1,51.39A159.3,159.3,0,0,1,2450.72,1538.37Zm-162.46,125.4a121.52,121.52,0,0,0,47.47-9.46,126,126,0,0,0,40.63-27.5,122.93,122.93,0,0,0,36.57-88.44,126.73,126.73,0,0,0-9.46-48.58,123.84,123.84,0,0,0-115.21-77.24,124.24,124.24,0,0,0-48,9.35,119,119,0,0,0-40.1,27.18,126.58,126.58,0,0,0,40.61,205.35A122,122,0,0,0,2288.26,1663.77Z"/><path class="cls-7" d="M2508.44,1385.76H2545V1574.9q0,46.11,19.61,67.68t61.57,21.61q41.94,0,61.56-21.61t19.61-67.68V1385.76h36.75V1574.9q0,61.68-29.38,92.29t-88.54,30.63q-59,0-88.34-30.63t-29.39-92.29Z"/><path class="cls-7" d="M2851.22,1553.32v136.4h-35.29v-304h63.74q33.42,0,49.2,3.53a76.94,76.94,0,0,1,27.41,11.62q14.52,10.41,22.73,28.45t8.2,40.06q0,22-8.2,40.09T2956.28,1538a74.71,74.71,0,0,1-27.32,11.83q-15.67,3.53-49.29,3.54h-28.45Zm0-32.81h18.28q46.5,0,62.58-10.91t16.1-38.09q0-29.07-16.51-40.91t-62.17-11.83h-18.28Z"/><path class="cls-7" d="M2932.14,1647.81a25.67,25.67,0,0,1,11.09,8.35,20.52,20.52,0,0,1,3.74,12.33q0,10.41-6.61,16.77t-17.56,6.36q-8.91,0-15-4.55a22.6,22.6,0,0,1-8.14-13l8.14-4c1.11,4.57,2.91,8,5.45,10.38a13.41,13.41,0,0,0,9.5,3.53q6.76,0,10.94-3.89a13.23,13.23,0,0,0,4.17-10.13,13.89,13.89,0,0,0-2.91-8.78,21.91,21.91,0,0,0-8.8-6.32L2917,1651q-7.5-3.14-11.2-8.09a19.24,19.24,0,0,1-3.69-11.84,17,17,0,0,1,6-13.31q6-5.25,15.27-5.25a23.07,23.07,0,0,1,11.77,2.88,19.64,19.64,0,0,1,7.76,8.5l-7.42,4.75a19.5,19.5,0,0,0-5.68-6.52,12.29,12.29,0,0,0-7.11-2.14,11.42,11.42,0,0,0-8.27,3.1,11.14,11.14,0,0,0-.75,14.83,20.5,20.5,0,0,0,7.69,5.21Z"/><path class="cls-7" d="M2982.81,1611.28l34.33,78.44h-9.76l-9.77-23.15h-29.5l-9.78,23.15h-9.76Zm0,19.83-12,27.79h24Z"/><path class="cls-7" d="M3052.39,1647.81a25.67,25.67,0,0,1,11.09,8.35,20.46,20.46,0,0,1,3.75,12.33q0,10.41-6.62,16.77t-17.56,6.36q-8.91,0-15-4.55a22.65,22.65,0,0,1-8.14-13l8.14-4q1.67,6.86,5.45,10.38a13.41,13.41,0,0,0,9.5,3.53q6.76,0,10.94-3.89a13.23,13.23,0,0,0,4.17-10.13,13.84,13.84,0,0,0-2.91-8.78,21.91,21.91,0,0,0-8.8-6.32l-9.17-3.93q-7.52-3.14-11.21-8.09a19.23,19.23,0,0,1-3.68-11.84,17,17,0,0,1,6-13.31q6-5.25,15.27-5.25a23.07,23.07,0,0,1,11.77,2.88,19.72,19.72,0,0,1,7.77,8.5l-7.43,4.75a19.28,19.28,0,0,0-5.68-6.52,12.29,12.29,0,0,0-7.11-2.14,11.42,11.42,0,0,0-8.27,3.1,11.17,11.17,0,0,0-.75,14.83,20.5,20.5,0,0,0,7.69,5.21Z"/><path class="cls-7" d="M885.21,1829.22v-68h-21.7v-8.69H916v8.69H894.44v68Z"/><path class="cls-7" d="M926.2,1829.22v-76.71h40.44v8.33H935.3v22h31.34v8.5H935.3v29.38h31.34v8.5Z"/><path class="cls-7" d="M1044.36,1770.84a36.9,36.9,0,0,0-11.75-8.81,32.4,32.4,0,0,0-13.78-2.86,29.87,29.87,0,0,0-11.86,2.46,30.83,30.83,0,0,0-16.64,17,33.88,33.88,0,0,0-2.2,12.45,35,35,0,0,0,1.31,9.85,28.12,28.12,0,0,0,3.93,8.27,32,32,0,0,0,11.34,10.1,31.78,31.78,0,0,0,28.16.49,35.66,35.66,0,0,0,11.49-9.06v12.11a43.66,43.66,0,0,1-12.29,6.26,44.14,44.14,0,0,1-13.6,2.12,39.39,39.39,0,0,1-11.84-1.8,40.38,40.38,0,0,1-10.79-5.29,38.82,38.82,0,0,1-17.24-33,42.21,42.21,0,0,1,2.95-16.11,38.73,38.73,0,0,1,9-13.18,39.86,39.86,0,0,1,13-8.46,43.63,43.63,0,0,1,28.47-.79,47.57,47.57,0,0,1,12.31,6.26Z"/><path class="cls-7" d="M1059.93,1829.22v-76.71h9.1V1782h40.78v-29.5h9.27v76.71h-9.27V1790.7H1069v38.52Z"/><path class="cls-7" d="M1137.43,1829.22v-79.75l56.12,61.31v-58.27h8.68v79.7l-56.12-60.63v57.64Z"/><path class="cls-7" d="M1299.08,1791a39.76,39.76,0,0,1-3,15.51,39,39,0,0,1-8.85,13,41.67,41.67,0,0,1-58.12,0,39.7,39.7,0,0,1,0-57,41,41,0,0,1,13.33-8.65,42.29,42.29,0,0,1,31.44,0,41,41,0,0,1,13.35,8.65,38.9,38.9,0,0,1,8.85,13A40.16,40.16,0,0,1,1299.08,1791Zm-41,31.66a30.86,30.86,0,0,0,12-2.39,31.91,31.91,0,0,0,10.25-6.94,31,31,0,0,0,9.23-22.33,31.81,31.81,0,0,0-2.39-12.26,31.27,31.27,0,0,0-29.07-19.5,31.36,31.36,0,0,0-12.12,2.37,30.07,30.07,0,0,0-10.12,6.86,31.06,31.06,0,0,0-6.86,10.33,31.72,31.72,0,0,0-2.37,12.2,31.13,31.13,0,0,0,2.33,12,32.52,32.52,0,0,0,17.15,17.24A30.64,30.64,0,0,0,1258.07,1822.68Z"/><path class="cls-7" d="M1314,1829.22v-76.71h9.1v68h29v8.7Z"/><path class="cls-7" d="M1437.57,1791a39.76,39.76,0,0,1-3,15.51,39,39,0,0,1-8.85,13,41.67,41.67,0,0,1-58.12,0,39.7,39.7,0,0,1,0-57,40.92,40.92,0,0,1,13.33-8.65,42.29,42.29,0,0,1,31.44,0,41,41,0,0,1,13.35,8.65,38.9,38.9,0,0,1,8.85,13A40.16,40.16,0,0,1,1437.57,1791Zm-41,31.66a30.86,30.86,0,0,0,12-2.39,31.91,31.91,0,0,0,10.25-6.94A31,31,0,0,0,1428,1791a31.81,31.81,0,0,0-2.39-12.26,31.27,31.27,0,0,0-29.07-19.5,31.32,31.32,0,0,0-12.12,2.37,30,30,0,0,0-10.12,6.86,31.06,31.06,0,0,0-6.86,10.33,31.72,31.72,0,0,0-2.37,12.2,31.13,31.13,0,0,0,2.33,12,32.52,32.52,0,0,0,17.15,17.24A30.64,30.64,0,0,0,1396.56,1822.68Z"/><path class="cls-7" d="M1494.63,1789.61h31.66v2.57q0,18.1-10.28,28.6t-28,10.49a44,44,0,0,1-10.28-1.17,37.71,37.71,0,0,1-9-3.34,36.47,36.47,0,0,1-14.57-14.33,41.63,41.63,0,0,1-5.14-20.77,46.47,46.47,0,0,1,3.07-17.32,37.5,37.5,0,0,1,9.25-13.61,35,35,0,0,1,12-7.45,44,44,0,0,1,15.19-2.5,42.94,42.94,0,0,1,19.18,4,34,34,0,0,1,13.46,12.07l-7.63,6.13a28.23,28.23,0,0,0-10.35-10.46,28.78,28.78,0,0,0-14.34-3.47q-13.36,0-21.7,9t-8.33,23.6q0,13.69,8.46,22.52t21.57,8.8q11.54,0,19.2-7t8.51-18.2h-21.9Z"/><path class="cls-7" d="M1554.79,1829.22v-35.1l-26-41.61h10.53l20.06,33.26,20-33.26h10.49l-25.95,41.61v35.1Z"/><path class="cls-7" d="M1679.67,1829.22l-7.39-8.91a36.33,36.33,0,0,1-10.9,7.73,30.19,30.19,0,0,1-12.43,2.59q-10.15,0-16.45-6c-4.2-4-6.28-9.25-6.28-15.68a20.78,20.78,0,0,1,4.36-12.69c2.93-3.91,7.33-7.54,13.24-10.94l-3.14-3.5a21.8,21.8,0,0,1-3.73-6.09,18,18,0,0,1-1.2-6.69,15,15,0,0,1,4.91-11.62c3.25-3,7.5-4.47,12.69-4.47s9.49,1.46,12.65,4.4,4.76,6.82,4.76,11.69a17,17,0,0,1-3.33,10.23q-3.33,4.59-10.62,9l16.71,20.2c1.41-1.54,2.86-3.31,4.36-5.29s3.09-4.19,4.76-6.67l5.62,6.13a71.88,71.88,0,0,1-4.7,6.37,62.89,62.89,0,0,1-5.11,5.53l12.27,14.72Zm-12.48-15.13-18.54-22.43-2.26,1.5c-4.19,2.88-7.09,5.45-8.68,7.77a13.32,13.32,0,0,0-2.37,7.7,13.79,13.79,0,0,0,4,10.12,13.56,13.56,0,0,0,10,4,19.54,19.54,0,0,0,8.59-2.08A41.11,41.11,0,0,0,1667.19,1814.09Zm-15.35-31.87,3.35-1.94a16.71,16.71,0,0,0,5.38-5,10.9,10.9,0,0,0,1.8-6.07,8.4,8.4,0,0,0-2.46-6.32,9,9,0,0,0-6.56-2.39,8.8,8.8,0,0,0-6.49,2.52,8.67,8.67,0,0,0-2.52,6.39,10.44,10.44,0,0,0,.72,3.78,11.39,11.39,0,0,0,2.06,3.41Z"/><path class="cls-7" d="M1762.3,1786.62a25.9,25.9,0,0,1,11.3,8.5,20.92,20.92,0,0,1,3.8,12.52c0,7-2.26,12.73-6.73,17s-10.46,6.47-17.85,6.47q-9.08,0-15.21-4.65a22.85,22.85,0,0,1-8.27-13.16l8.27-4.1c1.13,4.65,3,8.16,5.53,10.57a13.67,13.67,0,0,0,9.68,3.59c4.57,0,8.28-1.31,11.1-4a13.37,13.37,0,0,0,4.25-10.28,14.1,14.1,0,0,0-3-9,22.67,22.67,0,0,0-8.93-6.41l-9.34-4c-5.1-2.12-8.89-4.87-11.39-8.21a19.69,19.69,0,0,1-3.75-12.07,17.29,17.29,0,0,1,6.08-13.52q6.09-5.33,15.51-5.34a23.44,23.44,0,0,1,12,2.93,20.09,20.09,0,0,1,7.9,8.65l-7.56,4.81a19.81,19.81,0,0,0-5.75-6.61,12.61,12.61,0,0,0-7.24-2.18,11.64,11.64,0,0,0-8.4,3.14,11.31,11.31,0,0,0-.77,15.09,20.86,20.86,0,0,0,7.82,5.3Z"/><path class="cls-7" d="M1789.54,1829.22v-76.71H1830v8.33h-31.34v22H1830v8.5h-31.34v29.38H1830v8.5Z"/><path class="cls-7" d="M1845.46,1829.22v-76.71h18a52.08,52.08,0,0,1,11.3.87,16.58,16.58,0,0,1,6.32,2.95,17.57,17.57,0,0,1,5.28,7.16,25.26,25.26,0,0,1,1.9,9.93q0,9.42-5.29,14.33c-3.49,3.27-8.64,4.9-15.41,4.9h-1.64l29.29,36.57h-11.58l-28-36.57h-1.32v36.57Zm8.89-69v25.68h7c7.12,0,11.9-.92,14.3-2.74s3.61-5,3.61-9.63q0-7.38-3.72-10.34c-2.48-2-7.2-3-14.19-3Z"/><path class="cls-7" d="M1924.8,1832.21l-32.45-79.7h9.91l22.54,58.68,22.41-58.68h9.85Z"/><path class="cls-7" d="M1965.24,1829.22v-76.71h9.12v76.71Z"/><path class="cls-7" d="M2055.16,1770.84a36.9,36.9,0,0,0-11.75-8.81,32.4,32.4,0,0,0-13.78-2.86,29.87,29.87,0,0,0-11.86,2.46,30.83,30.83,0,0,0-16.64,17,33.88,33.88,0,0,0-2.2,12.45,34.66,34.66,0,0,0,1.32,9.85,27.63,27.63,0,0,0,3.93,8.27,31.87,31.87,0,0,0,11.33,10.1,31.8,31.8,0,0,0,28.17.49,35.73,35.73,0,0,0,11.48-9.06v12.11a43.72,43.72,0,0,1-25.88,8.38,39.45,39.45,0,0,1-11.85-1.8,40.68,40.68,0,0,1-10.79-5.29,38.88,38.88,0,0,1-17.24-33,42.4,42.4,0,0,1,2.95-16.11,38.73,38.73,0,0,1,9-13.18,40,40,0,0,1,13-8.46,43.63,43.63,0,0,1,28.47-.79,47.57,47.57,0,0,1,12.31,6.26Z"/><path class="cls-7" d="M2070.73,1829.22v-76.71h40.44v8.33h-31.34v22h31.34v8.5h-31.34v29.38h31.34v8.5Z"/></g></svg>