<svg id="Capa_1" data-name="Capa 1" xmlns="http://www.w3.org/2000/svg" viewBox="0 0 270.8 50.47"><defs><style>.cls-1{fill:#fff;}</style></defs><path class="cls-1" d="M144,35.3a19.38,19.38,0,0,1-8.71,0c-.9-2.06-1.82-4.16-2.81-6.4a35.6,35.6,0,0,0-12.08-.19c-1.79,2-1.71,4.6-3.41,6.69-9.91,1.45-18.56-.49-24.32-9.87-1.33-2.17-2.83-4.21-6.08-3.37-1.24,4.15.11,8.52-.8,12.93-2.29,1.18-4.67.68-7.53.32-.55-11.36-.17-22.56-.21-34.5C85.5.77,92.8-.23,99.87,1.49c7.42,1.8,9.35,11.55,3.66,16.75a42.39,42.39,0,0,1-4.3,3c2.15,4.71,6.39,6.19,11.43,7.6,4.52-8.85,7.18-18.42,11.19-27.49,2.67-1,5.28-.59,8.51-.32C134.78,12.18,139.28,23.5,144,35.3ZM86.61,14.9c3.92-.47,7.94,1.31,11.14-1.78a4,4,0,0,0-1.3-4.79,19.83,19.83,0,0,0-10.15.19A15.23,15.23,0,0,0,86.61,14.9ZM125.88,12c-1.18,3.51-2.35,5.79-2.76,8.8,2.08,0,3.92.65,5.91-.61A33.43,33.43,0,0,0,125.88,12Z"/><path class="cls-1" d="M44.67,35.62V.79c7.15,0,14.22-.95,21.14.65,5.91,1.36,8.22,7.75,5.28,13-.47.85-1.38,1.46-1.47,2.7,3.76,3.18,5.72,7,3.65,12.12-1.5,3.73-4.2,6.1-8.15,6.25C58.52,35.8,51.9,35.62,44.67,35.62ZM64.8,27.15c.66-1.65.83-3-.38-4.62-3.44-1.88-7.3-1.43-11.4-1-.22,2.42-.55,4.63.5,7C57.42,28.51,61.38,29.87,64.8,27.15ZM62.89,8.3c-3.27-.52-6.57-1.07-9.75.25-.33,1.95-.72,3.55.52,5.45,3.28-.42,6.91,1.05,10-1.36C64.41,11.09,64.31,9.89,62.89,8.3Z"/><path class="cls-1" d="M239.69,35.74A21.24,21.24,0,0,1,223.5,25.6c-1.44-2.25-2.87-4.57-6.36-3.38-.94,4.24.11,8.59-.8,13a16,16,0,0,1-7.22.18V1c7.06,0,14.13-.74,21.13.46,4.19.71,6.44,3.94,7.12,8s-.88,7.12-4.08,9.51c-1,.78-2.45,1.09-3.23,2.45,2.51,4.81,7.23,6.38,12.34,7.78C241.71,31.52,241.44,33.76,239.69,35.74ZM217.15,14.59a26.75,26.75,0,0,0,8.54.21A3.27,3.27,0,0,0,229,11.15a3.09,3.09,0,0,0-3.12-3.25c-2.92-.11-5.93-.76-8.91.69A16.06,16.06,0,0,0,217.15,14.59Z"/><path class="cls-1" d="M185.93,28.36c6,1.17,11.81-.19,17.42.86a6.74,6.74,0,0,1,0,6.18H177.64V1.13H203.2a12.79,12.79,0,0,1,.06,6.15c-5.61,1.2-11.29-.1-16.65.81-1.43,1.69-.92,3.31-.57,5.31,5.09,1.22,10.44,0,15.65.73,1.4,1.84.71,3.82.61,6.2-5.28,1.08-10.79-.14-16.08.8C185.29,23.7,185.64,25.93,185.93,28.36Z"/><path class="cls-1" d="M171.57,11.2c-2.39.92-4.53.65-6.61.55-4.32-5.61-6.56-6.08-11.17-2.35,0,2.55,2.18,2.65,3.77,3.22,2.8,1,5.77,1.55,8.54,2.65,5,2,7.2,5.69,6.77,10.9-.41,4.87-3.19,8.1-8.16,9.47a22.19,22.19,0,0,1-7.9.69c-7.16-.59-10.73-4-12.45-12,2.08-1.71,4.56-1.35,7.3-1.31,1.53,3.54,3.42,6.8,8.24,6,2.45-.39,4.59-.92,4.78-3.93-.82-2.57-3.13-2.81-5.16-3.34a44.15,44.15,0,0,1-8-2.56,9.74,9.74,0,0,1-5.89-9.54c.31-4.23,3.14-7.55,7.56-8.85a18.43,18.43,0,0,1,11.74.24C169.38,2.69,171.43,5.8,171.57,11.2Z"/><path class="cls-1" d="M258.68,35.33c-3.25.34-5.7.66-8.54-.24q-6-16.67-12.13-33.94a23.4,23.4,0,0,1,8.76.21l7.77,22.08c3.54-7.75,4.91-15.21,7.92-22.15a25.52,25.52,0,0,1,8.34-.11C266.68,12.79,262.7,24,258.68,35.33Z"/><path class="cls-1" d="M10.05,19.42s0,18,14,16.67c0,0-12,14.38-23.31.07C.77,36.16-4,25,10.05,19.42Z"/><path class="cls-1" d="M1.05,22.83s2-9.76,13.3-18.19c0,0-3.16,7.68-3,12.41C11.38,17.05,7.31,17.72,1.05,22.83Z"/><path class="cls-1" d="M13.94,16.39S12.8,8.15,19.91,0c0,0,2.93,5.78.85,10.14S13.94,16.39,13.94,16.39Z"/><path class="cls-1" d="M2.66,41.49S22,55,28.62,29.65c0,0,1-9.47-3.79-23.4,0,0,16.68,15,9.76,34.58a17.63,17.63,0,0,1-17.34,9.48C4.56,49.45,2.66,41.49,2.66,41.49Z"/><path class="cls-1" d="M50.23,45.7a2.27,2.27,0,0,1-1,.93,3.7,3.7,0,0,1-1.7.35H46.05v3.4H44.67V42h2.9a3.67,3.67,0,0,1,1.63.33,2.26,2.26,0,0,1,1,.9,2.48,2.48,0,0,1,.33,1.27A2.51,2.51,0,0,1,50.23,45.7Zm-1.49-.2a1.3,1.3,0,0,0,.38-1c0-.92-.52-1.38-1.55-1.38H46.05v2.74h1.52A1.67,1.67,0,0,0,48.74,45.5Z"/><path class="cls-1" d="M59.62,43.11v2.46h2.9v1.12h-2.9v2.57h3.26v1.12H58.25V42h4.63v1.12Z"/><path class="cls-1" d="M76.38,42v1.12H74.15v7.26H72.78V43.12H70.53V42Z"/><path class="cls-1" d="M88.52,50.38,86.59,47h-1v3.35H84.17V42h2.89a3.51,3.51,0,0,1,1.63.34A2.47,2.47,0,0,1,89.55,46a2.42,2.42,0,0,1-1.46.91l2.07,3.47Zm-3-4.45h1.52a1.6,1.6,0,0,0,1.16-.38,1.38,1.38,0,0,0,.4-1,1.35,1.35,0,0,0-.39-1,1.67,1.67,0,0,0-1.17-.37H85.54Z"/><path class="cls-1" d="M99.86,49.92a4.16,4.16,0,0,1-1.56-1.53,4.37,4.37,0,0,1-.57-2.22A4.27,4.27,0,0,1,98.3,44a4.16,4.16,0,0,1,1.56-1.53,4.5,4.5,0,0,1,4.31,0A4,4,0,0,1,105.72,44a4.27,4.27,0,0,1,.57,2.2,4.37,4.37,0,0,1-.57,2.22,4,4,0,0,1-1.55,1.53,4.5,4.5,0,0,1-4.31,0Zm3.63-1a2.54,2.54,0,0,0,1-1.08,3.45,3.45,0,0,0,.37-1.64,3.37,3.37,0,0,0-.37-1.62,2.54,2.54,0,0,0-1-1.08,3.15,3.15,0,0,0-3,0,2.54,2.54,0,0,0-1,1.08,3.37,3.37,0,0,0-.37,1.62,3.45,3.45,0,0,0,.37,1.64,2.54,2.54,0,0,0,1,1.08,3.07,3.07,0,0,0,3,0Zm-.24-8.68-2.66,1.31v-1L103.25,39Z"/><path class="cls-1" d="M115.42,49.27h2.83v1.11H114V42h1.38Z"/><path class="cls-1" d="M127.17,43.11v2.46h2.89v1.12h-2.89v2.57h3.26v1.12H125.8V42h4.63v1.12Z"/><path class="cls-1" d="M140.19,49.92a4.09,4.09,0,0,1-1.56-1.53,4.37,4.37,0,0,1-.57-2.22,4.27,4.27,0,0,1,.57-2.2,4.09,4.09,0,0,1,1.56-1.53,4.5,4.5,0,0,1,4.31,0A4.07,4.07,0,0,1,146.05,44a4.27,4.27,0,0,1,.57,2.2,4.37,4.37,0,0,1-.57,2.22,4.07,4.07,0,0,1-1.55,1.53,4.5,4.5,0,0,1-4.31,0Zm3.63-1a2.66,2.66,0,0,0,1-1.08,3.57,3.57,0,0,0,.37-1.64,3.49,3.49,0,0,0-.37-1.62,2.66,2.66,0,0,0-1-1.08,2.9,2.9,0,0,0-1.48-.37,2.94,2.94,0,0,0-1.49.37,2.58,2.58,0,0,0-1,1.08,3.37,3.37,0,0,0-.37,1.62,3.45,3.45,0,0,0,.37,1.64,2.58,2.58,0,0,0,1,1.08,2.85,2.85,0,0,0,1.49.38A2.81,2.81,0,0,0,143.82,48.89Z"/><path class="cls-1" d="M164,44a4.09,4.09,0,0,1,1.56-1.53,4.55,4.55,0,0,1,4.53.11,3.76,3.76,0,0,1,1.51,1.86H170a2.21,2.21,0,0,0-.9-1,2.69,2.69,0,0,0-1.34-.33,2.94,2.94,0,0,0-1.49.37,2.58,2.58,0,0,0-1,1.08,3.75,3.75,0,0,0,0,3.25,2.58,2.58,0,0,0,1,1.08,3,3,0,0,0,1.49.38,2.69,2.69,0,0,0,1.34-.33,2.21,2.21,0,0,0,.9-1h1.65a3.7,3.7,0,0,1-1.51,1.85,4.64,4.64,0,0,1-4.54.11A4.14,4.14,0,0,1,164,48.38,4.55,4.55,0,0,1,164,44Z"/><path class="cls-1" d="M181.3,49.92a4.09,4.09,0,0,1-1.56-1.53,4.37,4.37,0,0,1-.57-2.22,4.27,4.27,0,0,1,.57-2.2,4.09,4.09,0,0,1,1.56-1.53,4.5,4.5,0,0,1,4.31,0A4.07,4.07,0,0,1,187.16,44a4.27,4.27,0,0,1,.57,2.2,4.37,4.37,0,0,1-.57,2.22,4.07,4.07,0,0,1-1.55,1.53,4.5,4.5,0,0,1-4.31,0Zm3.63-1a2.66,2.66,0,0,0,1-1.08,3.57,3.57,0,0,0,.37-1.64,3.49,3.49,0,0,0-.37-1.62,2.66,2.66,0,0,0-1-1.08,3.14,3.14,0,0,0-3,0,2.54,2.54,0,0,0-1,1.08,3.37,3.37,0,0,0-.37,1.62,3.45,3.45,0,0,0,.37,1.64,2.54,2.54,0,0,0,1,1.08,3.07,3.07,0,0,0,3,0Z"/><path class="cls-1" d="M196.85,49.27h2.84v1.11h-4.21V42h1.37Z"/><path class="cls-1" d="M208.9,49.92a4.14,4.14,0,0,1-1.55-1.53,4.37,4.37,0,0,1-.57-2.22,4.27,4.27,0,0,1,.57-2.2,4.14,4.14,0,0,1,1.55-1.53,4.52,4.52,0,0,1,4.32,0A4.14,4.14,0,0,1,214.77,44a4.27,4.27,0,0,1,.57,2.2,4.37,4.37,0,0,1-.57,2.22,4.14,4.14,0,0,1-1.55,1.53,4.52,4.52,0,0,1-4.32,0Zm3.64-1a2.66,2.66,0,0,0,1-1.08,3.57,3.57,0,0,0,.36-1.64,3.48,3.48,0,0,0-.36-1.62,2.66,2.66,0,0,0-1-1.08,3.17,3.17,0,0,0-3,0,2.66,2.66,0,0,0-1,1.08,3.48,3.48,0,0,0-.36,1.62,3.57,3.57,0,0,0,.36,1.64,2.66,2.66,0,0,0,1,1.08,3.09,3.09,0,0,0,3,0Z"/><path class="cls-1" d="M231.91,42v8.38h-1.37V44.64L228,50.38H227l-2.57-5.74v5.74h-1.37V42h1.48l2.94,6.57L230.44,42Z"/><path class="cls-1" d="M245.75,46.79a2,2,0,0,1,.47,1.34,2.09,2.09,0,0,1-.33,1.15,2.27,2.27,0,0,1-1,.81,3.49,3.49,0,0,1-1.46.29h-3.35V42h3.2a3.47,3.47,0,0,1,1.47.29,2.12,2.12,0,0,1,.93.78,2,2,0,0,1,.31,1.09,1.89,1.89,0,0,1-.39,1.21,2.27,2.27,0,0,1-1,.71A1.85,1.85,0,0,1,245.75,46.79Zm-4.25-1.27h1.7a1.64,1.64,0,0,0,1.05-.3,1.11,1.11,0,0,0,.38-.89,1.12,1.12,0,0,0-.38-.89,1.59,1.59,0,0,0-1.05-.32h-1.7Zm2.95,3.4a1.15,1.15,0,0,0,.4-.94,1.21,1.21,0,0,0-.42-1,1.65,1.65,0,0,0-1.12-.37H241.5v2.62h1.85A1.61,1.61,0,0,0,244.45,48.92Z"/><path class="cls-1" d="M255.49,42v8.38h-1.37V42Z"/><path class="cls-1" d="M268.76,48.67h-3.51l-.61,1.71h-1.43l3-8.39h1.59l3,8.39h-1.44Zm-.39-1.12L267,43.65l-1.38,3.9Z"/></svg>