<svg id="Capa_1" data-name="Capa 1" xmlns="http://www.w3.org/2000/svg" viewBox="0 0 471.93 180.5"><defs><style>.cls-1{fill:#fff;}</style></defs><polygon class="cls-1" points="235.97 0 335.31 64.19 434.85 0 235.97 0"/><polygon class="cls-1" points="37.08 0 136.43 64.19 235.97 0 37.08 0"/><path class="cls-1" d="M0,155.57v-19.4H11.57l6.2,9.42a19.74,19.74,0,0,1,1.46,2.48,13.74,13.74,0,0,1,.9,2.35c.35-.72.74-1.46,1.19-2.22s1-1.61,1.61-2.56l6.32-9.47h11.1v19.4H33.43V139.3c-.36.72-.76,1.44-1.18,2.15s-.88,1.42-1.36,2.13l-7.84,12H17.13l-7.61-12c-.79-1.25-1.35-2.16-1.69-2.74s-.62-1.09-.85-1.54v16.27Z"/><path class="cls-1" d="M45.43,155.57l13-19.4h10.1l12.92,19.4H73.32l-2.65-4.25H55.84l-2.74,4.25Zm12.35-7.33H68.71l-5.48-8.68Z"/><path class="cls-1" d="M86.33,155.57v-19.4H95l12.34,9.75c1,.75,1.82,1.52,2.63,2.29a30.08,30.08,0,0,1,2.22,2.34,8.69,8.69,0,0,1-.46-1.84,14,14,0,0,1-.15-2.1V136.17H119v19.4h-7.5l-13.41-10a27.77,27.77,0,0,1-2.32-2c-.82-.79-1.66-1.67-2.53-2.63a7.6,7.6,0,0,1,.42,1.75,15.78,15.78,0,0,1,.13,2.2v10.72Z"/><path class="cls-1" d="M136.23,155.57V139.38H125v-3.21h30.72v3.21H144.4v16.19Z"/><path class="cls-1" d="M161.88,155.57v-19.4h27.89v3.15H169.92v4.59h14.46V147H169.92v5.25h20.71v3.31Z"/><path class="cls-1" d="M197.1,155.57v-19.4h8.62l12.35,9.75c.94.75,1.81,1.52,2.62,2.29a30.08,30.08,0,0,1,2.22,2.34,9.35,9.35,0,0,1-.46-1.84,14.06,14.06,0,0,1-.14-2.1V136.17h7.5v19.4h-7.5l-13.42-10a27.77,27.77,0,0,1-2.32-2c-.82-.79-1.66-1.67-2.52-2.63a8.8,8.8,0,0,1,.42,1.75,17.48,17.48,0,0,1,.13,2.2v10.72Z"/><path class="cls-1" d="M240.16,155.57v-19.4h8.14v19.4Z"/><path class="cls-1" d="M258.71,155.57v-19.4h11.57l6.2,9.42a19.62,19.62,0,0,1,1.45,2.48,13,13,0,0,1,.91,2.35c.35-.72.74-1.46,1.19-2.22s1-1.61,1.61-2.56l6.32-9.47h11.1v19.4h-6.92V139.3c-.37.72-.76,1.44-1.18,2.15s-.88,1.42-1.36,2.13l-7.84,12h-5.92l-7.61-12c-.79-1.25-1.35-2.16-1.69-2.74s-.62-1.09-.85-1.54v16.27Z"/><path class="cls-1" d="M309.53,155.57v-19.4h8.14v19.4Z"/><path class="cls-1" d="M328.31,155.57v-19.4H356.2v3.15H336.36v4.59h14.45V147H336.36v5.25h20.71v3.31Z"/><path class="cls-1" d="M363.53,155.57v-19.4h8.63l12.34,9.75c.94.75,1.82,1.52,2.63,2.29s1.54,1.55,2.22,2.34a8.69,8.69,0,0,1-.46-1.84,14,14,0,0,1-.15-2.1V136.17h7.5v19.4h-7.5l-13.41-10a26.26,26.26,0,0,1-2.32-2c-.82-.79-1.66-1.67-2.53-2.63a8.8,8.8,0,0,1,.42,1.75,15.78,15.78,0,0,1,.13,2.2v10.72Z"/><path class="cls-1" d="M413.43,155.57V139.38H402.15v-3.21h30.72v3.21H421.6v16.19Z"/><path class="cls-1" d="M436.25,145.92q0-4.71,4.73-7.35t13.09-2.63q8.37,0,13.11,2.63t4.75,7.35c0,3.11-1.59,5.56-4.76,7.32s-7.54,2.66-13.1,2.66-9.89-.89-13.06-2.66S436.25,149,436.25,145.92Zm8.19,0a5.69,5.69,0,0,0,2.45,5c1.64,1.14,4,1.7,7.18,1.7s5.55-.56,7.19-1.7a5.69,5.69,0,0,0,2.45-5,5.79,5.79,0,0,0-2.45-5c-1.64-1.14-4-1.72-7.19-1.72s-5.54.58-7.18,1.72A5.79,5.79,0,0,0,444.44,145.92Z"/><path class="cls-1" d="M41.69,180.19v-18.1H69.14V165H49.61v4.27H63.83v2.9H49.61v4.9H70v3.08Z"/><path class="cls-1" d="M73.31,176.11l7.21-1.37a10.9,10.9,0,0,0,3.73,2.11,16.07,16.07,0,0,0,4.87.66,16.45,16.45,0,0,0,5-.62c1.23-.41,1.84-1,1.84-1.68s-.45-1-1.36-1.4a24.22,24.22,0,0,0-4.91-1.13l-1.39-.22c-4.15-.65-7-1.2-8.66-1.65A10.25,10.25,0,0,1,76,169.13a2.94,2.94,0,0,1-1.28-2.31q0-2.19,3.82-3.55a30,30,0,0,1,10-1.37,33.93,33.93,0,0,1,9,1,10.4,10.4,0,0,1,5.27,2.95L95.54,167a8.15,8.15,0,0,0-3.15-1.77,15.59,15.59,0,0,0-4.49-.55,12.65,12.65,0,0,0-4.07.52c-1,.34-1.49.81-1.49,1.4,0,.92,2.43,1.78,7.29,2.6,1.5.25,2.67.45,3.52.61q6.1,1.11,8.31,2.26c1.46.77,2.2,1.77,2.2,3,0,1.67-1.28,3-3.84,3.94a30.83,30.83,0,0,1-10.53,1.44,38.16,38.16,0,0,1-9.86-1.1A13.05,13.05,0,0,1,73.31,176.11Z"/><path class="cls-1" d="M118.08,180.19V165.08H107v-3h30.23v3h-11.1v15.11Z"/><path class="cls-1" d="M138.6,180.19l12.74-18.1h9.94L174,180.19h-7.95l-2.61-4H148.85l-2.7,4Zm12.15-6.84h10.76l-5.4-8.1Zm13.91-17.13-8.89,4.48h-4l5.59-4.48Z"/><path class="cls-1" d="M186.52,180.19V165.08h-11.1v-3h30.23v3h-11.1v15.11Z"/><path class="cls-1" d="M212.35,180.19v-18.1h8v18.1Z"/><path class="cls-1" d="M252.91,174.8l7.32.86q-1.56,2.34-5.56,3.59a34.13,34.13,0,0,1-10,1.25q-8.24,0-12.43-2.35a7.48,7.48,0,0,1-4.21-6.91c0-3,1.49-5.3,4.46-6.93s7.18-2.44,12.63-2.44a30.25,30.25,0,0,1,9.37,1.22q3.66,1.22,4.88,3.51l-7.32.77a4.93,4.93,0,0,0-2.65-2,14.08,14.08,0,0,0-4.73-.67q-4.32,0-6.44,1.62a5.79,5.79,0,0,0-2.13,4.91,5.38,5.38,0,0,0,2.13,4.7c1.41,1,3.62,1.52,6.61,1.52a16.08,16.08,0,0,0,5.08-.72A5.56,5.56,0,0,0,252.91,174.8Z"/><path class="cls-1" d="M264,171.19q0-4.4,4.66-6.85t12.88-2.47q8.24,0,12.91,2.47t4.67,6.85c0,2.91-1.57,5.19-4.69,6.83s-7.42,2.48-12.89,2.48-9.73-.83-12.85-2.48S264,174.1,264,171.19Zm8.06,0a5.23,5.23,0,0,0,2.42,4.66c1.6,1.06,4,1.59,7.06,1.59s5.46-.53,7.07-1.59a5.23,5.23,0,0,0,2.42-4.66,5.3,5.3,0,0,0-2.42-4.71c-1.61-1.07-4-1.6-7.07-1.6s-5.46.53-7.06,1.6A5.3,5.3,0,0,0,272,171.19Z"/><path class="cls-1" d="M331.85,180.19l-12.63-18.1h8l9.65,14.77,9.54-14.77h8l-12.6,18.1Z"/><path class="cls-1" d="M359.47,180.19v-18.1h14.31q8,0,12,1.33t3.92,4.08a3.42,3.42,0,0,1-2,2.95,15.35,15.35,0,0,1-5.79,1.62l9.37,8.12h-8.55l-8.14-7.34h-7.27v7.34ZM367.25,170h6.93a19.28,19.28,0,0,0,5.63-.6c1.2-.41,1.8-1,1.8-1.91s-.6-1.49-1.8-1.9a19.21,19.21,0,0,0-5.63-.61h-6.93Z"/><path class="cls-1" d="M395.69,171.19q0-4.4,4.66-6.85t12.89-2.47q8.22,0,12.9,2.47t4.67,6.85q0,4.37-4.69,6.83t-12.88,2.48q-8.17,0-12.86-2.48T395.69,171.19Zm8.06,0a5.23,5.23,0,0,0,2.42,4.66c1.61,1.06,4,1.59,7.07,1.59s5.46-.53,7.06-1.59a5.23,5.23,0,0,0,2.42-4.66,5.3,5.3,0,0,0-2.42-4.71c-1.6-1.07-4-1.6-7.06-1.6s-5.46.53-7.07,1.6A5.3,5.3,0,0,0,403.75,171.19Z"/><path class="cls-1" d="M236,21.23,154.3,74.29,236,126.83l81.67-52.54Zm-2,56q0,3.33-4,5.11t-11.51,1.78q-7.81,0-11.65-1.85T203,76.61V64.3h7.71V76.77a3.29,3.29,0,0,0,1.84,3.14,13.62,13.62,0,0,0,5.94,1q4.35,0,6.2-.93a3.26,3.26,0,0,0,1.86-3.17V64.3H234Zm24.23-9.68V83.76h-7.78V67.52H239.68V64.3H269v3.22Z"/></svg>