<svg id="Capa_1" data-name="Capa 1" xmlns="http://www.w3.org/2000/svg" viewBox="0 0 279.93 207.77"><defs><style>.cls-1{fill:#fff;}</style></defs><path class="cls-1" d="M84.19,37.86h93.66L150.78,65.48H112.92V92.21s1.33,20.11,22.72,21.2,66.82-53.27,66.82-53.27l25.39-27.62V0H56.34V105.13s12.48,53.46,58.81,64.59h112.7v-102l-58.8,62.81s-34.3,28.51-64.6.89c0,0-13.36-10.69-20-33Z"/><path class="cls-1" d="M1.59,189.46a10.87,10.87,0,0,1,4.54-4.26,15.05,15.05,0,0,1,7-1.51,15.51,15.51,0,0,1,6.15,1.15A10.9,10.9,0,0,1,25.91,193H17.16a4.43,4.43,0,0,0-1.7-1.81,4.84,4.84,0,0,0-2.53-.65,4.12,4.12,0,0,0-3.3,1.4,6.42,6.42,0,0,0,0,7.53,4.13,4.13,0,0,0,3.3,1.41,4.94,4.94,0,0,0,2.53-.65,4.46,4.46,0,0,0,1.7-1.82h8.75a10.9,10.9,0,0,1-6.68,8.15,15.51,15.51,0,0,1-6.15,1.15,15.05,15.05,0,0,1-6.95-1.51,10.87,10.87,0,0,1-4.54-4.26,13,13,0,0,1,0-12.47Z"/><path class="cls-1" d="M34.94,206.2a12.52,12.52,0,0,1-5-4.33,11.55,11.55,0,0,1,0-12.48,12.49,12.49,0,0,1,5-4.32,15.91,15.91,0,0,1,13.7,0,12.48,12.48,0,0,1,4.91,4.32,11.61,11.61,0,0,1,0,12.48,12.43,12.43,0,0,1-4.93,4.33,15.68,15.68,0,0,1-13.68,0Zm10.67-6.75a6.16,6.16,0,0,0,0-7.67,5,5,0,0,0-3.82-1.42,5,5,0,0,0-3.85,1.42,6.16,6.16,0,0,0,0,7.67,5.08,5.08,0,0,0,3.85,1.42A5,5,0,0,0,45.61,199.45Z"/><path class="cls-1" d="M83.74,207.54h-8.3l-8.79-11.88v11.88H58.36V183.92h8.29L75.44,196V183.92h8.3Z"/><path class="cls-1" d="M88.32,189.46a10.87,10.87,0,0,1,4.54-4.26,15.05,15.05,0,0,1,7-1.51,15.51,15.51,0,0,1,6.15,1.15,11,11,0,0,1,6.68,8.15h-8.75a4.43,4.43,0,0,0-1.7-1.81,4.84,4.84,0,0,0-2.53-.65,4.12,4.12,0,0,0-3.3,1.4,6.42,6.42,0,0,0,0,7.53,4.13,4.13,0,0,0,3.3,1.41,4.94,4.94,0,0,0,2.53-.65,4.46,4.46,0,0,0,1.7-1.82h8.75a11,11,0,0,1-6.68,8.15,15.51,15.51,0,0,1-6.15,1.15,15.05,15.05,0,0,1-7-1.51,10.87,10.87,0,0,1-4.54-4.26,13,13,0,0,1,0-12.47Z"/><path class="cls-1" d="M128.94,207.54l-5-8.48h0v8.48h-8.3V183.92H128a13.4,13.4,0,0,1,5.5,1,7.66,7.66,0,0,1,3.42,2.77,7.05,7.05,0,0,1,1.14,3.95,6.47,6.47,0,0,1-1.48,4.2,8.17,8.17,0,0,1-4.24,2.64l5.76,9Zm-5-13.41h3.29a2.77,2.77,0,0,0,1.79-.49,2.12,2.12,0,0,0,0-3,2.6,2.6,0,0,0-1.77-.53h-3.29Z"/><path class="cls-1" d="M149,189.82v2.91h8.23v5.57H149v3.33h9.35v5.91H140.67V183.92h17.65v5.9Z"/><path class="cls-1" d="M193.27,183.92v23.62H185V195.76l-4.07,11.78h-7.11l-4.07-11.78v11.78h-8.3V183.92h10.17l5.83,14.18,5.68-14.18Z"/><path class="cls-1" d="M214,204h-8.82l-1.31,3.57h-8.71l9.68-23.62h9.57L224,207.54h-8.75Zm-2-5.57-2.39-6.57-2.39,6.57Z"/><path class="cls-1" d="M226.75,189.46a10.87,10.87,0,0,1,4.54-4.26,15.07,15.07,0,0,1,7-1.51,15.49,15.49,0,0,1,6.14,1.15,10.9,10.9,0,0,1,6.68,8.15h-8.75a4.43,4.43,0,0,0-1.7-1.81,4.83,4.83,0,0,0-2.52-.65,4.13,4.13,0,0,0-3.31,1.4,6.42,6.42,0,0,0,0,7.53,4.14,4.14,0,0,0,3.31,1.41,4.93,4.93,0,0,0,2.52-.65,4.46,4.46,0,0,0,1.7-1.82h8.75a10.9,10.9,0,0,1-6.68,8.15,15.49,15.49,0,0,1-6.14,1.15,15.07,15.07,0,0,1-7-1.51,10.87,10.87,0,0,1-4.54-4.26,13,13,0,0,1,0-12.47Z"/><path class="cls-1" d="M270.06,207.54l-7.7-10.24v10.24h-8.3V183.92h8.3v9.94l7.59-9.94h9.38l-9.12,11.31,9.72,12.31Z"/></svg>